<svg id="visual" viewBox="0 0 900 600" width="900" height="600" xmlns="http://www.w3.org/2000/svg" xmlns:xlink="http://www.w3.org/1999/xlink" version="1.1"><rect x="0" y="0" width="900" height="600" fill="#efefef"></rect><g transform="translate(482.8410368337568 333.8457439832446)"><path d="M133.9 -156.1C168.9 -130.3 189.3 -83.6 180.8 -44.8C172.3 -5.9 134.9 25.2 106.5 49.5C78.2 73.8 58.9 91.4 33.7 106.6C8.6 121.8 -22.6 134.7 -50 128.5C-77.4 122.4 -101 97.2 -141.3 63.9C-181.6 30.6 -238.5 -10.7 -247.2 -57.8C-255.9 -105 -216.3 -157.8 -167.1 -181.1C-117.8 -204.4 -58.9 -198.2 -4.7 -192.6C49.5 -187 99 -182 133.9 -156.1" fill="#e0e0e0"></path>
</g>
</svg>