<svg xmlns="http://www.w3.org/2000/svg" viewBox="0 0 203.46 211.93"><defs><style>.cls-1,.cls-3,.cls-6,.cls-7{fill:none;}.cls-2{font-size:6.7px;stroke-width:0.5px;font-family:MyriadPro-Regular, Myriad Pro;}.cls-2,.cls-8{fill:#231f20;}.cls-2,.cls-4,.cls-6,.cls-7{stroke:#151515;stroke-miterlimit:10;}.cls-3{font-size:5.44px;}.cls-3,.cls-8{font-family:Bauhaus93, "Bauhaus 93";}.cls-4{fill:#fff;}.cls-4,.cls-6{stroke-width:0.25px;}.cls-5{fill:#b82025;}.cls-7{stroke-width:2px;}.cls-8{font-size:9.98px;}</style></defs><title>Asset 1</title><g id="Layer_2" data-name="Layer 2"><g id="Layer_1-2" data-name="Layer 1"><rect class="cls-1" width="203.46" height="211.93"/><text class="cls-2" transform="translate(155.32 103.85) scale(1.29 1)">00</text><text class="cls-3" transform="translate(180.05 104.1) scale(1.24 1)">KENYA</text><path class="cls-4" d="M54,92.18v0l.1,0,0-.06,0,.06.08,0v0l-.11,0-.08-.06-.07,0v0h.12l.09,0,.26.1.21.08h.07l-.25-.1-.22-.15v0l.29.2.09-.06.05.1.26.11v-.09l.05.13.17,0,.18.17,0-.19-.15-.11v-.13l.19.16,0,.12,0-.06V93l.14.11.07-.07.08-.09.05-.13v-.11l.06-.09.18-.09.11-.07.1,0,.14-.08.08-.1.08-.12.1,0,.11-.12.11-.14.2-.16v-.23L57,91.33l0-.11h.14l.1-.09.16-.06.18,0v-.29l0-.07.08-.09v-.09h-.16l-.16,0-.06.09-.18.22h-.06l-.14,0v-.19l.07-.12.08-.12.14-.14-.09-.09L57.14,90v0l-.1-.15v-.17L57,89.54l-.1-.05v-.06l.08-.11.07-.13V89.1l-.06,0L56.86,89l-.09-.07-.1-.1-.1-.21-.13-.2-.09-.13-.17-.17-.11-.1-.2-.08-.17,0h-.17l-.26,0h-.16l-.17,0-.1.12-.11,0h-.48l-.1,0-.11.09-.17.18-.07.15,0,.11s0,.1-.05.1l-.09.12-.09.1-.1.09-.06,0-.08.08-.08.11,0,.09-.08,0H53l-.11.06-.1,0h-.21l0,.08v.11l0,.09h.12v0l.08-.07H53l0,0,0,.06h-.16v.07h.37v.08H53l0,0v.11l-.06,0v0h-.06l0,0-.05,0v-.1h0l0,0V90l0,.1,0,0,0,.06v.06l0,0,0,.12h.08v-.11l-.06,0,0-.06.12,0,0,.07h.22v.08h-.15l0,0-.06,0,0,.09.09.07v.06H53l-.06-.07h-.14v.13l.1.12V91L53,90.9l.16,0,0,0,.16-.06,0,.07-.11.08s.15.21.16.21a1.47,1.47,0,0,1,0,.21l.07.07,0,0-.06,0h-.08l0,0,.16.19h.12l0,0,0,.06h.24l.1-.1.07,0h.08s0,.11,0,.11H54l-.07.07v.1h-.06l-.06-.06h-.11l-.1.06,0,.11,0,.11.15,0,.12.12L54,92.2V92L54,92l0,0v.11Z"/><path class="cls-4" d="M61.67,87.74v-.18l-.07,0-.14-.07-.12-.09-.1,0-.09,0,0-.09,0-.1,0-.1v-.52L61,86.37l-.08-.06-.1,0-.1,0-.07.12-.09,0-.06,0,0-.07,0-.07.11-.11V86.1l.08-.11.08,0,.12,0s.06-.07.06-.07v-.09l-.06,0-.11-.08-.16,0-.11,0,0-.08,0-.11-.06,0-.17,0,0-.1v-.08l0-.07,0-.11,0-.13,0-.09-.09-.08-.06,0,0,0v-.07l0,0a.31.31,0,0,0,0-.07s0-.05,0-.05l-.08,0s0-.09,0-.09l.06-.07L59.91,84l-.21-.09-.19-.08h-.35s0,0,0,0l.11.06a1.33,1.33,0,0,1,.06.12l0,.09-.09,0h-.13l-.14,0-.12.07-.12.14a.44.44,0,0,0,0,.1,1.56,1.56,0,0,1-.06.15l-.07.09-.08-.09-.12-.1-.15-.09L58,84.4l-.17-.07-.21,0-.19,0-.12.06-.08.07-.09.16a1.34,1.34,0,0,1-.07.18l-.09.08-.07,0,0-.08,0,0,0-.08s-.05-.11-.05-.12l-.08-.12-.08-.07-.08,0-.12,0-.06.09-.07.1-.07.1a.25.25,0,0,1,0,.07l-.11.06H56l-.07,0,0-.09-.11-.1-.08-.08-.05,0,0-.09.05,0,0-.13,0-.07.07-.08,0-.11,0-.06h-.31l-.14.14h-.29l-.17-.08h-.24l-.11,0-.2.11h-.18L54,83.94l-.06,0-.12.08-.14-.08-.13,0-.14-.09-.07,0h-.15l0,.07h-.13l0-.07,0-.2-.23,0-.09.07-.12,0-.43,0H52l-.09.07.05.17,0,.11v.07L52,84l-.05.08h-.14l-.06,0-.05,0-.07,0v.23l.31.17,0,.46-.36.16-.49,0-.2.12-.25.15h-.29l-.12.16v.12l-.06.14L50,86l0,0v.07l-.1.11v.08h0v0h.14l.06-.08v-.12l.07,0v.14l0,.09-.25.14v.13l.15-.15v.07l-.08.1v.05l.17-.12h0l-.22.15v.07l0,0,.21-.19,0,0-.13.11v0l.09,0,.15-.12,0-.09,0,0,0,0,.06,0v0l-.1,0-.12.17,0,.06,0,.07V87l0,0,.08,0v.08h0v0h-.06l-.05.07v.08h.12v-.09h0v0l0,0,0,0,.05.06,0,.06,0,.06v.18h.18l.13.11.07.07.14.06,0,0h0V87.7h.06l.22.18,0,0-.12-.1-.06,0,0,.08.12.08.1,0h0l.08.08,0,.06h.07l.07,0,0-.13,0,0,.14.07v0h0l0,.13.06,0,0,.12h0l0,.15L52,88.7l.05.07h.14l.15,0,.09,0,.09.1V89l0,0-.06,0v.13h0v-.06l.08-.06h0l-.06.09,0,.08,0,0v-.06l0,0,0,.09.05,0,0,.06h0l0,0h0l0,0h0v0l-.07,0v.09h-.08l0,0-.13,0-.07.12h.21l.1,0,.11-.06h.07l.08,0,0-.09.08-.11.08-.08.06,0,.1-.09.09-.1.09-.12s.05-.1.05-.1l0-.11.07-.15.17-.18.11-.09.1,0h.48l.11,0,.1-.12.17,0h.16l.26,0h.17l.17,0,.2.08.11.1.17.17.09.13.13.2.1.21.1.1.09.07.12.06.06,0v.09l-.07.13-.08.11v.06l.1.05.06.08v.17l.1.15v0l.07.08.09.09-.14.14-.08.12-.07.12v.19l.14,0h.06l.18-.22.06-.09.16,0h.33l.09.14h.11l.08-.13.23,0,.11,0,.18.1h.16l0-.07.06.1v.08l-.08,0v.15L59,91v.25l.12.07v.27l.11.1v.15l0,.13V92l-.11.12,0,.13h.2l.2.15.07,0,.07.21.21-.14H60l.17-.24.1-.16v-.28h.14l.11.14.1.11.05.07V92l.16-.13H61l.14.09.16-.2,0-.35.28-.23-.22-.16-.2-.14v-.46h.09l.13.06.08,0,.13,0,.16.16.13-.11,0,.13.11,0,.06-.22L62,90.26,61.89,90l-.26-.1v-.27l.15-.12.23,0-.1-.16-.19-.09v-.1l0-.24-.42,0,0-.18-.05-.16.08-.15,0-.21-.07-.09V88l.09-.1.06-.07.08-.08Z"/><polygon class="cls-4" points="49.65 86.47 49.72 86.41 49.84 86.41 49.84 86.47 49.77 86.51 49.77 86.61 49.68 86.61 49.67 86.53 49.65 86.47"/><polygon class="cls-4" points="52 83.49 51.91 83.56 51.96 83.73 51.99 83.84 51.98 83.91 51.96 84.04 51.91 84.12 51.77 84.12 51.71 84.08 51.66 84.13 51.59 84.17 51.59 84.24 51.59 84.4 51.9 84.57 51.88 85.03 51.52 85.19 51.03 85.21 50.83 85.33 50.58 85.48 50.29 85.48 50.17 85.64 50.17 85.76 50.11 85.9 50.01 86.04 49.95 86.12 49.84 86.18 49.78 86.3 49.62 86.36 49.53 86.24 49.77 86.05 49.8 85.96 49.78 85.77 49.74 85.79 49.71 85.94 49.65 86.02 49.57 86.05 49.47 86.05 49.45 85.91 49.33 85.88 49.17 85.85 49.1 85.85 49.14 85.91 49.22 85.95 49.33 85.96 49.33 86.1 49.18 86.08 49.1 85.96 49.07 85.88 49.03 85.76 49.18 85.64 49.23 85.53 49.23 85.45 49.09 85.6 48.98 85.71 48.91 85.74 48.91 85.56 49.1 85.4 49.23 85.32 49.33 85.29 49.47 85.3 49.54 85.32 49.59 85.37 49.74 85.34 49.57 85.25 49.5 85.19 49.25 85.19 49 85.38 48.99 85.24 48.82 85.1 48.82 85.03 48.93 85 48.82 84.89 48.61 84.89 48.42 84.92 48.24 84.92 48.1 84.92 48.01 84.97 47.91 85 47.7 84.89 47.54 84.89 47.54 84.8 47.57 84.7 47.68 84.82 47.93 84.83 48.09 84.8 48.24 84.8 48.42 84.72 48.5 84.63 48.34 84.63 48.16 84.71 47.81 84.71 47.74 84.75 47.66 84.67 47.66 84.59 47.54 84.57 47.5 84.6 47.46 84.53 47.46 84.4 47.7 84.22 47.88 84.14 48.03 84.12 48.18 84.18 48.29 84.29 48.41 84.26 48.29 84.16 48.15 84.06 47.95 84.03 47.78 84.1 47.6 84.18 47.49 84.26 47.46 84.3 47.27 84.29 46.92 84 47.33 84.01 47.55 83.93 47.73 83.84 47.9 83.83 48.15 83.84 48.32 83.89 48.51 83.8 48.67 83.78 48.83 83.79 48.98 83.77 49.14 83.64 49.28 83.52 49.41 83.49 49.55 83.49 50.03 83.49 50.6 83.49 51.08 83.49 51.56 83.49 52 83.49"/><polygon class="cls-4" points="48.77 85.41 48.86 85.38 48.91 85.35 48.91 85.25 48.82 85.25 48.78 85.28 48.69 85.3 48.67 85.36 48.7 85.42 48.77 85.41"/><polygon class="cls-4" points="48.52 86.03 48.54 85.94 48.63 85.92 48.63 85.83 48.52 85.83 48.44 85.91 48.44 86.03 48.52 86.03"/><path class="cls-4" d="M47.72,86l.07-.09,0-.07-.12,0,0,.09,0,.08Z"/><path class="cls-4" d="M47.64,83.61l-.14,0,0,0-.12-.07h-.1l-.15-.08-.08,0,0,.06-.13.07h-.08v-.13l.07-.09H47l0,0,.09,0v-.09l.07-.12,0-.13h-.08v.14l-.07.06,0,.06h-.26v-.08l.07-.14,0-.16v-.2l.21-.09h1.19l.17-.14.17-.17.22-.14.24-.08h.34l.21,0,.32,0,.19.09.17.11h.18l.27.1.22.09.23,0,.2-.12.17,0,.14-.07,0-.24L51.61,82l-.19,0-.36.1-.15.09-.25,0-.06-.15-.09-.11-.19,0h-.13L50,81.68l-.09-.08-.18,0-.17,0-.18.07-.24,0-.09.12-.15.18-.17,0-.4,0-.43,0-.39,0-.36,0v-.09l.09-.1,0-.16,0-.13,0-.1-.08,0,0,.07v0h.08v.12l0,.08-.1.09-.06,0v-.12l.08-.1,0,0v0h-.07v-.12h0l0-.1L47,81.17l-.07,0-.09,0v0l.09,0v.06l.08,0,0,.08-.06,0v0l0-.05,0,0h0l0,.06,0,0,0-.05v-.27l-.08-.11-.05-.09,0-.11-.09-.11-.09-.17-.12-.06-.08-.15,0-.09-.09-.08-.14,0-.1,0-.12-.08v-.07h.09l.14,0,.13,0,.09-.09,0-.09.1,0,.15-.16.17-.26.23-.31.17-.27.17-.37,0-.22v-.19l.13-.13v-.15l.12-.12,0-.12,0-.13.05-.13.11-.07a.46.46,0,0,1,.1-.05l.14.05L48,77h.1s.06-.06.06-.06h.27l.08.07.07,0,.11,0,0,0,.06,0h.59s.07-.05.07-.05h.14l0-.14.1,0,.16,0,.19,0,.09,0h.53l.14,0,.11.11.12,0,.09,0,.09.11.13.15.09.08.14.21.08.09H52l0,0,.19,0,.18.06.1.09.1.16.08.15.07.18a1.39,1.39,0,0,0,.06.13l.1.11.08.07,0,.08,0,.06h.12l.07,0,.05.08,0,.12,0,.15.13.11.14.09.17.16.18.11.21.15.15.12.1.1.08.07v0l0,.08v.08l-.08.09,0,.11v.14l.08.15.13.12.14.09.11.08v.34l0,.11,0,.22-.11.12V82l.09.09,0,.07,0,.08v.11l0,.07h.06l.06-.07.06,0h.09l.11.09.1.12.09.19.08.26.08.28v.19l0,.23,0,0v0l0,0,.07.06h-.31l-.14.14h-.29l-.17-.08h-.24l-.11,0-.2.11h-.18L54,83.94l-.06,0-.12.08-.14-.08-.13,0-.14-.09-.07,0h-.15l0,.07h-.13l0-.07,0-.2-.23,0-.09.07-.12,0-.14,0h-.14l-.27,0H49.41l-.13,0-.14.12-.16.13-.15,0h-.16l-.16,0-.19.09-.17,0h-.42l-.17.09-.23.08h-.41l-.17,0v-.2l.22-.08,0-.08h.09l0,.14.11.17,0-.14-.07-.13.06,0,.11,0,.21,0Z"/><polygon class="cls-4" points="47.16 81.91 47.52 81.94 47.91 81.91 48.34 81.94 48.74 81.96 48.91 81.93 49.06 81.75 49.15 81.63 49.39 81.65 49.57 81.58 49.74 81.56 49.92 81.61 50.02 81.68 50.19 81.85 50.32 81.84 50.51 81.81 50.6 81.92 50.66 82.07 50.91 82.11 51.06 82.02 51.42 81.92 51.61 81.96 51.69 82.08 51.66 82.32 51.52 82.39 51.35 82.41 51.15 82.53 50.92 82.55 50.7 82.46 50.43 82.36 50.25 82.36 50.08 82.25 49.88 82.16 49.57 82.11 49.36 82.14 49.02 82.14 48.78 82.22 48.56 82.36 48.39 82.53 48.22 82.67 47.36 82.67 47.03 82.67 46.82 82.76 46.78 82.66 46.78 82.52 46.7 82.43 46.76 82.29 46.82 82.16 46.91 82.16 47.01 82.16 47.09 82.07 47.16 81.91"/><path class="cls-4" d="M79.54,94.05v-.19l0-.17.06-.13s0-.1,0-.13l-.11-.17v-.18l0-.07,0-.12,0-.16,0-.29.1,0-.08-.23,0-.25V91l0-.49,0-.59,0-.22.31,0,.21-.1.14-.16.07-.26,0-.23.14-.2.08-.2,0-.14.18-.08.11-.1.06-.15,0-.17,0-.16,0-.06.12-.14s0-.13,0-.13h.13l.15-.12V87l-.08-.19-.08-.17,0-.2,0-.17-.11-.2-.12-.18L81,85.75v-.21l0-.16,0-.1.1-.19L81,85l-.17-.15-.25-.19-.21-.21L80,84.21l-.17-.15-.26,0-.09.12h-.12l-.16.08H79l0,.19,0,.24-.08,0-.06.13-.08.2,0,.14-.07.12-.09.11-.12,0,0,0-.1.11h-.11l-.12,0H78l-.11,0-.09,0h0l-.1-.05-.08,0h-.11l-.11,0-.07.08,0,.12h-.06l-.13,0-.08.06,0,.09-.08.06v.21h-.07l0-.1h-.06l-.09.09v.14l-.06.14,0,.08,0,.1-.07.15v.4l0,.15.09.09.12.12.12,0,.14.1.15.09.13,0,.09.09.06.12v.59l0,.18,0,.15,0,.16.15.14.08.11.06.1,0,.22v.41l0,.45v.83l0,.51v.69l0,.13-.1.25,0,.23.1.25.07.25.06.18.06.26.2,0,.32,0,.31,0,.31,0,.31,0h.11Z"/><path class="cls-4" d="M78,94.25,77.92,94l-.06-.18-.07-.25-.1-.25,0-.23.1-.25,0-.13V92l0-.51v-.83l0-.45v-.41l0-.22-.06-.1-.08-.11-.15-.14,0-.16,0-.15,0-.18v-.59L77.2,88,77.11,88l-.13,0-.15-.09-.14-.1-.12,0-.12-.12-.09-.09,0-.15v-.4l.07-.15,0-.1,0-.08.06-.14-.14-.05-.17,0-.15,0-.15.08-.13-.09-.12,0h-.13l-.14,0-.12,0H75v.09l0,.1-.07.11-.06.12V87l.11.07.07.06.06.09,0,.1,0,0h.15s0,.08,0,.08l.14,0,.08,0,0,0,0,.11v.19l0,.18v.45l0,.12,0,.15,0,.1,0,.06h.09l.08,0,.18,0,.09.07,0,.11,0,.14-.07.16,0,0,0,.1,0,.15.06.12v.08l0,.1-.06.07h-.08s0,.07,0,.07l.07.13.1.12.1,0,.1.12.1.14.06.13v.09l-.08.06L76,91v.46l0,.25,0,.15-.1.16,0,.12.05.12.08.08.08.08v.14l-.06.23L76,93l-.11.1,0,.11.06.17,0,.17.09.15.2.21.1.14.14.08.14.05.09.07.1.12.12.09.19,0,.26,0,.23,0,.21,0Z"/><path class="cls-4" d="M70.34,89.08l.06-.14-.06-.13-.06-.08s0-.14,0-.14l0-.12,0-.12,0-.09,0-.2,0-.06-.07-.1v-.1l.05-.13,0,0-.06-.08,0-.12,0-.06,0-.07-.09-.1L70,86.9l0-.15.07-.16,0-.08.08-.1.09,0,.22,0h1.77l.36,0,.35,0h.74l.13.1.08,0s.05-.08.07-.08l.13-.09.06-.06,0,0v.18l0,0,.08-.06,0-.07,0,0,.09,0h.09l.09.08,0,.06h.09l.11,0v.09l0,.1-.07.11-.06.12V87l.11.07.07.06.06.09,0,.1,0,0h.15s0,.08,0,.08l.14,0,.08,0,0,0,0,.11v.19l0,.18v.45l0,.12,0,.15,0,.1,0,.06h.09l.08,0,.18,0,.09.07,0,.11,0,.14-.07.16,0,0,0,.1,0,.15.06.12v.08l0,.1-.06.07h-.08s0,.07,0,.07l.07.13.1.12.1,0,.1.12.1.14.06.13v.09l-.08.06L76,91v.46l0,.25,0,.15-.1.16,0,.12.05.12.08.08.08.08v.14l-.06.23L76,93l-.11.1,0,.11.06.17,0,.17.09.15.2.21.1.14.14.08.14.05.09.07.1.12.12.09,0,.06,0,.08-.11.05h-.24s-.06,0,0,0,0,.1,0,.1l0,0v.09s-.07,0-.07,0a.16.16,0,0,0,0,.06l0,0,.07,0,.09-.09v-.15l0,0v.19l-.06.1-.12,0h-.1l0,0,0-.07v-.16h.12s0,0,0,0h-.14v.09l0,0,0,0v0l0,.09h-.18L76,94.93l0,0h0l-.15,0h-.08l-.08.06-.08,0-.16,0h-.15l0,0,0,.06-.19.09-.09.08h-.12l-.18.12-.08.07H74.4l-.12.06-.16.14-.22,0-.14.12-.18.11h-.31l-.2.08-.17.09-.14,0h-.14l-.19,0-.14,0-.19.15-.21.12-.07,0-.13.09-.1,0h-.11l-.12-.07-.11-.06-.08-.1-.09-.06-.23-.07-.21,0-.22-.06-.21-.05.1,0,.06,0,.06-.21,0-.18,0-.15-.06-.16-.11-.09-.12,0-.1-.11-.07-.07-.09-.46-.06-.28-.09-.19,0-.2-.07-.15-.06-.15v-.42l.15-.13L69.8,93l.11-.15,0-.12.05-.48.07-.17,0-.21.07-.15.17-.26.15-.15,0-.07.19-.24v-.17l-.08-.29,0-.19,0-.16L70.5,90v-.27l-.19-.06,0-.13v-.11l.08-.07.06-.07v-.06l-.06-.1Z"/><path class="cls-4" d="M130.58,127.86l-.16-.07,0-.14-.07-.16-.1-.12v-.11l-.11-.09h-.18L130,127l.22-.12.05-.17.07-.28v-.23l.13-.18,0-.1-.1-.07-.12-.12.08-.2.1-.15.12,0,.08.08.08,0s.08-.07.08-.07l.11-.07h.1l.1-.07.07-.12.15-.07V125h-.22l-.16-.11-.05-.26v-.18l.1-.15,0-.21-.07-.2-.08-.14,0-.25,0-.13.14-.15.07-.21-.14-.24-.11-.12,0-.18.2,0,.2-.08.15-.08.07-.21v-.15l-.11-.13-.07-.09v-.29l-.09,0-.14,0-.09-.12-.06-.15,0-.14,0-.08,0-.09-.09-.06a.73.73,0,0,1-.09-.13s0-.14,0-.14l-.05-.08h-.1l0,.08,0,.11h-.09l-.06-.12v-.08a1.43,1.43,0,0,0,0-.16l-.19-.14-.13-.11,0,0,.12.06.22,0,.16.06.11.09.08,0h.1l.17,0,.06.08.11.08h.39l.11.06.22.11,0,.1,0,.18.05.14,0,.13,0,.11.08.1.1.16.09.08.09,0,.06.09v.06l-.05.06,0,.12v.17l0,.19,0,.19v.66l0,.1,0,.12v.15l0,.11,0,.13v.14l-.09.11-.09.1-.08.06v.16l-.05.09-.08.08-.07.09,0,.11v.23l.05.1,0,.07.07.05.08.08,0,.09v.11l0,.1.05.06.06.06,0,.21.05.1,0,.09v.15l0,.09v.21l0,.1,0,.05v.11l0,.09.07,0,0,.09a.54.54,0,0,0,0,.1s.12.05.12.05l.1,0,.07.07.05.06,0,.08v.29l-.08.12,0,.07v.09l0,.09.05.09,0,.07.1.06.1,0,.09,0V128h.07l.12,0,.1.05.07,0,.08,0,0,.06.07.09,0,.08.09.07h.1v-.06l-.1-.2v-.44l-.1-.19,0-.12-.06-.07-.12,0-.24,0v-.36l.22.23.52.6.32.4.28.33.24.25.13.19,0,.17v.15l.06.12,0,.1-.15.13-.06.11,0,.16.05.13.06.13-.05.19,0,.25,0,.24,0,.17v.2l-.18.13-.15.11-.11,0-.17-.07-.11,0-.15.11,0,.18v.19l0,.1-.14.1,0,.13.08.11.09.1.07.14V133l0,.16h-.16l-.15,0-.12-.18.07-.1.13-.06,0-.13s-.05-.14-.08-.15l-.21,0-.15-.11-.13-.17-.34-.24-.13-.17-.06-.17-.22-.08,0-.19,0-.16-.13-.11-.08-.1v-.09l.2-.15.13-.1v-.12l0-.22.08-.1.13-.12.07-.07,0-.25,0-.34v-.23l-.1-.11,0-.22-.05-.2-.15-.07-.06-.14-.21-.06-.22.09-.19.08-.22,0-.18,0-.18,0-.09.1-.16-.07-.1-.15-.19-.26-.17-.23-.07-.14-.24,0"/><path class="cls-4" d="M127.59,142.36l.13-.13.51-.53.75-.78.33-.42h.26l.05-.07-.24-.14v-.14l0-.13.15-.15.06-.15v-.12l0-.21,0-.27.1,0,.15,0,.1-.2.18-.33,0-.15.1-.05.1-.14.11-.3-.08-.22-.18-.12-.12-.08v-.18l-.06-.05,0-.12.07-.17.09-.17,0-.19-.11-.17-.19-.13,0-.12,0-.13h.13l.16,0,.09-.07,0-.08,0-.11-.1-.1-.05-.13.14-.18.07-.08v-.54l0-.56v-.2l-.06-.12,0-.08,0-.12.06-.14s0-.12,0-.14,0-.15,0-.15l-.08-.15-.08-.15-.11-.15.14-.08,0-.08-.1-.07,0-.09-.16,0-.08-.16-.12-.1-.2-.08-.27-.07-.46-.07h-.17l-.11-.07-.17-.15-.15-.09-.14-.07-.19,0-.25-.11a1,1,0,0,1-.15-.09l-.11-.09-.14-.06-.18.18-.24-.12-.37,0h-.3l-.1-.09V131l0-.2v-.19H125l-.55,0-.47.18-.2.25-.17.06-.12.13,0,.16.06.17-.06.08V132l-.06.26-.61.12-.53.21-.31.21-.41.33-.37.41-.33.42-.29.33v.2l-.1.06-.3.05-.25.12-.23,0-.2-.14-.29,0-.3,0-.15.1-.35,0-.17-.13-.24,0-.34,0-.45,0,.1.15.1.16.13.16.16.17.09.17.08.19.31.28.1.18.08.17.16.17.13.13v.29l.08.15.09.2.08.3.22.17.31.28.23.17.11.09.45.19a1.55,1.55,0,0,0,.13.17l.25.07.16.09,0,.17v.36h.31l.09-.05.24,0,.12.11,0,.21-.08.34,0,.2,0,.2.25.19.15.15.1.2.06.08.17,0,.17.12.3.15.24.08.21.12.27.16.22,0,.07.18.12.1.12.07.09.07,0,.2h.45l.23-.09.26,0,.17.1.18.13.21,0,.28.07.24-.05h.71l.33,0,.22.09.16.07Z"/><path class="cls-4" d="M133.57,53.59l-.29-1.1-.43-1.27-.46-1.11-.45.25-.31.13h-.29l-.17-.08-.13.11,0,.09-.2,0-.15.13-.1,0v-.17l-.08-.06-.09.07-.16.1-.34,0h-.23a1.82,1.82,0,0,1-.29-.21l-.17-.14-.24-.11-.06-.16.07-.19-.17-.08h-.27l-.2.06-.27.05-.25-.05-.25-.14-.26-.08H127l-.46.18-.31.07H126l-.08-.06-.07.18v.12l-.11.11-.16,0-.15,0-.06-.06-.09.12-.06.13-.08.07H125l-.1.08-.14.12-.17.13-.17.15-.27.1-.22,0-.28-.06-.31-.15-.08-.08-.14-.08H123l-.13-.06-.12-.06-.58,0-.29,0-.12-.15v-.15l-.14.07a.82.82,0,0,0-.18,0h-.27l-.21-.13-.07-.2v0l-.15,0-.22,0-.16-.15H120l-.26-.1h-.24l-.23,0-.26-.09-.24-.07-.2-.13-.27,0-.23.11-.15.08-.14,0-.18,0-.15,0a2,2,0,0,1-.23-.08l-.08-.13v-.16l-.08.15-.06.13-.19.06-.08.23,0,.29.12.36L117,51v.27l-.13.41-.13.22-.16.25,0,.18.14.37,0,.22v.29l.08.36.13.31,0,.15,0,1.66v6.46l0,2.78v2.32h2.6l7.55.06h3.57l.23.18.23.2.19.11h.56l.15-.13.1-.15,0-.18,0,0,.92,0,2.48,0,1.29,0,0-.09-.09-.08-.11,0-.09-.06-.06-.09-.08-.08-.15,0-.09-.06,0-.08,0-.07-.08-.06-.09-.06,0-.18-.06-.1-.14,0-.23,0-.18-.06-.09-.08,0-.08-.08-.06-.19-.14v-.18l-.05-.17-.08-.19,0-.3-.09-.11,0-.32v-.18l0-.06,0-.06,0-.17,0-.14h.1a.14.14,0,0,0,0,0l.32,0,.06,0,0-.07-.1,0h-.14l-.16-.23h-.08l-.1-.17-.12-.2-.18-.15-.14-.14,0-.18-.14-.32-.12-.15-.08-.25-.12-.28-.15-.23-.11-.2-.06-.1,0-.2-.08-.12-.27-.45-.23-.32-.16-.33-.11-.34-.13-.25-.12-.28s0-.19,0-.21v-.19l-.15-.15-.07-.21-.11-.11,0-.2-.12-.08-.23-.28-.18-.32,0-.09.09,0,0-.15-.13,0,0-.09,0,0,.07,0h.08v-.16l-.14-.17-.12-.06-.11,0-.3-.43-.13-.2-.16-.19-.14-.14-.12-.1,0-.26-.12-.12-.14-.12-.07-.13,0-.3,0-.27-.09-.22-.15-.17-.18-.14-.11-.24.08-.17.14-.12.09-.08,0-.17.06-.1,0,.14.05.12,0,.09.08.07,0,.16,0,.19.08.08a.76.76,0,0,0,0,.14.74.74,0,0,0,.12.09l.05.06v.1l.08.15.25.24.23.22.08.11v.12l0,.07,0,.08v.45l.12,0,.14.18.21.18.26.25.19.32.2.23.18.08.16.15.19.09.1,0v-.1l.17-.21.1-.15,0-.2,0-.17,0-.23.22-.45.17-.43,0-.36,0-.36.11-.36.17-.24Z"/><path class="cls-4" d="M117.17,49.46l-.08.14-.06.13-.19.07-.08.22,0,.29.12.37L117,51v.27l-.13.42-.13.22-.16.24,0,.18.14.37,0,.23v.28l.08.36.13.31,0,.16,0,1.66v6.45l0,2.79v2.17l0,3.71H115.3v.85l-2.69-1.38-4.12-2.16-2.86-1.4-3.17-1.65-.56-.29-1.6.8-.36.18-1.07.57-.17,0L98.4,66l-.33-.36-.48-.29-.6-.16L96.3,65l-.54-.11-.6-.21-.63-1.16,0-.15-.4.07-.2-.1-.36-.24-.1-.21-.11-.14h-.18l-.08.09-.07,0-.06-.11-.21,0-.18.07-.23,0-.09-.16-.14-.17L92,62.36l-.1-.21v-.7l-.22-.27-.36-.46L91,60.24,90.82,60l-.08-.21.11-.12.05-.11.06-.16.25-.06.17,0,.25-.08V59l0-.39,0-.21-.11-.27,0-.48.17-.52.06-.39.08-.21,0-.13-.16-.2,0-.35.06-.49.11-.44,0-.45-.1-.58-.3-.67L91,52.79l-.18-.31v-.19L91,52.2l.25-.09.36-.17.37-.35.22-.45.08-.32,0-.59L92,50V49.7l.15-.11,0-.13.14-.15h.17l.16-.09.1-.14,0-.11.1-.12h.17l.1-.14,0-.12.27-.23.32-.12.29-.11.14-.06.17-.16,0-.14-.12-.17-.06-.4.06-.33v-.35l.1,0,.14.08.12.06h.21l.33.23.31.21.37.07.54,0,.39-.1.33-.09.19,0,.24.08.27.09.19.06.48.11.2,0,.16,0,.14.1a1.1,1.1,0,0,0,.11.12l.15.16.2,0,.2.12.54.07.2,0,.17.08.08.15,0,.14.05.09,0,.5.21.45.22.35.24.27.4.15.51.12.42,0,.25,0s.85.2.86.22a1.49,1.49,0,0,0,.32.08,1.25,1.25,0,0,1,.21.1,1,1,0,0,0,.21.05l.09.08.26,0,.09.12.19.08.29.09.26.21.3.25.24.2.24.14.25.13.32.06.33-.09.36-.2.43-.32.37-.45.17-.41,0-.4-.2-.43-.19-.33,0-.24,0-.33.13-.21.32-.5.53-.42.41-.22.13,0,.29-.2.55,0,.21-.1.24-.2.26,0,.16,0h.38l.06-.06.09,0,0,.08h.3l.14.1h.19l.17.14.24,0,.13,0,.16.07.13.13.11.14v.12l0,.12-.09.08v.11l.08,0,.13.06.06.1.1.14.08-.08.21,0,.26,0h.2l.28.1.15,0v.1l.25.11h.73l.13-.07h.2l.12.07.21,0,0,.08.06.2.1.13Z"/><path class="cls-4" d="M116.93,67.27v.24l0,3.33H115.3v7.29l0,.12,0,0h-.09l-.18-.07s-.11,0-.09-.06l-.14,0h-.2l-.2,0h-.11l0,.08h-.12l-.13,0-.16,0-.12.18-.06.06-.12.07-.06.12v.12l.07.1.05.13,0,.18-.09.13-.12.13-.12.07-.08.13-.14.08,0,.09.07.09V80l-.13.07-.17,0-.17.08v.12l.13.08v.1l0,.18,0,.09h.13l.08.09,0,.15-.14.07-.19.08-.2.12-.22.16-.11.12,0,.15.12.13,0,.31,0,.14v.12l-.13.14-.22.13-.12.15,0,.14-.06.1a.74.74,0,0,0-.08.13l0,.13.09.12,0,.07.15.07.11,0,.09-.08.11-.09.09,0,.1.07s.09,0,.09.07.08.07.08.07v.1l0,.11v.09l.1.1.06.13v.22l0,.09,0,.06h.09l.07,0v.11l0,.11,0,.13,0,.13v.29l.19.22.16.12.17,0h.09l.12.06,0,.14,0,.21-.06.15-.1.18,0,.1.13.14.35.32.27.31.14.24.18.28.14.28.1.14,0,.14v.18l-.06.13-.08.08,0,.09.08,0v.08l-.09,0,0,.07v.13l0,.1-.14.07-.06,0,0,.2.12.07.08.06v.09l-.07.1,0,.06s0,.06,0,.06l.14,0,.22.06h.77l0,.11-.06.09-.07.11a.56.56,0,0,0,0,.13s.07.16.07.16l.11.12.17.07.35,0h.34l.13.06.14.2.09.14.15.11.12,0,.06,0,.07,0,.08.13,0,.18,0,.1-.12.05,0,.12a.7.7,0,0,0,.06.09h.12l.11,0,0,.13,0,.09.19.1.25.05.2.1.34.2.3.37.08.12.11,0,.11,0,.09.07,0,.09-.06.09-.06.1,0,.15,0,.08.16.07.1,0,.07,0,0,.12-.09.09v.07l.16.1.21,0H120l.1.14.21.09h.12l.24.21,0,.07,0,.12.06.09v.09l0,.06v.14l0,.17.14.12.07.11.11.24.14.1.22.06.08.12s.07.09.06.1v.16l.16.14h.33v.2l.15,0,.11.08h0l.15,0,.08.1.1,0,.09-.08.1,0,.1-.06.06-.12.05-.08.09,0,.08,0,.12.12.19,0h.18l.15.14h.14l.13-.08.25-.25.06-.11.08-.06.14,0,.15.1.15.09.08.07v.26l.24.23.28.27,0,.15.15.07.17,0,.15.06.12.13,0,.12a1.31,1.31,0,0,1,0,.15l.15,0h.1l.12.08.08,0h.1l.2-.17.11-.12.14-.06.2,0,.27.13.12.09h.19l.29-.2.14.12.15.13.15.11.13.1.1-.1.16-.11.14-.1.16,0,.21,0H130l.15,0,.14-.09.12-.1.08,0,.15,0,.1.08.09,0,.24,0h.38l.51-.54.45-.42.47-.45h2.48l0-.09-.07-.09-.09-.11v-.29l0-.16.05-.14v-.23l-.1-.11-.18-.07-.12,0-.13,0h-.11l-.08.06-.11,0-.13-.06,0-.13,0-.15-.13-.08-.08-.09-.16-.24-.06-.19,0-.21-.06-.15-.08-.13,0-.25s-.06-.25-.07-.27l-.18-.2-.16-.16-.29-.19-.19-.09-.09,0-.1-.1-.06-.17-.09-.08-.13,0s-.06,0-.06-.08l0-.15s0-.08-.06-.09l-.16-.16-.13-.12-.1-.15s0-.1-.06-.1l-.19-.05h-.19l-.07,0-.12,0-.12-.07-.35,0,0-.11v-.21l.1-.27,0-.17.17-.27.16,0,.15,0,.1,0,.12,0,.14,0,.13.08.13,0,.11,0,0-.06h.18l.1-.08.17-.18V90l0-.83,0-.69.18-.54,0-.12.09-.12a.72.72,0,0,0,0-.14s0-.19,0-.19l0-.37.05-.17.13-.22.15-.14.14,0,.13.07s0,.1,0,.12a1.14,1.14,0,0,0,.11.11l.07-.08.09-.1.11,0,.06-.19,0-.2,0-.28.06-.17.09-.09,0-.17v-.25l0-.16.12-.11.16-.15.29-.36.17-.34.18-.3.15-.22.06,0,.16,0h.23s.14,0,.14,0l.11,0,.08-.06,0-.11,0-.37.1-.38.06-.32.24-.54.12-.34V81.2l.09-.23.07-.18-.1-.23-.06-.6-.09-.49,0-.27.12-.08.07-.14.08,0,.09-.42,0-.21.08-.11.06-.15.23-.45,0-.2.14-.13v-.19l-.15-.13v-.16l.09-.11.1-.1V76h.15l.12.07.21,0,.26,0,.13-.22.05-.19.17,0h.12l0-.07.19-.13,0,0,.06,0,.1,0,0-.12,0-.07.07,0,.08.1.06.07.13-.18.18-.24.08-.2.14-.23.17-.23-.14,0,0-.08-.08,0v-.14l-.14,0-.07,0V74l.07-.06h-.1l0,.07-.13,0L139,74l-.07-.1v-.19l-.09-.09-.12-.16-.11,0h-.13l-.13-.14-.06,0h-.09l-.07.06-.15-.07-.15-.22s0-.24,0-.26-.11-.2-.11-.2v-.36l0-.27,0-.24-.06-.17V71.2l-.1-.17v-.29l-.07-.17,0-.1v-.2l0-.1.08,0,0-.15-.06-.33,0-.35-.11-.24v-.19l.06,0,.13.09.05.09,0,.05,0,.07h.07l.07-.09-.09-.13-.26-.2-.15-.17-.11-.3-.08-.35-.1-.05.07-.09-.12-.08,0-.07.06,0,0-.09-.07,0,0-.06v-.09l-1.29,0-2.48,0-.92,0,0,0,0,.18-.1.16-.15.12h-.56l-.19-.11-.23-.19-.23-.19h-3.57l-7.55,0h-2.6Z"/><path class="cls-4" d="M135.31,96.89l0-.09-.07-.09-.09-.11v-.29l0-.16.05-.14v-.23l-.1-.11-.18-.07-.12,0-.13,0h-.11l-.08.06-.11,0-.13-.06,0-.13,0-.15-.13-.08-.08-.09-.16-.24-.06-.19,0-.21-.06-.15-.08-.13,0-.25s-.06-.25-.07-.27l-.18-.2-.16-.16-.29-.19-.19-.09-.09,0-.1-.1-.06-.17-.09-.08-.13,0s-.06,0-.06-.08l0-.15s0-.08-.06-.09l-.16-.16-.13-.12-.1-.15s0-.1-.06-.1l-.19-.05h-.19l-.07,0-.12,0-.12-.07-.35,0,0-.11v-.21l.1-.27,0-.17.17-.27.16,0,.15,0,.1,0,.12,0,.14,0,.13.08.13,0,.11,0,0-.06h.18l.1-.08.17-.18V90l0-.83,0-.69.18-.54,0-.12.09-.12a.72.72,0,0,0,0-.14s0-.19,0-.19l0-.37.05-.17.13-.22.15-.14.14,0,.13.07s0,.1,0,.12a1.14,1.14,0,0,0,.11.11l.07-.08.09-.1.11,0,.06-.19,0-.2,0-.28.06-.17.09-.09,0-.17v-.25l0-.16.12-.11.16-.15.29-.36.17-.34.18-.3.15-.22.06,0,.16,0h.23s.14,0,.14,0l.11,0,.08-.06,0-.11,0-.37.1-.38.06-.32.24-.54.12-.34V81.2l.09-.23.07-.18.13-.11.27,0,.19,0,.08.06.16-.05.16-.09h.13l.19,0,.11.06.21-.1.11-.16.23-.39.13-.23.14,0,.14.1.2.06.13,0,.1.09.09.13.13.13.18.07h.32l.27-.06.21,0,.09-.24.09,0,.2.19.17,0h.88l.42,0,.34.1.33.2.53.42.42.34.28.41.16.25.14.25v.17l.05.12.25.18.41.15.17.12.08.17.12.2.29.17.09.14L146,84v.12l-.14.33-.22.28-.21.25-.16.16-.08.11,0,.17v.26l0,.3,0,.29.08.15.18.08.29,0,.19-.08.28-.06.2-.1h.27l.18.05.07.08h.22l-.21.28-.2.27,0,.17.07.12.12.07.06.15v.12l.2.36.17.19.17.12h.12l.09.29v.11l.17.14a1.86,1.86,0,0,1,.1.2l.22.06.18.14.34.32.22.2,1.63.57.88.26.85.33.91.31.43.17h.62l.71,0h.66l-.1.13-.28.29-1.53,1.48L153,94l-1.11,1.1-.68.68-.56.6-.1.06-.24,0-.48-.07-.52,0h-.44l-.53.17-.52.21-.4.16-.16.21-.14.27-.14.16-.46.1-.32,0h-.36l-.21.06-.26.28L145,98l-.43,0-.36,0-.43-.28-.35-.29-.35.13-1,.47-.2.28-.11.17-.27.36h-.08l-.09-.17-.11,0H141l-.44-.08h-1.2l-.43-.07-.56-.41-.67-.45-.64-.47-1.08,0h-.26l-.19-.09-.19-.13Z"/><path class="cls-4" d="M146,84l-.05-.18-.09-.14-.29-.17-.12-.2-.08-.17-.17-.12-.41-.15-.25-.18-.05-.12V82.4l-.14-.25-.16-.25-.28-.41-.42-.34-.53-.42-.33-.2-.34-.1-.42,0H141l-.17,0-.2-.19-.09,0-.09.24-.21,0-.27.06h-.32l-.18-.07-.13-.13-.09-.13-.1-.09L139,80l-.2-.06-.14-.1-.14,0-.13.23-.23.39-.11.16-.21.1-.11-.06-.19,0h-.13l-.16.09-.16.05L137,80.7l-.19,0-.27,0-.13.11-.11-.12v-.51l-.05-.2-.09-.49,0-.27.12-.08.07-.14.08,0,.09-.42,0-.21.08-.11.06-.15.23-.45,0-.2.14-.13v-.19l-.15-.13v-.16l.09-.11.1-.1V76h.15l.12.07.21,0,.26,0,.13-.22.05-.19.17,0h.12l0-.07.19-.13,0,0,.06,0,.1,0,0-.12,0-.07.07,0,.08.1.06.07.13-.18.18-.24.08-.2.14-.23.17-.23.06,0v.12l.05.16.28.38.19.35.25.65,0,.33a2.79,2.79,0,0,1,.09.34,3.06,3.06,0,0,0,.05.32l.06.1v.55l.11.12a.83.83,0,0,1,0,.12A1.56,1.56,0,0,0,141,78l.12.12.08,0,0,.2.05.11-.07,0,0,.15h.26l.05.11,0,.37.06.2,0,.08h.13l.08-.11a1.25,1.25,0,0,0,0-.15l-.08-.1a.52.52,0,0,1,0-.14.51.51,0,0,0,0-.09l.1-.09.05,0,.13.05.12.1.08.16,0,.14v.13l.07.11s.07,0,.07.06l.05.12a.66.66,0,0,0,.15.07l.1,0,.13-.16,0,.11,0-.07.07.09.11-.11,0,.12h.11v.09l.11,0v.1l0,0,.08.24h.21l.13.06s.25.06.25.07a2.53,2.53,0,0,0,.26.22l.25.34.15.25.2.19,0,.16.06.06h.22l.12.08.11,0,.08.15.13.17.13.13,0-.07L146,82l.07.12.05.08,0,.08,0,.14v.18l.15,0,.12,0,.05.07.13.15.14.12.07.13v.14l.16,0,.09.1.15-.12.09,0,.08.13.06.17v.09h-.28l-.2,0-.19,0v.18a.45.45,0,0,1,0,.11s-.07.12-.09.1a1.21,1.21,0,0,0-.2,0l-.13-.15-.09-.07-.15.15-.12.13Z"/><path class="cls-4" d="M147.08,86.33h-.22l-.07-.08-.18-.05h-.27l-.2.1-.27.06-.19.08-.29,0-.19-.08-.08-.15,0-.29v-.56l0-.17.07-.11.17-.16.21-.25.21-.28.19-.38.09-.13.18-.15.09.07.13.15a.76.76,0,0,1,.16,0s.07-.09.09-.1,0-.11,0-.11v-.18l.18,0,.21,0h.27l.14.09.11.18.1.11,0,.13v.15l.05.13v.11l-.09.12-.17,0-.15,0,0,.07,0,.09-.12,0-.19,0L147,85l-.15.06-.06.08-.11.1,0,.1-.26.07v.07l.09.08.14,0,.05-.14.17,0h.33l.24.07.17.14-.16.33-.18.28Z"/><path class="cls-4" d="M147.6,85.55l-.17.33-.17.28-.14.17-.13.17-.28.38,0,.17.07.12.12.07.06.15v.12l.2.36.17.19.17.12h.12l.09.29v.11l.17.14a1.86,1.86,0,0,1,.1.2l.22.06.18.14.34.32.22.2,1.63.57.88.26.85.33.91.31.43.17h.62l.71,0h.66l-.1.13-.28.29-1.53,1.48L153,94l-1.11,1.1-.68.68-.56.6-.1.06-.24,0-.48-.07-.52,0h-.44l-.53.17-.52.21-.4.16-.16.21-.14.27-.14.16-.46.1-.32,0h-.36l-.21.06-.26.28-.54.76-.26.37-.51.61-.19.25v2.5l-.06,2.16,0,1.1V106l.85,1.12.2.23.32-.55.11-.23.18-.08.37-.5.62-.69.35-.34.9-1,.67-.64.6-.5.62-.51.47-.33.6-.43.67-.34.63-.33.63-.47.28-.34.41-.34.62-.64.47-.59.4-.34.75-.8.38-.55.25-.46.33-.4.63-.92.35-.7.07-.42.24-.56.46-.69.46-.74v-.21a.47.47,0,0,0,0-.12s.1-.18.1-.18l.3-.22.17-.21.1-.24.22-.21v-.3l.08-.09.08-.09v-.12l.09-.11.17-.1.1-.22v-.14l.22-.19.1-.19-.1-.22.1-.43.11-.51v-.25l.09-.12.08-.11.1-.13.09-.06H161l.1.11v.12l.13.1.13-.05.05-.14.09-.19-.12,0,0,.09-.14.06-.09-.12L161,87l-.1-.06v-.26l0-.31.08-.26-.13-.07,0-.19.09-.3.17-.31.06-.21,0-.09H161l-.26-.1-.25-.12h-.32l-.19.17-.14.24-.24.15-.59.23-.5,0h-.25l-.23.15-.36.1-.34.09-.35,0-.23-.07-.52.09-.28.16-.33.09h-.43l-.22,0-.31-.1-.38.11-.32.28-.38.25-.3.15-.28,0-.23-.12-.3,0h-.12l-.29-.16-.31.11-.32.22-.3,0-.16.16-.23.12-.38.11-.39,0h-.37l-.18,0-.35-.23-.28-.28-.25-.21-.28-.32-.1-.18L148,86l0-.27h-.1Z"/><path class="cls-5" d="M144.79,107.29l-.2-.23-.85-1.12v-.21l0-1.1.05-2.16V100l.2-.25.5-.61.26-.37.54-.76-.36-.06-.44.06-.35,0-.43-.28-.36-.29-.35.13-1,.47-.2.28-.1.17-.27.36h-.09l-.08-.17-.12,0H141l-.45-.08h-1.2L139,98.5l-.57-.41-.66-.44-.65-.48-1.08,0h-.25l-.2-.09-.19-.12-.06,0h-2.48l-.47.45-.28.28.2.22.06.19.14.06v.12l.06.11.13,0,.14,0,0,.12,0,.12v.57l.21.16.09.21.09.14.09.08,0,.2.09.16.1.09v.25l0,.2.1.28.11.21,0,.25,0,.23-.09.19-.14.12,0,.14v.25l-.2.06-.16.15-.13.09-.06.35-.13.12-.11.09-.07.15-.12.1-.17.09-.05.17v.15l-.08.13-.07.09,0,.12.06.09v.06h-.06l0,.11.09.15.08.08h.13v.17l.12.06.09.07,0,.17.08,0,.1-.08,0-.07-.07,0v-.07l.09,0h.17l.23-.06.12-.08.07.06.1.12.1.09,0,.1-.11,0H133l-.11.09.07.09v0l-.17,0h-.14l-.09-.11-.06-.08h-.07l0,.06.05.06-.06.09-.09.06-.06.08v.17l.12.13.06.11,0,.06,0,0h-.06l-.06.06-.08.11,1.46.78,1.08.61.71.37.67.44.65.31.39.23.5.24.4.24.16.13.08.17V110l0,.08-.12,0,0,.09,0,.11.09.09.13,0,0,.15.24.18.69.45.59.45.4.26.18.15.15,0,.14.12.09-.1.07,0H141l0,.14.14,0,0-.13.16-.14.12-.25.1-.29.17-.2.18-.26,0-.16,0-.29.07-.06s0-.22,0-.22l.25-.45.05-.19.23-.3.16-.22.08-.2h.06l.1.1.13,0,0-.13h.08l.15,0,.07-.08,0-.11-.05-.07.08,0,.06,0,.08,0,.07-.06,0-.12-.05-.06v-.16l.06-.07.12,0,.12,0V108l-.07.06-.11,0,0,.07,0,0,.07,0,0,0,.12,0h.06v-.05l0,0-.07,0v-.06l.07-.08,0,0,.21,0,.11,0,.12,0,.06-.11v-.09l.08-.1.09-.09Z"/><path class="cls-4" d="M132.2,104l-.15.06-.14.08h-.12l-.12,0-.15-.07h-.17l-.12,0-.1-.06v-.07l.05-.07-.05-.06-.2,0v.09l.08.17,0,.15v.14l0,.12-.13.06.09-.12,0-.09,0-.12-.05-.16-.1,0-.05.08h-.08l-.05.07h-.06v.11l-.1.07-.06,0-.1,0-.06-.11,0-.07-.08,0-.06.06-.08,0h-.09l.06-.06,0-.13h-.19v0l0,.08-.08.07,0,0,0,.07h-.07v-.2h-.08l0,.13h-.18l0-.07.07,0v-.1l-.1.07h0l-.07.1v.06h-.07l0-.23-.06.06v.12l0,.09,0,.06h0l0,.08v.07l0,.08,0,0h-.05v.19l0,.06,0,0v.06l-.05.11-.09.1-.08,0-.11.07,0,.08v.14l-.08.07-.06.07v.16l.05,0,.07.1h-.55l-.49.07-.55,0-.33.06-.28,0-.12.06-.16.09-.13.19-.17.1-.08.08-.06.09h-.25l-.12-.15-.06,0h-.34v-.34l-.07-.21.07-.13.14-.09v-.35l-.09-.1.09-.06.18-.13.06-.07.06-.11V105l0-.08,0-.06,0,0h-.08l-.11,0-.12-.06.09-.32.07-.13,0-.11.08-.13,0-.14.07-.08.09,0v-.55l.07-.13.14-.15.12-.13.13-.11.09-.08.1-.08h.22l0,.06,0,.09,0,.09,0,0h.12l.07-.05.07-.1.07-.06,0-.09,0,0s0-.1,0-.11l.12-.07.06-.12.1-.08,0-.13.1-.05h.13l.14,0,.08-.08.06-.08.06,0v-.14l.06,0h.07l.06-.07v-.09l0-.09v-.34l.15-.1h-.13l0-.06,0-.08.07-.08v-.11l-.08.1-.1.07-.06.08-.06.12,0,.09-.1-.1-.09-.07-.15,0v-.09l0-.1-.08,0-.07,0-.07.05h-.08l-.1-.05-.1-.07a.67.67,0,0,1-.06-.12l0-.11,0-.13.11-.1.06-.08.05-.17-.12-.13,0-.08v-.2l0-.16,0-.1.08-.11,0-.13,0-.11v-.07l.2-.17.11-.12.14-.06.21,0,.26.13.12.09h.19l.3-.2.13.12.15.13.15.11.13.1.11-.1.15-.11.14-.1.17,0,.2,0H130l.14,0,.14-.09.13-.1.07,0,.15,0,.1.08.1.05.24,0h.38l.15-.15.18-.25.17-.16.17-.12.2.22.06.19.14.06v.12l.06.11.13,0,.14,0,0,.12,0,.12v.57l.21.16.09.21.09.14.09.08,0,.2.09.16.1.09v.25l0,.2.1.28.11.21,0,.25,0,.23-.09.19-.14.12,0,.14v.25l-.2.06-.16.15-.13.09-.06.35-.13.12-.11.09-.07.15-.12.1-.17.09-.05.17v.15l-.08.13"/><path class="cls-6" d="M126.21,106.28l-.12.06-.16.09-.13.19-.17.1-.08.08-.06.09h-.25l-.12-.15-.06,0h-.34l-.07.12-.17.08-.2.15-.08.08-.12.14v.08l.08.08v.2a.81.81,0,0,0,0,.11l0,.07,0,.08,0,.08-.13.14-.24.27-.06.14,0,.24v.15l.15-.05H124l.13.05.07,0v.1l.07.09h.44l.09,0,.14,0,.18-.06.07-.21v-.28l.05-.23h.14l.1.1.11,0,.1-.07.08-.06h.07l.16,0,.16.08.12.09.2-.09h.18l.17-.21,0-.24v-.22l-.07-.35-.09-.27-.15-.2-.2-.23-.14-.24,0-.14v-.1Z"/><path class="cls-4" d="M123.75,108.9l.15-.05H124l.13.05.07,0v.1l.07.09h.44l.09,0,.14,0,.18-.06.07-.21v-.28l.05-.23h.14l.1.1.11,0,.1-.07.08-.06h.07l.16,0,.16.08.12.09-.13.12-.07.11v.09l.05.05-.05.12-.06.11v.12h.25l.06.09s-.07,0,0,.06a.5.5,0,0,0,.22,0h.08l.13.15v.12l-.06.13-.06.08h-.14l-.06.17h0l-.11.1h-.09l-.14.1-.06.14v.17l0,.1-.09.23s-.14.21-.15.24l-.28.29-.22.26a.71.71,0,0,1-.16.07l-.29.08-.12-.28-.17-.24-.17-.31-.14-.28s0-.24,0-.27,0-.26,0-.26l-.08-.13-.1-.11,0-.19v-.21l-.08-.13-.15-.18-.07-.08Z"/><path class="cls-4" d="M128.41,106.08h-.55l-.49.07-.55,0-.24.06h-.19l-.15,0v.1l0,.14.14.24.2.23.15.2.09.27.07.35V108l0,.24-.17.21-.1,0-.08,0-.14,0-.06,0-.13.12-.07.11v.09l.05.05-.05.12-.06.11v.12h.25l.06.09s-.07,0,0,.06a.5.5,0,0,0,.22,0h.08l.13.15v.12l-.06.13-.06.08h-.14l-.06.17h0l-.11.1h-.09l-.14.1-.06.14v.17l0,.1-.09.23s-.14.21-.15.24l-.28.29-.22.26a.71.71,0,0,1-.16.07l-.29.08,0,.06,0,.22,0,.18v.16l0,.1.12.1.12.16.06.15v.13l0,.22,0,.13,0,.13.13.12.07.16.08.24v.17l-.06.1h-.33v.4l.08.14.1.12.13.11.15.06h.3l.09.12.11.08.06,0,.1.25.13.19.09.11.09.07v.08l0,.07h0l-.06.07,0,.09.06.06.06.1.07.11v.13l0,.17.11.13.12.21.17.27.17.37.06.21.08.13.11,0,.06.09,0,.1,0,.15v.1h.38l.1,0,.16,0,.11.07.19.17.3.14.07.19h.3l.11.1h.16l.22.06.1.09.15.08H130l.05.14.12.06.22,0,.16.06.11.09.08,0h.1l.17,0,.06.08.11.08h.39l.11.06.22.11.16-.11v-.08l.05-.1.07,0,.14.08.11.1.17.2.2.2.19.3.08.27,0,.22V122l.11.26,0,.14v.15l0,.17v.14l.11.12.09.11.06.13.07.06.14.06.06.11,0,.15,0,.11h.74l.44,0,.11-.1.07,0,.14,0,.08,0,.2.13.11.1,0,.11.13.08h.23l.14,0h.26l.21-.18.09,0h.39l.11.08.16,0,.3,0,.16,0,.22-.06.15,0,.13-.11.06-.21,0-.14.17-.13h.17l.17,0,.22,0,.12,0,.17,0,.26-.08.12,0,.18-.05.17-.07.16,0,.15-.05h.24l.08,0,.12-.08.11-.1.26-.13.3,0,.34-.14.29-.17.27-.23.23-.14v-.06l0-.15-.06-.14v-.07s0,0-.05,0l-.16,0h-.12l-.13-.11-.18-.12-.1-.12L142,121h-.12l-.1,0h-.08l0-.1.07,0,.06-.11,0-.2-.06-.12,0-.17-.08-.1h-.08l0-.1,0-.07.08-.06,0-.08,0-.07v-.26l-.08-.16,0,.09v0l-.12,0,0-.05v-.15l0-.11,0,0,0,0-.07,0,0-.09,0,0h.14l0,0h.08l0-.08-.13-.16a1.94,1.94,0,0,1-.1-.17s-.13-.26-.13-.26l0-.22v-.18l.12-.17.08-.17,0-.16-.08-.14-.12,0H141v-.08l.07-.1,0-.07v-.34l.11-.32.08-.16.07,0,.12,0,.1-.14-.05-.17-.09-.12-.26,0a.84.84,0,0,1,0-.14l-.11-.11-.07-.15-.07-.09-.19-.13-.13-.06-.16-.11v-.33l-.1-.13a1.16,1.16,0,0,1-.06-.15s.09-.24.09-.24l.12-.33.1-.22.1-.24a.53.53,0,0,0,.06-.13s0-.25,0-.25l.1-.07a1.55,1.55,0,0,0,0-.15v-.19l.07,0,.07,0v-.09l-.06,0,0-.13,0-.1-.14-.12-.15,0-.18-.15-.4-.26-.59-.45-.69-.45-.24-.18,0-.15-.13,0-.09-.09,0-.11,0-.09.12,0,0-.08v-.17l-.08-.17-.16-.13-.4-.24-.5-.24-.39-.23-.65-.31-.67-.44-.71-.37-1.08-.61-1.46-.78v.13l-.07,0-.08.06-.06.06-.08,0v.07l.09,0,.06.06v0l-.06,0-.06,0-.06,0h-.08v.08l.07.06.08.11s0,.06,0,.08a.09.09,0,0,1-.07,0s-.08-.06-.08-.06h-.17l-.06,0v.07l0,0,0,.1v.07l-.06,0h-.09l0,0,0,0,0,0-.06,0-.06.09h-.14l-.13,0-.08.09a.15.15,0,0,0,0,.06s.08,0,.08,0l.06,0,.08,0,.09.09,0,.11.1,0h.12l.18,0,0,.06,0,.14,0,.06-.16,0-.16.1-.12.12-.07.15-.09,0-.15,0-.08,0-.13,0s-.06,0-.07,0a.59.59,0,0,0-.08-.08h-.13l-.15,0-.08.12v.22l.05.12v.08l.08.08.05.06,0,.08h-.1l-.11-.06-.08,0v-.08l0-.08,0-.06-.08-.06,0-.07v-.14l.06-.06s0-.07,0-.07l-.2,0,0-.16-.1.08-.09.07-.1,0,0,0-.06,0h-.07l-.06,0,0-.16-.07-.09-.1,0-.07.08s0,0,0,0l-.11,0-.05.07,0,.08,0,0-.08,0-.05,0,0,0,0,.11,0,.09-.05.09-.14-.05,0,.08-.08.08-.12,0,0-.13s0-.1,0-.11-.07-.15-.07-.15l.12-.07v-.13l0-.06h-.09l0,0-.06,0v-.09l0-.06a.46.46,0,0,0,0-.09v-.08l0-.11v-.1l-.08,0-.06-.06,0-.11.08-.12,0-.11,0-.15,0-.3.05-.11.09-.14,0-.12,0-.09,0-.17v-.16l-.12-.07v-.08Z"/><path class="cls-6" d="M141.7,113.55l-.15-.14v-.16h.11l.1-.11-.06-.08-.07-.08.08-.14-.05-.08v-.12s.15,0,.16,0,0,0,0,.06l.11,0,.05.1v.11l0,.11-.09.06,0,.14-.1.1v.08l-.05.07Z"/><polygon class="cls-6" points="141.41 115.06 141.41 114.85 141.39 114.66 141.28 114.6 141.16 114.52 141.11 114.41 141.11 114.27 141.11 114.14 141.04 114.1 140.97 114.18 140.92 114.25 140.85 114.32 140.82 114.46 140.79 114.58 140.79 114.64 140.83 114.73 140.87 114.85 140.9 114.92 141 114.94 141.05 114.91 141.1 114.96 141.2 114.95 141.24 114.98 141.25 115.06 141.28 115.18 141.35 115.18 141.41 115.12 141.41 115.06"/><path class="cls-6" d="M130.2,107.79l0,.14.16.08.19.08.09,0,0-.07s0-.14,0-.16a.74.74,0,0,1-.12-.09h-.11l0,0s0,0,0,0l0-.11-.06,0-.05,0Z"/><path class="cls-6" d="M128.49,108.6l-.05-.16,0-.14s0-.07,0-.07h.06l0,.08,0,.07h.06v.18l-.09,0Z"/><path class="cls-4" d="M142.87,121.9V122l-.23.14-.27.23-.29.17-.34.14-.3,0-.26.13-.11.1L141,123l-.08,0h-.24l-.15.05-.16,0-.17.07-.18.05-.12,0-.26.08-.17,0-.12,0-.22,0-.17,0h-.17l-.17.13,0,.14-.06.21-.13.11-.15,0-.22.06-.16,0-.3,0-.16,0-.11-.08h-.39l-.09,0-.21.18h-.26l-.14,0h-.23l-.13-.08,0-.11-.11-.1-.2-.13-.08,0-.14,0-.07,0-.11.1-.44,0h-.74l0,.23v.13l-.14.2,0,.18-.08.17-.16.05-.1.16v.48l.14.14a.58.58,0,0,1,.05.11s0,.26,0,.26l-.06.13,0,.12,0,.17,0,.08v.21l0,.17.05.1.32.39.22.2.3.4.32.4.28.33.24.25.13.19,0,.17v.15l.06.12,0,.1-.15.13-.06.11,0,.16.05.13.06.13-.05.19,0,.25,0,.24,0,.17v.2l-.18.13-.15.11-.11,0-.17-.07-.11,0-.15.11,0,.18v.19l0,.1-.14.1,0,.13.08.11.09.1.07.14V133l0,.16h-.16l-.15,0-.12-.18.07-.1.13-.06,0-.13s-.05-.14-.08-.15l-.21,0-.15-.11-.13-.17-.34-.24-.13-.17-.06-.17-.22-.08,0-.19,0-.16-.13-.11-.08-.1v-.09l.2-.15.13-.1v-.12l0-.22.08-.1.13-.12.07-.07,0-.25,0-.34v-.23l-.1-.11,0-.22-.05-.2-.15-.07-.06-.14-.21-.06-.22.09-.19.08-.22,0-.18,0-.18,0-.09.1-.16-.07-.1-.15-.19-.26-.17-.23-.07-.14-.24,0-.36.09-.43.15-.25.1-.6.15-.42.16-.36.13-.4.18-.62.19-.53.09-.38.19-.31.1-.19.06v.15l.08.1.07.13.06.12v.27l0,.14v.1l.11.11v.19l0,.2v.18l.1.09h.3l.37,0,.24.12.18-.18.14.06.11.09a1,1,0,0,0,.15.09l.25.11.19,0,.14.07.15.09.17.15.11.07h.17l.46.07.27.07.2.08.12.1.08.16.16,0,0,.09.1.07,0,.08-.14.08.11.15.08.15.08.15s0,.13,0,.15,0,.14,0,.14l-.06.14,0,.12,0,.08.06.12v.2l0,.56v.54l-.07.08-.14.18.05.13.1.1,0,.11,0,.08-.09.07-.16,0H130l0,.13,0,.12.19.13.11.17,0,.19-.09.17-.07.17,0,.12.06.05v.18l.12.08.18.12.08.22-.11.3-.1.14-.1.05,0,.15-.18.33-.1.2-.15,0-.1,0,0,.27,0,.21v.12l-.06.15-.15.15,0,.13v.14l.24.14-.05.07h-.26l-.33.42-.75.78-.51.53-.13.13.11.54.09.38.09.21.07.22v.35l0,.25.08.18.12.17,0,.23.13.18.14.16,0,.27,0,.14.1.14,0,.15v.44l0,.56,0,.58v.23l0,.21,0,.29-.08.18,0,.12,0,.09,0,.16.17,0v.86l.06.25,0,.27v.16l.13.09h.72l.35-.08,0-.11,0-.51,0-.26.09-.28v-.11l-.14,0v.11l0,.16-.16,0-.09-.16-.08-.16-.12-.13-.09-.17-.1.13,0-.12.13-.17.14-.08.13-.13,0-.06.11-.22.37-.33.44-.2.5-.28.44-.22.48-.17.42-.15.32,0,.43-.15.28-.18.26-.22.29-.37.29-.41,0-.26.2-.21-.12-.12-.12,0-.14.15,0,.11,0,.08h-.09l.05-.17.08-.13v-.17l-.08,0,0-.1h.08l0,.07,0-.25.09-.6,0-.26.15-.1,0-.09-.09-.12s0-.35,0-.37,0-.21,0-.21l.15-.29-.1-.22v-.34l-.08,0-.07.09h-.1l-.08-.12v-.37l-.06-.3v-.11l-.06-.22-.14-.16,0-.25.08-.25H134l0,.1,0,.09-.08,0,0-.09.06-.05,0-.11-.06-.11.1-.09.07-.11-.06-.08-.14,0,.07-.11-.07-.2-.07-.1-.1,0-.1,0-.11,0v-.14l.05-.07-.15-.14h-.08l0-.06,0-.08h.07l0-.09v-.07l.07,0v-.1l-.17-.09.22,0v-.28l-.07-.09.08-.09s0-.11,0-.12l-.12-.08-.1-.14v-.08l.12.11.1.12.16.06.24,0,.22-.08.16-.2.18-.17.22-.21.13-.17.07-.12.14-.07,0-.17h.17l.24-.2.13,0,.19,0,.17-.07.12-.13.11-.15,0-.13.13-.08v-.08l-.08-.07.1,0,.11,0,.11-.16.25,0v-.2l.07-.16.16,0,.09-.2-.08-.11.08-.15,0,.13.06,0,.24,0,.06-.13.05-.13-.09-.1h-.09v-.12l.17,0,.07,0,.16-.09.24-.13.48-.28.42-.19.13-.07.06-.1.08.06h.26l.24-.11.17-.12h.11L140,133l.13,0,.27-.07h.25l.09-.12v-.14l.16-.05,0-.12.14,0,.23,0,.24-.22.19-.15.11-.08.11,0s0-.11,0-.12-.14-.15-.14-.15l.22-.17.08-.07.16-.06v.12l.1-.07v-.17l-.07.07-.06,0,.08-.08v-.16h.11s0,.08,0,.09a4.82,4.82,0,0,0,.36-.46s0-.06,0-.08,0-.09,0-.09h.12l.09-.09.17-.25.11-.16,0-.12-.24-.06,0-.11.12-.08.09,0h.15l0-.09h.07l.21.15.14,0v-.17a.6.6,0,0,0-.14-.07,1.31,1.31,0,0,0-.17.09l-.11,0-.1-.08v-.08l.19-.06.12-.11.06-.24v-.22l-.08-.09-.12,0-.16.13,0-.14v-.24h.16l.08-.13-.07-.13h-.09l0,.05h-.09l-.14-.1,0-.06.13,0V128l0-.1,0-.15v-.16l0-.15,0-.1,0-.21V127l.09,0-.08-.08.07-.15v-.57l-.1,0v.14l-.05,0-.11,0-.05-.11,0-.09.09,0,.09.06,0-.08v-.07l.06,0,.13-.06-.13,0v-.35h-.14l-.05-.07.16-.2,0-.09-.08-.2v-.12l.1-.12v-.08l-.06-.17-.07-.22v-.24l0-.26v-.17l-.16-.09.08-.11.16-.19L143,123v-.11l-.05-.07,0-.11.12-.06,0-.08-.1-.06-.07,0v-.08l0,0,.11,0h.12l0-.05-.11,0,0-.13,0-.08Z"/><path class="cls-4" d="M128.65,148.79l.17,0v.86l.06.25,0,.27v.16l-.21-.05,0,.45v.51l-.09,0h-.3l-.15.07-.32-.08-.27-.19-.3-.1-.1-.11,0-.08-.18-.13,0-.13,0-.05-.22-.17-.11-.07v-.65l.37-.45.24-.53.2-.13.26-.09.29.14.21.13.15.09Z"/><path class="cls-4" d="M124.13,141.91h.45l.23-.09.26,0,.17.1.18.13.21,0,.28.07.24-.05h.71l.33,0,.22.09.16.07h0l.08.35.12.57.09.21.07.22v.35l0,.25.08.18.12.17,0,.23.13.18.14.16,0,.27,0,.14.1.14,0,.15v.44l0,.56,0,.58v.23l0,.21,0,.29-.08.18,0,.12.07.25h-.26l-.15-.09-.21-.13-.29-.14-.26.09-.2.13-.24.53-.37.45v.65l.11.07.22.17,0,.05,0,.13.18.13,0,.08.1.11.3.1.27.19.32.08.15-.07h.3l.09,0v-.51l0-.45.21.05.25,0,.24,0h.36l.35-.08v.37l-.08.1v.23l-.14.31-.14.27v.45l-.09.19v.25l0,.31-.12.21-.06.18,0-.15,0-.15v-.18l.08-.12v-.1l0-.14,0-.24v.26l-.06.1v-.13h-.07l0,.08-.05.06,0,.15.06.07v.49l.06.06v.13l-.05.11-.13.15-.06.1-.15.13-.15.05-.11.08v0h.08l0,.09-.11.07-.24.1-.13.07-.28.25-.33.36-.25.33-.17.23-.15.11,0,.14,0,.18-.12.18-.11.2-.29.56-.23.42-.29.42-.37.48-.33.46-.23.22,0,0-.14.08-.2.19-.13.16h-.1l-.08,0-.14.14-.17.17-.15.2-.08.08h-.06l-.06.11-.25.23-.07.21-.18.12-.27.25-.19.24-.06.08h-.09l-.15.14-.08.1-.21.09-.14.1,0,.07-.22.22-.38.32-.24.21-.34.2-.2.13-.2.25,0,.12-.14,0-.27,0-.22.09-.11.07-.06.09,0,.06-.2,0h-1.3l-.11.14,0,.17-.19.09-.26,0-.23-.06-.24-.07-.18.06,0,.17-.15.08h-.09l.08.1,0,.07h-.17l-.32,0-.22-.05-.21-.1-.56-.1-.53,0-.29,0-.25.07v.13l-.82,0-.17-.06h-.6l-.26.08-.09,0h-.1l-.15.21,0,.06-.23,0-.07.11-.12.11-.13,0h-.12l-.28-.06-.17.06-.11.08h-.11l-.21-.09-.21-.08h-.11l-.13,0-.07,0,0,.08.06.06,0,.07-.21,0h-.24l-.22.12-.06.1-.12.09-.19.08-.09.1-.08.09,0,.15v.13l0,.05h-.11l-.14-.06,0-.09-.06,0,0-.06h-.07l0,.05-.09,0-.1,0,0-.08-.09-.1-.07-.07-.11-.05h-.23v-.1l.11-.07v-.08l0-.08-.06-.06-.06,0h-.22l-.12-.13-.07,0-.07,0h-.19l0,.06-.1-.07v-.13l.08,0v-.07l0-.07v-.09l-.18-.11-.17,0h-.14l-.14.06-.1.06v.1l0,.09v.22l-.11-.11,0-.1-.1-.14v-.11l.06-.07-.06-.08v-.08l.08-.09.11-.08,0-.13,0-.2-.11-.28-.12-.09,0-.08-.17-.23-.12-.14,0-.11-.31-.3v-.07h.08l.11.16.07.09,0-.07-.11-.14,0-.13-.1-.06-.09,0-.12,0,0-.13V162l0-.06,0-.08,0-.09,0-.1.11,0,.08,0,0,.1h.13l.11-.05.08-.12.14-.24.06-.51v-.15l0-.09v-.27l-.06-.17,0-.11-.09-.19,0-.16-.11-.18-.24-.3-.23-.37-.2-.25-.15-.4-.27-.49-.28-.57-.24-.55-.18-.46-.06-.44-.17-.54-.17-.21,0-.22a1.11,1.11,0,0,1-.12-.16,1.27,1.27,0,0,0,0-.14l-.25-.22-.11-.33-.13-.14.34-.3.15,0,.07-.32.13-.05,0-.18.2-.17h.34l.07.07v.19l.24.1.07.11,0,.08,0,.1v.14l.09.09,0,.13v.16h.18l.21,0,.14.06.11.09H105l.16.08.17.14.13,0,.17,0h.17l.25-.06.13-.05.3,0,.25.08.17.13.16,0,.16-.07.24-.32.2-.16.26-.2.28-.13.23-.06h.13v-6.67l.13.1.2.15.22.16.14.17,0,.14,0,.16.17.15.08.11,0,.22,0,.19.07.19s.11.18.11.18l.1.15,0,.13,0,.2-.07.19-.13.19-.13.13,0,.11V150l.06.38.09.13.16-.15.34,0,.23.12h.22l.13-.09h.11l.2,0,.11,0h.25v-.18l.1-.11.13,0,.22-.08.16-.13.11-.15.1-.15.07-.1.25-.1.16-.08.15-.1L113,149a1.71,1.71,0,0,1,.07-.18l.05-.22v-.13l.1-.13,0-.14v-.17l0-.17.21-.15.23-.11.2,0h.26l.16,0,.21.15.16.12.15.11.13.16.07.1.14-.05s0,0,0,0l.27,0,.17,0,.09.09.17,0h.14l.12.06.14.12.26,0,.15-.06.12-.1.18,0,.31,0,.22-.05.17-.12.2-.15,0-.17,0-.22.13-.45.06-.21.07-.22.08-.18.08-.13.18-.12.25-.06.23,0,.24,0,.08-.22.14-.17.15-.14.18-.11.15-.08,0-.09,0-.24.06-.12,0-.2.08-.39,0-.1.1,0,.08-.17.2-.17.16-.1.19,0,.13-.06.11-.2.43-.32.28-.35.3-.36.22-.12.2,0,.27,0,.17-.05.2-.1.15-.12.11-.18.08-.15.2-.06Z"/><path class="cls-4" d="M121.88,157.48h-.21l-.24-.21-.12-.2-.17-.19-.16-.21-.14-.2-.13-.28-.16-.18,0-.16v-.2l.12-.2.17-.12.16-.11L121,155l.16-.14.19-.24.06-.21.14-.19.27-.09H122l.15-.2.19-.15h.14l.19-.15.18-.06.34.07s.27.16.27.16l.17.16.09.2.13.11.15.13.13.12.17.19.06.18.05.2v.14l-.22.05v.28l-.18.08-.14.1,0,.15,0,.12.06.12-.08.13-.19.11-.26.14-.2.08-.22,0-.2,0-.14,0-.2.06,0,.07,0,.13,0,.16-.1.09-.11,0-.08.06v.12l0,.08-.1.08-.14,0-.07,0Z"/><path class="cls-4" d="M124.13,141.91l-.19,0-.2.06-.08.15-.11.18-.15.12-.2.1-.17.05-.27,0-.2,0-.22.12-.3.36-.28.35-.43.32-.11.2-.13.06-.19,0-.16.1-.2.17-.08.17-.1,0,0,.1-.08.39,0,.2-.06.12,0,.24,0,.09-.15.08-.18.11-.15.14-.14.17-.08.22-.24,0-.23,0-.25.06-.18.12-.08.13-.08.18-.07.22-.06.21-.13.45,0,.22,0,.17-.2.15-.17.12-.22.05-.31,0-.18,0-.12.1-.15.06-.26,0-.14-.12-.12-.06H116l-.17,0-.09-.09-.17,0-.27,0s0,0,0,0l-.14.05-.07-.1-.13-.16-.15-.11-.16-.12-.21-.15-.16,0H114l-.2,0-.23.11-.21.15,0,.17v.17l0,.14-.1.13v.13l-.05.22a1.71,1.71,0,0,0-.07.18l-.12.14-.15.1-.16.08-.25.1-.07.1-.1.15-.11.15-.16.13-.22.08-.13,0-.1.11v.18h-.25l-.11,0-.2,0h-.11l-.13.09h-.22l-.23-.12-.34,0-.16.15-.09-.13-.06-.38v-.24l0-.11.13-.13.13-.19.07-.19,0-.2,0-.13-.1-.15s-.11-.17-.11-.18l-.07-.19,0-.19,0-.22-.08-.11-.17-.15,0-.16,0-.14-.14-.17-.22-.16-.2-.15-.13-.1v-5h1.52l.14-.17v-2l0-2.13v-2.18l.09-.08h.83l.31-.08L112,135l.42,0,.38-.15.31,0,.38-.08H114l.16.24,0,.23.16.16.14.13h.14l.2-.16.19-.19.26-.21.22-.1.28,0,.21,0h.13l.15-.14.18-.13.22-.11h.45l.1.12.1.16.13.16.16.17.09.17.08.19.31.28.1.18.08.17.16.17.13.13v.29l.08.15.09.2.08.3.22.17.31.28.23.17.11.09.45.19a1.55,1.55,0,0,0,.13.17l.25.07.16.09,0,.17v.36h.31l.09-.05.24,0,.12.11,0,.21-.08.34,0,.2,0,.2.25.19.15.15.1.2.06.08.17,0,.17.12.3.15.24.08.21.12.27.16.22,0,.07.18.12.1.12.07"/><polygon class="cls-4" points="108.56 148.94 108.55 150.61 108.55 151.56 108.55 152.73 108.56 153.28 108.57 153.45 108.44 153.45 108.21 153.5 107.94 153.63 107.67 153.83 107.47 153.99 107.23 154.31 107.07 154.38 106.91 154.37 106.74 154.24 106.49 154.16 106.19 154.14 106.06 154.18 105.81 154.24 105.64 154.23 105.47 154.28 105.34 154.24 105.17 154.1 105.01 154.02 104.84 154.01 104.74 153.93 104.6 153.87 104.39 153.85 104.21 153.84 104.21 153.69 104.17 153.56 104.08 153.46 104.08 153.32 104.13 153.22 104.15 153.15 104.08 153.04 103.83 152.94 103.85 152.75 103.78 152.68 103.44 152.68 103.24 152.86 103.26 153.03 103.14 153.09 103.06 153.41 102.91 153.45 102.57 153.75 102.42 153.66 102.26 153.5 102.04 153.22 101.78 153.02 101.54 152.82 101.32 152.61 101.3 152.51 101.31 152.46 101.34 152.42 101.26 152.35 101.16 152.24 101.1 152.15 101.06 152.03 101.01 151.91 100.96 151.77 100.91 151.65 100.79 151.52 100.68 151.39 100.64 151.27 100.61 151 100.58 150.88 100.54 150.68 100.44 150.57 100.37 150.45 100.37 150.33 100.31 150.21 100.29 150.07 100.38 150.07 100.52 150.07 100.37 149.91 100.33 149.71 100.07 149.43 100.02 149.23 100 149.15 100.06 149.11 100.06 148.93 100.03 148.85 99.97 148.76 99.96 148.6 99.86 148.52 99.84 148.36 99.89 148.23 99.91 148.05 99.84 147.83 99.77 147.51 99.83 147.4 99.88 147.28 99.89 147.14 99.83 147 99.75 146.85 99.69 146.6 99.5 146.34 99.42 146.24 99.45 146.2 99.46 146.06 99.42 145.95 99.31 145.73 99.22 145.46 99.22 145.23 99.31 145.18 99.32 144.98 99.27 144.76 99.26 144.43 99.18 144.34 99.17 144.21 99.25 144.13 99.29 143.96 99.19 143.78 99.11 143.51 99.11 143.37 99.17 143.31 99.19 143.47 99.25 143.47 99.3 143.4 99.33 143.29 99.34 143.07 99.32 142.84 99.23 142.45 98.97 142 98.79 141.67 98.38 141.29 98.38 141.09 98.23 140.91 98.2 140.75 98 140.51 97.74 140.14 97.51 139.7 97.33 139.28 97.28 139.09 97.23 138.91 97.23 138.71 97.16 138.56 97 138.35 96.78 138.1 96.61 137.7 96.42 137.28 96.2 136.82 95.97 136.44 95.86 136.2 95.68 135.98 95.48 135.82 95.23 135.59 95.12 135.37 94.91 134.98 94.75 134.49 94.67 133.98 94.67 133.31 94.78 133.26 94.96 133.2 95.19 133.16 95.42 133.16 95.6 133.23 95.84 133.26 96.01 133.24 96.11 133.17 96.42 133.01 96.65 132.87 96.93 132.78 97.14 132.78 97.45 132.86 97.63 133.03 97.95 133.23 98.28 133.45 98.49 133.63 98.95 133.6 99.79 133.57 100.63 133.57 101.44 133.62 102.22 133.57 103.18 133.57 104.03 133.57 105.03 133.57 105.97 133.57 106.2 133.8 106.54 134.16 106.84 134.28 106.95 134.26 107.11 134.19 107.45 134.2 107.56 134.29 107.7 134.35 107.98 134.35 108.18 134.37 108.38 134.37 108.59 134.34 108.93 134.34 109.14 134.44 109.49 134.62 109.75 134.69 109.96 134.67 110.22 134.59 110.41 134.59 110.62 134.65 110.82 134.75 111.07 134.79 111.19 134.71 111.38 134.59 111.9 134.53 112.9 134.31 113.57 134.2 114.11 134.06 114.43 133.99 114.82 133.91 115.21 133.83 115.41 133.75 115.61 133.65 115.79 133.72 116.01 133.76 116.33 133.72 116.64 133.72 116.83 133.84 117.07 134.1 117.2 134.37 117.17 134.37 117.06 134.37 116.71 134.37 116.49 134.48 116.31 134.6 116.16 134.75 116.03 134.76 115.82 134.73 115.54 134.78 115.32 134.87 115.06 135.09 114.86 135.28 114.67 135.44 114.53 135.45 114.39 135.31 114.23 135.16 114.18 134.93 114.02 134.68 113.9 134.68 113.48 134.68 113.1 134.76 112.79 134.81 112.41 134.96 111.99 134.99 111.42 135.14 111.11 135.21 110.54 135.21 110.28 135.21 110.19 135.3 110.19 137.48 110.23 139.61 110.22 141.58 110.08 141.75 108.56 141.75 108.56 144.34 108.56 146.78 108.56 148.94"/><path class="cls-4" d="M114.12,134.06l.31-.07.39-.08.39-.08.2-.08.2-.1.18.08.22,0,.32,0h.31l.19.11.24.26.17.27h.37l.34,0,.24,0,.17.12.35,0,.15-.09h.3l.29,0,.2.14.23,0,.25-.12.3-.05.1-.07v-.19l.29-.34.33-.42.37-.4.41-.34.31-.2.53-.21.61-.12.06-.27v-.28l.06-.08-.06-.17,0-.16.12-.14.17-.05.2-.26.47-.17.55,0h1v-.21l0-.14V130l-.06-.11-.07-.13-.08-.1v-.16l.19-.05.31-.1.38-.2.53-.08.62-.2.4-.17.36-.13.42-.16.6-.16.25-.09.31-.13.28-.05.18-.07-.16-.07,0-.15-.07-.15-.1-.12v-.12l-.11-.08h-.18l.11-.14.22-.11.05-.17.07-.29v-.22l.13-.19,0-.1-.1-.07-.12-.12.08-.2.1-.14.12,0,.08.08.08,0s.08-.07.08-.07l.11-.07h.1l.1-.07.07-.13.15-.06v-.07h-.22l-.16-.12-.05-.26v-.17l.1-.15,0-.22L131,124l-.08-.14,0-.25,0-.13.14-.16.07-.2-.14-.24-.11-.12,0-.18.2,0,.2-.08.15-.09.07-.2V122l-.11-.13-.07-.08v-.29l-.09,0-.14,0-.09-.11-.06-.15,0-.14,0-.08,0-.09-.09-.06-.09-.13s0-.15,0-.15l-.05-.07h-.1l0,.08,0,.11h-.09l-.06-.12v-.08a1.43,1.43,0,0,0,0-.16l-.19-.14-.13-.12,0,0-.09-.1-.11,0h-.19l-.15-.09-.1-.08-.22-.06h-.16l-.11-.11h-.3l-.07-.19-.3-.13-.19-.17-.11-.07-.16-.06-.1,0h-.38l0,.1,0,.11-.06.08-.09,0-.16-.07-.09-.1-.08-.11-.14-.09-.12,0-.06-.06-.05-.07-.07.06-.12.09-.06,0v-.08l-.07,0,0-.12v-.15l0-.1-.7.07-.72.06-.92.11-.26,0,0,0,.17.07.16.14,0,.15-.07.27-.09.19-.11.14-.11.11-.11.11-.12.18,0,.12,0,.12v.07h-.09l0-.07h-.17l0,.15.09.2v.16l.1.06,0,.12-.09.16,0,.26v.35l0,.27.06.19v.16l-.09.09-.07.14-.07.16,0,.18,0,.18,0,.25,0,.19-.09.11,0,.1.09.14,0,.18v.16l.12.1.22.15.21.11.17.21.2.21.11.15.14,0,.2,0,.11.09h.15l.1-.17a1.81,1.81,0,0,0,0-.19l.17-.1h.14l.11,0,.07-.09.07.19v1.89l-.11.13-.16-.1,0-.1.1-.07,0-.1-.08-.06-.1,0-.14.11-.2.12-.17.07-.19,0-.08,0-.09.07-.21-.14v-.17l-.14-.16a1.71,1.71,0,0,1-.07-.21.78.78,0,0,0-.11-.2,1.88,1.88,0,0,0-.31-.06l-.14-.15,0-.12.07-.11a1.12,1.12,0,0,0-.11-.15,3,3,0,0,1-.32-.09s0-.13-.08-.14l-.25-.06-.24-.07-.08-.15-.1,0-.16.11-.15,0-.17-.11a1.76,1.76,0,0,1-.12-.2s0-.2,0-.2l-.19-.14-.2-.07V124l0-.2h-.22l-.07.2-.06.18-.11.12-.23.06-.22,0h-.19l-.11-.1-.16,0-.18,0-.2-.06-.15,0-.23-.09-.13-.11-.33,0V124l-.15.08-.14,0v-.12l-.19-.09-.12-.24v-.23l.09-.15v-.1h-.09l-.15,0-.19,0h-.3l-.14.07-.18.08-.08.11-.13.12h-.2l-.09-.06h-.23l.16-.17,0-.09a.74.74,0,0,0,0-.17,1,1,0,0,0,0-.13l-.15-.1h-.22l0-.14-.07-.08-.15,0,0,.4v.27l.06.14v.14l-.12.18v.37l.06.13-.1.22,0,.16.08.14.14.12v.25l-.15.2-.14.14-.05.15v.17l0,.14.11.11.11.14H114.2l-1.29,0h-1v4.64l0,.82.12.38.12.21.13.15.17.14.14.07.08.18.16.21.15.08.14.05.14.12.19.18.2.21.18.21.15.21,0,.06,0,0Z"/><path class="cls-4" d="M94.67,133.31l.11-.05.18-.06.22,0h.24l.18.07.24,0,.17,0,.1-.07.31-.16.23-.14.28-.09h.21l.31.08.18.17.32.2.33.22.21.18.46,0,.84,0h.84l.81.05.78-.05H106l.23.23.34.36.3.12.11,0,.16-.07h.34l.11.09.14.06H108l.19,0h.2l.21,0h.34l.21.1.35.18.26.07.21,0,.26-.08h.19l.21.06.2.09.25,0,.12-.08.19-.12.52-.06,1-.22H113l.43-.08.39-.09.19-.07,0,0,0-.06-.15-.21-.18-.21-.2-.21-.19-.18-.14-.12L113,133l-.15-.08-.16-.21-.08-.18-.14-.07-.17-.14-.13-.15L112,132l-.12-.38,0-.82v-4.64h1l1.29,0h1.14l-.11-.14-.11-.11,0-.14v-.17l.05-.15.14-.14.15-.2v-.25l-.14-.12-.08-.14,0-.16.1-.22-.06-.13v-.37l.12-.18v-.14l-.06-.14V123l0-.4-.11,0-.06.1,0,.1-.1,0-.12-.11-.19,0-.17,0-.23-.06-.09.06-.18.12s-.08.08-.12.08l-.24,0-.08,0-.22,0h-.24l-.2,0-.19,0-.14.13-.17,0-.14-.14a.31.31,0,0,0,0-.14,2.17,2.17,0,0,0-.11-.22l.22-.14.06-.12-.11-.19,0-.31-.11-.29V121l-.12-.18-.14,0-.17-.16-.2-.26-.06-.48,0-.54.08-.38.11-.44v-.18l-.16-.29-.16-.32,0-.3.13-.29,0-.19,0-.21-.19-.14h-.79l-.82.07-.32-.07-.09-.26v-.25l-.14-.1-.21,0-.18.14-.08.06-.45,0-.47,0-.14.1,0,.36s0,.17,0,.19l-.1.15-.13.15,0,.16,0,.17v.14l-.08.09-.16,0h-.36l-.22,0-.21-.15-.18,0-.14.15-.07.08-.12,0-.12-.09-.25,0-.11.13-.19.06-.44,0-.32,0h-.21v-.22l-.21-.37-.26-.37-.22-.29-.24-.26-.08-.57-.23-.33-.1-.5,0-.12,0-.14,0-.18-.17-.22,0-.19v-.08h-.15l-.23.08-.25,0-.39,0-.6,0-.59,0-.59,0-.45,0h-.3l-.36,0-.52,0h-.9l-.23,0-.39.14-.42.15-.25,0-.17.1-.24,0-.11,0,.11.28.16.18.09.28.18.23.24.25.11.25.08.37.13.39.2.49.19.42.21.33.15.19,0,.07,0,.08,0,.13,0,.16.06.19V119l-.17,0-.16.06-.14.18-.06.12-.09.09,0,.08.06.15.07.19.07.17.08.22,0,.15,0,.21.22.19,0,.16,0,.13.1.16.15.11.09.21,0,.12L98,122l.08.13,0,.22v.11l.09.11v.45l0,.18,0,.23-.05.24,0,.37,0,.3-.11.33-.26.4-.26.29-.34.07-.19.18-.14.11-.07,0v.12l0,.18-.15.16-.2.19-.14.09-.06.13,0,.09-.12,0-.05.13.07.21-.06.24,0,.14a.62.62,0,0,0-.12.08,1.28,1.28,0,0,1-.1.17l0,.15-.07.21,0,.21,0,.29-.11.42-.1.26-.09.18-.07.17,0,.11v.1l-.06.05-.12.07,0,.19,0,.13-.05.19-.11.19-.12.12-.14,0-.09.08v.15l.08.1v.31l0,.57v.21l0,.17,0,.13-.08.05,0-.14,0-.16v-.17h-.06l0,.13,0,.13.09.17,0,.12v.18l0,.21v.26Z"/><polygon class="cls-6" points="95.4 114.05 95.86 114.05 95.92 113.86 95.92 113.63 95.92 113.41 95.92 113.23 95.92 113.02 95.98 112.85 96.13 112.67 96.3 112.53 96.48 112.39 96.64 112.3 96.92 112.17 96.78 112.05 96.61 111.92 96.49 111.81 96.36 111.75 96.29 111.75 96.25 111.87 96.23 111.96 96.12 112.03 95.91 112.11 95.77 112.16 95.71 112.21 95.69 112.31 95.67 112.4 95.61 112.47 95.46 112.56 95.3 112.6 95.13 112.68 95.09 112.74 95.23 112.99 95.25 113.04 95.34 113.06 95.37 113.18 95.33 113.25 95.36 113.36 95.44 113.47 95.48 113.6 95.39 113.67 95.36 113.81 95.38 113.95 95.4 114.05"/><path class="cls-4" d="M121.13,96.2l.14.09.21.07.09.12a.44.44,0,0,1,.06.1.85.85,0,0,0,0,.16l.15.13h.33v.2l.16,0,.1.09h.06l.14,0,.08.09.1,0,.1-.08.09,0,.11-.06,0-.12.06-.09.08,0,.08,0,.13.11.19,0h.17l.15.13h.14l.13-.07.25-.25.06-.11.08-.06.15,0,.14.09.15.1.08.06v.27l.24.23.28.26a1.31,1.31,0,0,0,0,.15.79.79,0,0,0,.16.08l.16,0,.15,0,.12.13,0,.12,0,.15s.16.05.16.05h.09l.13.08.17,0v.07l0,.1,0,.14-.08.11,0,.1,0,.16v.2l0,.07.12.14-.05.16-.06.09-.11.1,0,.13s0,.09,0,.11a.67.67,0,0,0,.06.12l.1.06.1.06H127l.07,0,.07,0h.08l0,.11v.09l.15,0,.09.07.1.09-.07.1-.18.14-.23.14-.24.18-.2.17-.22.2-.17.22-.1.2-.08.11,0,.12-.11.15-.09.07-.13.12-.12.13-.14.15-.07.13v.55l-.09,0-.07.08,0,.15-.08.12,0,.12-.07.12-.09.33-.08,0h-.1l-.06.06h-.11l-.07.22-.06.1-.06.08-.09.12,0,.11v.06l0,.06,0,.06,0,.06h.06s0,0,.05,0h.1l.12-.06.06-.09,0,0,0,0,.09.11V106l-.14.09-.07.12v.1l0,.12,0,.12v.22l-.07.12-.17.08-.2.15-.08.08-.12.13h0l-.07,0-.09-.06-.06,0-.06,0,0,.06.07.07v.13l-.08.1,0,.08,0,.07,0,.06,0,0v.06l0,.05,0,.13,0,.07,0,.06v.06l0,0,.06,0,0,.09,0,0-.07,0,0,.06,0,.17v.07l.07.09.05.06.08.1.16.24.15.21,0,.18v.21l0,.16v.26l0,.37v.27l0,.06v.27l-.05.11v.26l0,.08,0,0h.05l.07-.09,0-.19,0-.12v.06l0,.18,0,.18,0,.13,0,.1-.09.09-.07.12,0,.18v.29l0,.23v.18l0,.16.11.17.1.16.08.13.06.1v.09l0,0,0,0V114l-.15.17-.09.1,0,.08v.12l.07.1.07.13.07.16.05.1.06.12v.09l.06.07v0l.08,0,0,.14,0,.19.15.11.11.12.08.17.1.09.19.09.2.11.2.15.19.16.1.11,0,.07,0,.17v.17l.07.09,0,.13,0,.15,0,.16.1.13.07.09.07.1v.14h-.21l-.7.07-.72.06-.92.11-.26,0,0,0-.07.08,0,.08-.06.13-.11.1-.07.07-.08.1-.09.08-.11.18-.08.1-.08.11,0,.1v.4l.07,0h.08l.06,0,0,0,0,.15.09.2v.16l.1.06,0,.12-.09.16,0,.26v.35l0,.27.06.19v.16l-.09.09-.07.14-.07.16,0,.18,0,.18,0,.25,0,.19-.09.11,0,.1.09.14,0,.18v.16l.12.1.22.15.21.11.17.21.2.21.11.15.14,0,.2,0,.11.09h.15l.1-.17a1.81,1.81,0,0,0,0-.19l.17-.1h.14l.11,0,.07-.09.07.19v1.89l-.11.13-.16-.1,0-.1.1-.07,0-.1-.08-.06-.1,0-.14.11-.2.12-.17.07-.19,0-.08,0-.09.07-.21-.14v-.17l-.14-.16a1.71,1.71,0,0,1-.07-.21.78.78,0,0,0-.11-.2,1.88,1.88,0,0,0-.31-.06l-.14-.15,0-.12.07-.11a1.12,1.12,0,0,0-.11-.15,3,3,0,0,1-.32-.09s0-.13-.08-.14l-.25-.06-.24-.07-.08-.15-.1,0-.16.11-.15,0-.17-.11a1.76,1.76,0,0,1-.12-.2s0-.2,0-.2l-.19-.14-.2-.07V124l0-.2h-.22l-.07.2-.06.18-.11.12-.23.06-.22,0h-.19l-.11-.1-.16,0-.18,0-.2-.06-.15,0-.23-.09-.13-.11-.33,0V124l-.15.08-.14,0v-.12l-.19-.09-.12-.24v-.23l.09-.15v-.1h-.09l-.15,0-.19,0h-.3l-.14.07-.18.08-.08.11-.13.12h-.2l-.09-.06h-.23l.16-.17,0-.09a.74.74,0,0,0,0-.17,1,1,0,0,0,0-.13l-.15-.1h-.22l0-.14-.06-.09-.12,0h0l-.11,0-.06.1,0,.1-.1,0-.12-.11-.19,0-.17,0-.23-.06-.09.06-.18.12s-.08.08-.12.08l-.24,0-.08,0-.22,0h-.24l-.2,0-.19,0-.14.13-.17,0-.14-.14a.31.31,0,0,0,0-.14,2.17,2.17,0,0,0-.11-.22l.22-.14.06-.12-.11-.19,0-.31-.11-.29V121l-.12-.18-.14,0-.17-.16-.2-.26-.06-.48,0-.54.08-.38.11-.44v-.18l-.16-.29-.16-.32,0-.3.13-.29,0-.19,0-.21-.19-.14h-.79l-.82.07-.32-.07-.09-.26v-.25l-.14-.1-.21,0-.18.14-.08.06-.45,0-.47,0-.14.1,0,.36s0,.17,0,.19l-.1.15-.13.15,0,.16,0,.17v.14l-.08.09-.16,0h-.36l-.22,0-.21-.15-.18,0-.14.15-.07.08-.12,0-.12-.09-.25,0-.11.13-.19.06-.44,0-.32,0h-.21v-.22l-.21-.37-.26-.37-.22-.29-.24-.26-.08-.57-.23-.33-.1-.5,0-.12,0-.14,0-.18-.17-.22,0-.19v-.08h-.15l-.23.08-.25,0-.39,0-.6,0-.59,0-.59,0-.45,0h-.3l-.36,0-.52,0h-.9l-.23,0h-.1l-.18.06-.2.05-.15,0-.19,0-.18,0h-.36l-.17-.07-.15-.1-.09-.15h.46l.06-.19V113l.06-.17.15-.18.17-.14.18-.14.16-.09.28-.13.13,0,.12.1,0,.07a.73.73,0,0,0,.1.09l.19,0h.13l.12-.1.07-.06H98l.08,0v-.54l.06,0,.13,0,.07.09.17-.07.06-.07.11,0,.13-.07.11,0,.19,0h.19v.1l0,0a.7.7,0,0,0,.08.1s.07,0,.07.06,0,.1,0,.1l0,.16,0,.14a.68.68,0,0,0,0,.15.28.28,0,0,0,.09.06l.15,0a1.89,1.89,0,0,0,.19-.14l.15-.14.24-.31.24-.3.28-.28.35-.27.31-.09h.18l.18-.14.2-.47.16-.35,0-.57,0-.34.07-.18.08-.19,0-.23-.1-.22,0-.2.29-.32.42-.34.18-.29.12-.28.1-.31.18-.24.23-.14h.4l.35-.33.15-.21,0-.16,0-.12.11-.15,0-.13,0-.22.06-.24.08-.15.07-.11,0-.14.11-.16.11-.1v-.23l-.1-.15,0-.06,0-.18v-.14l0-.12,0-.1v-.16l.11-.13.07-.21v-.2l.1-.23a.63.63,0,0,1,.09-.14,3.19,3.19,0,0,0,0-.43l0-.33,0-.34.08-.22.1-.13,0-.19.08-.13.12-.17v-.15l.06-.14.15-.17.14-.17,0-.45v-.35l0-.2-.07-.22.08-.24v-.28l-.06-.15.16-.2.14-.12.14-.15.14-.14.13-.19.12-.17.16-.13.2-.13.21-.07H108l.16.12s.1,0,.13,0a.67.67,0,0,0,.18.07h.18a1.17,1.17,0,0,1,.2.12l.09,0,.14,0,.14.11.08.15.06.15.1.16.14.06.19,0,.25,0h.18l.09.1.06.09h.27l.11.07.13.06H111l.11,0,.06,0,.1,0,.07-.07h.14a.52.52,0,0,1,.12,0l.07,0,.1.07.23,0,.3,0,.1,0h.2l.05,0,.12-.1.1,0,0-.07V97.4l0-.13s.06-.1.12-.1h0l0-.23.15-.12.25-.08h.12l.26.11.36.07.21-.06.16-.11.31-.16h.16l.2,0,.16-.07h.18l.2-.06.14-.07.07-.12,0-.1h.15l.1.11.1.11.13.07h.27l.15-.08h.16l.09-.12h.14l.11-.09V96l.06-.13c0-.06.24-.11.24-.11h.43l.23.11H119l.13.11.12.07h.08l.13.13.1,0,.17-.09h.15l.15,0,.06,0,.11-.06V96l.07,0,.12-.13h.34l.19.11L121,96Z"/><path class="cls-4" d="M102.12,100.89l-.05-.33-.13-.15.07-.08,0-.24a1.09,1.09,0,0,0,0-.17s-.1-.2-.1-.2l-.08-.13-.18-.16-.16-.15-.12-.07-.17,0-.14-.16-.26-.24-.33-.42-.17-.23,0-.17V97.6l-.13-.19-.18-.16-.22-.13-.12-.18,0-.37-.11-.25-.06-.3-.15-.18.14-.22,0-.43,0-.3-.21-.15-.08-.08v-.14l.18-.06.26-.2.18-.24.13-.21.1-.21.17-.15.14-.16,0-.16.07-.23.07-.18.1-.16.16-.08.23-.21.11-.15.08-.15,0-.14-.11-.16-.1-.08-.1-.15-.08-.31-.08-.21-.11-.31-.2-.2-.3-.25L99.81,90l-.29-.22-.3-.25-.08-.07,0-.16-.1-.14L98.84,89l-.15-.16-.13-.1,0-.09,0-.11.07-.12.15-.13.08-.1.11-.06.31,0,.27,0,.16,0,.13,0,.2,0,.19,0,.18,0h.28l.12,0,.17,0h.17l.09-.06,0-.13-.16-.12-.17-.17-.16-.12-.12-.21-.12-.15-.09-.11,0-.17-.11-.14-.06-.12,0-.12-.07-.16.09-.13v-.18l0-.13.06-.35v-.31l-.08-.15.06-.17-.11-.15,0-.17-.08-.1-.15-.14,0-.39-.09-.18v-.23l-.24-.08v-.12l-.18,0v-.16h-.16l0,.25-.06,0-.24,0h-.11l.06.09v.06l0,.07-.06.07,0,.06V84h.37l.15.11.14.13.09.11a2.94,2.94,0,0,1,0,.42l0,.1-.13.15v.09l.06.12.06.1-.06.1-.11.08-.2.16-.17.1-.21.12-.22,0-.11,0-.11.12-.08.24-.26.21v.22l-.11.12-.08.29-.12.32-.08.25,0,.18-.19.11-.13.1-.06.08,0,.39v.12l-.07.21h-.26l-.19.1-.08.1-.05.09v.46l-.09.1,0,.15v.23l-.2.15-.11.09h-.25l0,.15,0,.1-.12,0-.09.06-.09.09,0,.17,0,.16-.06.34-.11.17-.14.18,0,.22,0,.12-.06.18,0,.09,0,.1-.1.11,0,.11v.08l0,.15,0,0-.17,0-.15.05-.09.1,0,.23-.05.18-.11.1-.12.11-.12,0h-.14l-.12,0-.1,0-.07,0v-.27l-.15-.06-.09,0-.08-.07,0-.11,0-.15L93.07,93h-.19S92.8,93,92.8,93l-.09-.17h-.07v.13l0,.14s0,.08-.06.09l-.13.07-.12,0-.18-.06L92,93.05l-.07,0-.07.06-.07.06-.13.07-.1.07v.08l-.08,0h-.11l-.05.11,0,.13-.06.09-.13.15-.22.1-.13.07-.12,0,0,.14-.09.21-.18.16-.18.12-.18.09-.08.1,0,.1v.12l.05.12s0,0,0,0a.34.34,0,0,1,0,.11.59.59,0,0,1-.08.08l-.07.12,0,.07,0,.12V96l-.07.21-.09.16-.08.09,0,.08,0,.16v.1l.15,0,0,0,.06,0,.08,0,.07.08.05.14,0,.09,0,.11,0,.17v.09l.06.08v.09l.06.05,0,.06,0,.09,0,.09,0,0,.14.06h.09l.12.06.08.06.07.1h.11l.06,0v-.08l0,0H91l0-.1-.08,0v0h.32l.06,0,.08,0V98l0,.06,0,.07.08.08,0,.09-.12,0-.12-.1V98L91.15,98l-.05.11a.56.56,0,0,0,0,.1.66.66,0,0,0,0,.13l0,.1,0,.12.06.13.1.13.11.07.08.08.08.07.09.15.07.22v.19l-.06.21,0,.19,0,.21,0,.22,0,.25,0,.1.13.09.08.09.12.06H92l.1,0h1.92v-.22l.41,0,.36,0,.19,0h.29l.16,0,.13,0h1.3l.09-.06h.21l.12.06.07.09.62,0,.45,0H99l.45,0,.23,0,.16.09.26.08.2,0,.14,0h.09l.11.08.09,0h.4l.17.07.16.07.13,0,.14.11.16.13.13,0,0-.06,0-.14v-.13l-.07-.12,0-.1,0-.09V101l.09-.08Z"/><polygon class="cls-4" points="89.42 96.97 89.42 97.21 89.56 97.21 89.56 97.18 89.63 97.21 89.63 97.12 89.53 96.97 89.48 96.94 89.42 96.94 89.42 96.97"/><path class="cls-4" d="M120.94,95.85l-.14-.12,0-.17v-.14l0-.07v-.08l-.06-.09,0-.12-.06-.07-.23-.21h-.13l-.21-.1-.1-.13h-.1l-.22,0-.16-.09v-.07l.09-.1,0-.11-.07-.05-.1,0-.15-.07,0-.08,0-.16.06-.09.07-.1,0-.09-.08-.06-.12,0-.11,0-.08-.13-.3-.37-.34-.19-.2-.1-.25-.06-.18-.1-.06-.08,0-.14-.1,0h-.13a.7.7,0,0,1-.06-.09,1,1,0,0,1,0-.13l.12,0,0-.1,0-.17-.08-.13-.07,0-.06,0-.12,0-.14-.12-.1-.14-.14-.2-.12-.06h-.35l-.35,0-.17-.08-.11-.11-.07-.17a.47.47,0,0,1,0-.12l.08-.11,0-.1,0-.1h-.77l-.21-.06-.15,0s0-.07,0-.07l0-.06.07-.1v-.08l-.08-.07-.12-.07,0-.2,0,0,.15-.08,0-.1v-.12l0-.07.1,0,0-.08-.08,0,0-.08.08-.08.06-.14v-.18l0-.13-.1-.14-.14-.29-.18-.27-.13-.24-.28-.31-.34-.32-.14-.15,0-.09-.13,0h-.21l-.24,0h-.42l-.17.07-.15,0-.21,0-.31.06,0,.11-.07.2v.3l-.06.2-.1.17-.14.23-.19.12-.19.13-.22.15-.21.21-.13.14v.29l-.1.09L110,89l-.2.09-.11.09-.11.07a.49.49,0,0,1-.13.08s0,.06,0,.06v.12h-.83l-.15.1-.22,0-.21,0-.18,0h-.62l-.15,0h-.18l-.11.08-.06.12V90l.09.1.09.06.12,0,0,.11v.11l-.1.18a1.78,1.78,0,0,0-.23.09s-.12.12-.12.12l-.15.17,0,.16-.12.2h-.71l-.19.08h-.81l-.15.07-.13.06-.1.06-.22.12-.12.07-.14.11h-.11l-.19,0-.17.12-.2,0L102.9,92l-.08-.1V91.8l-.06-.06h-.36l-.07.1-.09.08-.1.12-.15.11-.15.08-.17.08-.24-.08-.06-.1V92l-.18-.06-.08.15-.11.15-.23.21-.16.08-.1.16-.07.18-.07.23,0,.16-.14.16-.17.15-.1.21-.13.21-.18.24-.26.2-.18.06v.14l.08.08.21.15,0,.3,0,.43-.14.22.15.18.06.3.11.25,0,.37.12.18.22.13.18.16.13.19V98l0,.17.17.23.33.42.26.24.14.16.17,0,.12.07.16.15.18.16.08.13s.09.19.1.2a1.09,1.09,0,0,1,0,.17l0,.24-.07.08.13.15.05.33.08,0,.07-.15.06-.15.11-.19.09-.19.09-.36,0-.23.06-.12,0-.13,0-.14v-.33l.09-.11h.28l.31,0,.37,0,.14,0,.12,0,.08,0h.32l.22,0h.19l.13.08h.11l.13,0,.13,0,.1.08.1,0,.07-.08.15-.1.1,0h.1l.13.09.12.14v-.48l-.08-.17,0-.12.08-.24v-.28l-.06-.15.16-.2.14-.12.14-.15.14-.14.13-.19.12-.17.16-.13.2-.13.21-.07H108l.16.12s.1,0,.13,0a.67.67,0,0,0,.18.07h.18a1.17,1.17,0,0,1,.2.12l.09,0,.14,0,.14.11.08.15.06.15.1.16.14.06.19,0,.25,0h.18l.09.1.06.09h.27l.11.07.13.06H111l.11,0,.06,0,.1,0,.07-.07h.14a.52.52,0,0,1,.12,0l.07,0,.1.07.23,0,.3,0,.1,0h.2l.05,0,.12-.1.1,0,0-.07V97.4l0-.13s.06-.1.12-.1h0l0-.23.15-.12.25-.08h.12l.26.11.36.07.21-.06.16-.11.31-.16h.16l.2,0,.16-.07h.18l.2-.06.14-.07.07-.12,0-.1h.15l.1.11.1.11.13.07h.27l.15-.08h.16l.09-.12h.14l.11-.09V96l.06-.13c0-.06.24-.11.24-.11h.43l.23.11H119l.13.11.12.07h.08l.13.13.1,0,.17-.09h.15l.15,0,.06,0,.11-.06V96l.07,0,.12-.13h.34l.19.11L121,96Z"/><path class="cls-4" d="M95.09,112.74l0-.06.17-.08.16,0,.16-.09,0-.07,0-.09,0-.1.06,0,.14,0,.21-.08.11-.07,0-.09,0-.11h.08l.12,0,.12.11.2.15.11.1.13,0,.12.1,0,.07a.73.73,0,0,0,.1.09l.19,0h.13l.12-.1.07-.06H98l.08,0v-.54l.06,0,.13,0,.07.09.17-.07.06-.07.11,0,.13-.07.11,0,.19,0h.19v.1l0,0a.7.7,0,0,0,.08.1s.07,0,.07.06,0,.1,0,.1l0,.16,0,.14a.68.68,0,0,0,0,.15.28.28,0,0,0,.09.06l.15,0a1.89,1.89,0,0,0,.19-.14l.15-.14.24-.31.24-.3.28-.28.35-.27.31-.09h.18l.18-.14.2-.47.16-.35,0-.57,0-.34.07-.18.08-.19,0-.23-.1-.22,0-.2.29-.32.42-.34.18-.29.12-.28.1-.31.18-.24.23-.14h.4l.35-.33.15-.21,0-.16,0-.12.11-.15,0-.13,0-.22.06-.24.08-.15.07-.11,0-.14.11-.16.11-.1v-.23l-.1-.15,0-.06,0-.18v-.14l0-.12,0-.1v-.16l.11-.13.07-.21v-.2l.1-.23a.63.63,0,0,1,.09-.14,3.19,3.19,0,0,0,0-.43l0-.33,0-.34.08-.22.1-.13,0-.19.08-.13.12-.17v-.15l.06-.14.15-.17.06-.08.07-.11,0-.12v-.31l-.12-.14-.13-.09h-.1l-.1,0-.15.1-.07.08-.1,0-.1-.08-.13,0-.13,0H105l-.13-.08h-.19l-.22,0h-.32l-.08,0-.12,0-.14,0-.37,0-.31,0h-.28l-.09.11v.33l0,.14,0,.13-.06.12,0,.23-.09.36-.09.19-.11.19-.06.15-.07.15-.08,0-.12,0,0,.08v.11l0,.09,0,.1.07.12v.13l0,.14,0,.06-.13,0-.16-.13-.14-.11-.13,0-.16-.07-.17-.07h-.4l-.09,0-.11-.08h-.09l-.14,0-.2,0-.26-.08-.16-.09-.23,0L99,101h-.57L98,101l-.62,0h-.07v.13l0,.11h-.1l-.1,0-.07.07v.09l0,0,.08,0,0,.09-.07.07-.06,0s0,.06,0,.08,0,.12,0,.12l0,.09.05.09.06,0,.08.06,0,.13,0,.06-.07.07,0,.07.06.06h.1l.13-.1.22-.09.22,0,.19-.08h.27l.09-.09.11,0,.09.06h.23l.14,0,.08.05,0,.11,0,.18-.07.13v.3l0,.17v.22l0,.11-.09.07-.12.1,0,.08-.13,0-.17.15v.44l-.08.28-.08.1.13.19.3.13.26.07.19.07,0,.18v.19l0,.34v.51l0,.2,0,.12,0,.15-.18.19,0,.12v.28l0,.09.05.17-.07.08L99,108l-.11.09,0,.16,0,.2,0,.19-.13.08-.17-.06-.13-.2-.11-.15-.14-.16-.1,0h-.14l0,.07a.62.62,0,0,1,0,.1s-.07.09-.07.09l-.13.06h-.14l-.15,0h-.1l-.13.07-.19.06-.13,0-.07-.26-.12-.16-.12-.15-.09-.12,0-.13-.11-.06-.22-.06h-.22l0,.11,0,.1.09.05,0,.13,0,.2s0,.11,0,.14a1.05,1.05,0,0,1-.08.18l-.07.1-.27,0-.22-.07-.14-.07a.38.38,0,0,0-.11,0l-.15,0-.14.06-.11,0s-.09,0-.1,0v-.09l-.12,0-.1,0-.08.09,0,.08.06.05a.73.73,0,0,1,0,.12v.16l0,.12-.1.16s0,.1,0,.12.09.08.09.08l.09,0,.07-.1h.06l.14.09.06.07,0,.09,0,.13a.68.68,0,0,0,0,.15l.06.08.07.2v.07l0,.15-.08,0-.05.1,0,.18,0,.1h-.08l-.18-.15-.11-.16-.08-.1-.11-.06h-.11l-.09,0v.15l0,.06-.12,0-.1,0-.09.11a.33.33,0,0,0-.08.06v.12l0,.13-.06.07.14.13.19.15.21.25.27.25.22.18.11.15,0,.15,0,.18.12.15.1.11Z"/><polygon class="cls-4" points="91.48 100.77 91.61 100.86 91.69 100.95 91.81 101.01 91.91 101.02 92.04 101.02 92.14 100.97 92.3 100.96 92.58 100.95 92.85 100.96 93.11 100.97 93.32 100.97 93.58 100.98 93.88 100.98 94.06 100.98 94.06 101.38 94.06 101.78 94.06 102.2 94.06 102.77 93.82 102.88 93.25 102.88 92.65 102.88 92.24 102.88 91.97 102.88 91.82 102.94 91.7 102.94 91.67 102.8 91.67 102.72 91.6 102.71 91.56 102.8 91.28 102.83 91.22 102.87 91.15 102.87 91.11 102.79 91.06 102.74 91 102.71 90.89 102.69 90.89 102.75 90.78 102.76 90.78 102.62 90.83 102.48 90.9 102.4 90.92 102.27 91.02 102.19 91.09 102.1 91.14 101.96 91.18 101.85 91.28 101.71 91.38 101.57 91.43 101.33 91.44 101.12 91.44 100.94 91.45 100.8 91.48 100.77"/><path class="cls-4" d="M89.71,99.05l.13-.21.12-.15.09-.11v-.11L90,98.39l-.18,0-.12-.05-.14.1,0,.1v.11l0,.08,0,.05v0l0,0,0,0-.1,0,0,0v.19l.06,0,.12,0,.12,0h.07l.12-.07,0-.09Z"/><path class="cls-4" d="M94.06,102.2v.57l-.24.11H92l-.15.06-.09,0-.16-.06-.32,0h0l0,.31v.3l0,.25-.06,0,0-.11,0-.1-.06,0h-.14l-.1,0,0,.11,0,0,.11.08.12.07.13.05.12.1.07.1,0,.12.1,0h.27l.17,0,.13,0,.09.08s-.06,0-.08,0-.15,0-.15,0l-.16,0v.06l.1,0,0,.07h-.23l0-.1,0,.07-.13-.13-.16,0H91l-.11,0,0-.07v-.08l0-.06,0,0h-.1l0,.07.06.13,0,.15,0,.08v.11H90.6l0,.21V105l0,.21-.06.16-.09.14-.11.11,0,.1,0,.09,0,.08v.07l0,.09v.06l-.13.07.15,0h.5l.18-.07L91,106l.07-.12.07-.1,0-.13,0-.15,0-.07,0,.09,0,.15,0,.16.12,0,.1,0,0,0-.09,0-.11,0-.06.09-.06,0,0,0-.06.08h-.2l-.1,0-.1,0-.11,0h-.09l-.1,0h-.23l0,0H90v.12l.12.08v.2h.06l.1.07,0,.07,0,0h.08l.06,0,0,0,0-.06h.05l0,0v.14l-.08,0-.06,0,0,.1,0,0,.08,0,.07,0,0,0,.1,0,.05,0v0l0,0,0,0,0,0h-.08l0,0-.06,0h-.12l0-.13,0-.06-.1-.11-.1-.08-.07-.06,0,0,0,.06.06.11.11.11.07.08.07.09,0,0,0,.11,0,.16h.09l0,0,0,0h.09l0,0,0,0h.05l0,.08v.06l.07.09,0,0V108l0,0-.06-.12-.06-.11-.12,0-.08,0h-.07l0,0h0v.06l.09.07,0,0,.06.07.13.12.13.14,0,.07,0,.14.13.09.11,0s.06.05.06.07l.17,0h.09l.09,0,0,0v.07l.15,0,.09,0,0,0v.08l-.07.07h-.09l-.12,0-.11-.09a.33.33,0,0,0-.06-.06.54.54,0,0,1-.11-.06h-.08v0l.16.16.26.22.23.18.21.17.28.23.14.19.18.25,0,.12.16.11.17.11.11.14.09.11.09.14.07.1.09.05.06-.07,0-.13v-.12a.33.33,0,0,1,.08-.06l.09-.11.1,0,.12,0,0-.06v-.15l.09,0h.11l.11.06.08.1.11.16.18.15h.08l0-.1,0-.18.05-.1.08,0,0-.15V110l-.07-.2-.06-.08a.68.68,0,0,1,0-.15l0-.13,0-.09-.06-.07-.14-.09h-.06l-.07.1-.09,0s-.1,0-.09-.08,0-.09,0-.12l.1-.16,0-.12v-.16a.73.73,0,0,0,0-.12l-.06-.05,0-.08.08-.09.1,0,.12,0v.09s.1,0,.1,0l.11,0,.14-.06.15,0a.38.38,0,0,1,.11,0l.14.07.22.07.27,0,.07-.1a1.05,1.05,0,0,0,.08-.18s0-.14,0-.14l0-.2,0-.13-.09-.05,0-.1,0-.11h.22l.22.06.11.06,0,.13.09.12.12.15.12.16.07.26.13,0,.19-.06.13-.07h.1l.15,0h.14l.13-.06s.07-.06.07-.09a.62.62,0,0,0,0-.1l0-.07H98l.1,0,.14.16.11.15.13.2.17.06.13-.08,0-.19,0-.2,0-.16L99,108l.16,0,.07-.08-.05-.17,0-.09v-.28l0-.12.18-.19,0-.15,0-.12,0-.2V106l0-.34v-.19l0-.18-.19-.07-.26-.07-.3-.13-.13-.19.08-.1.08-.28V104l.17-.15.13,0,0-.08.12-.1.09-.07,0-.11v-.22l0-.17v-.3l.07-.13,0-.18,0-.11-.08-.05-.14,0h-.23l-.09-.06-.11,0-.09.09H98l-.19.08-.22,0-.22.09-.13.1h-.1l-.06-.06,0-.07.07-.07,0-.06,0-.13-.08-.06-.06,0L97,102l0-.09s0-.11,0-.12,0-.08,0-.08l.06,0,.07-.07,0-.09-.08,0,0,0v-.09l.07-.07.1,0h.1l.1-.24-.07-.1-.12,0H97l-.09.06H95.6l-.13,0-.16,0H95l-.19,0-.36,0h-.21l-.2,0v1.43Z"/><path class="cls-6" d="M89.94,106.12a.93.93,0,0,0,0-.1l0-.11-.1,0-.06-.07-.08,0,0,0,0,.05,0,.08,0,.06,0,.06.06,0,0,0,.07,0Z"/><path class="cls-4" d="M86.69,96.74l0,.13,0,.13,0,.15v.07l.07.11,0,0-.08-.09,0-.15v-.2l-.06-.11,0-.07v-.07l0,0h-.08v0l0,0v.09l0,0v0l.07.06,0,.07v.12l0,.09,0,.1.06.09h-.07l0,0h-.05v-.15l0-.06V97l0-.08,0,0v-.2h.07v0l-.1,0,0-.08-.14,0,0,0,.14.07,0,.05v.06l-.1,0-.09,0,0-.12H86l.06.12v.08l-.07,0-.07,0,0,.06V97l-.1,0,0,0-.07,0,0-.09.07-.09v-.08l0-.07h-.26l-.08,0,0-.15v-.06h-.08a.8.8,0,0,0,0,.15l-.06.08,0,.08-.05.1v0l-.07,0v.06l-.06.07v0l-.06,0h0v-.06l-.09,0v0l-.08,0,0-.09,0-.09,0-.1v-.15l0-.06h0l-.09,0-.06.08V97l.09.08,0-.1-.06,0,.09-.1v.1l0,0v0l-.11.12L84.4,97l-.15-.25-.1-.22,0-.18,0,0,0-.06v-.08h0l0,0,.06,0,0-.09,0,0h-.08L84,96v-.16l-.1-.09.24,0s.08,0,.1,0l.12.07,0-.08s.07-.06,0-.08-.14,0-.14,0l-.08,0-.11,0,0,0-.15,0h-.07l-.17-.21H84l.12-.06h.19l.11,0,0-.11-.08,0,0-.06h-.07l0,.12h-.15l0,0v0l-.13,0v-.08h0l0,.13-.16,0-.09-.11-.07-.13.18-.11.18-.14L84,94.8l.07,0h.19l-.11-.12H84l-.09.12-.12.12-.24.14-.14,0s0-.1,0-.12-.07-.17-.07-.17l-.09-.08-.09-.1v0l-.06-.06,0,0h-.1l-.21-.12-.12-.13-.1-.08L82.38,94h-.23L82,94l-.14-.16-.07-.09-.15-.09-.15-.05h-.17l-.17.1-.11.1-.15.08-.22.06-.2,0h-.54l-.19,0h-.16v-.19l0-.17.06-.13s0-.1,0-.13l-.11-.17v-.18l0-.07,0-.12,0-.16,0-.29.1,0-.08-.23,0-.25V91l0-.49,0-.59,0-.22.31,0,.21-.1.14-.16.07-.26,0-.23.14-.2.08-.2,0-.14.18-.08.11-.1.06-.15,0-.17,0-.16,0-.06.12-.14s0-.13,0-.13h.13l.15-.12V87l-.08-.19-.08-.17,0-.2,0-.17-.11-.2-.12-.18L81,85.75l0-.15.09-.38.11-.13v-.2l.06-.14v-.46l0-.33.1-.29.18-.11.16-.1.17-.18a2,2,0,0,0,.11-.2,1,1,0,0,0,0-.21l0-.22,0-.46.28,0,.15-.15.12-.12.16,0,.2-.09H83l.12,0,.31,0,.25,0H84l.14-.16.11-.07h.18l.37.11.28.11.36.08.18,0,.22.08.18.17.22.35.11.19.14.19.15.06h.25l.2-.1.14-.08.25,0,.2-.09.34-.25.17-.08.28,0,.27.14.33.21.25.13.24.1.19.18.26.07.32,0,.26,0,.33,0h.27l.17-.12.36-.39.26-.25.25-.06h.43l.29-.14.31,0h.85l.41.06.15.1.12,0,.18,0,.33.13.21.05h.19l.19-.07.18-.12.18-.11.15-.13.17-.13.14-.08.17,0h.22l.09,0,.18-.22,0,.06,0,.1,0,.1v.25l.1.06.09.1v.1l0,.07.12,0,.1.11H98v-.11l.08.07h.11l.06.07,0,.07V83h-.16l0,.09v.05l.11.08v.1l0,0v.07l-.09,0v.08s.07,0,.07,0,0,.09,0,.09l.15,0v0l.06.08v.06s0,.06,0,.08a.58.58,0,0,0,.13,0s0,.06,0,.06l.14,0,.18-.06,0,.17h.37l.15.11.14.13.09.11a2.94,2.94,0,0,1,0,.42l0,.1-.13.15v.09l.06.12.06.1-.06.1-.11.08-.2.16-.17.1-.21.12-.22,0-.11,0-.11.12-.08.24-.26.21v.22l-.11.12-.08.29-.12.32-.08.25,0,.18-.19.11-.13.1-.06.08,0,.39v.12l-.07.21h-.26l-.19.1-.08.1-.05.09v.46l-.09.1,0,.15v.23l-.2.15-.11.09h-.25l0,.15,0,.1-.12,0-.09.06-.09.09,0,.17,0,.16-.06.34-.11.17-.14.18,0,.22,0,.12-.06.18,0,.09,0,.1-.1.11,0,.11v.08l0,.15,0,0-.17,0-.15.05-.09.1,0,.23-.05.18-.11.1-.12.11-.12,0h-.14l-.12,0-.1,0-.07,0v-.27l-.15-.06-.09,0-.08-.07,0-.11,0-.15L93.07,93h-.19S92.8,93,92.8,93l-.09-.17h-.07v.13l0,.14s0,.08-.06.09l-.13.07-.12,0-.18-.06L92,93.05l-.07,0-.07.06-.07.06-.13.07-.1.07v.08l-.08,0h-.11l-.05.11,0,.13-.06.09-.13.15-.22.1-.13.07-.12,0,0,.14-.09.21-.18.16-.18.12-.18.09-.08.1,0,.1v.12l.05.12s0,0,0,0a.34.34,0,0,1,0,.11.59.59,0,0,1-.08.08l-.07.12,0,.07,0,.12V96l-.07.21-.09.16-.08.09,0,.08,0,.16v.1h-.08l-.17-.08L89,96.6,89,96.49l-.07-.1-.14-.07,0,0v.09l0,.11,0,0-.06-.13-.08-.1,0-.09s0-.09,0-.11a.21.21,0,0,0,0-.07L88.52,96v-.06l-.08,0,.11.12a.24.24,0,0,1,0,.07s0,.11,0,.11,0,0,0,0a.89.89,0,0,0,0,.13l0,.09.07.08.06,0,.09.11,0,.07,0,.13v.14h-.59l-.08-.05,0,.05H88l-.08.09-.1,0-.06-.07,0,.14h-.36v-.05h.15l.12-.09,0-.05s0,0,0,0h-.08v0l-.06,0L87.33,97h0l-.06,0-.06,0,0,0-.1-.09V97l0,0,0,.06-.09,0,0-.16,0,.13,0,0v.13l.06,0H87l0,.09v.1l-.11,0v-.11l-.07.1-.06-.06,0-.09V97l0-.1-.06-.1"/><polygon class="cls-4" points="87.24 97.31 87.23 97.07 87.16 97.07 87.08 97.19 87.08 97.34 87.22 97.34 87.24 97.31"/><path class="cls-4" d="M87.31,97.14h.12s0,0,0,0l-.12,0v.07Z"/><polygon class="cls-4" points="86.36 97.42 86.48 97.41 86.46 97.32 86.42 97.28 86.42 97.16 86.41 97.06 86.38 96.99 86.34 96.92 86.25 96.92 86.25 97.02 86.27 97.03 86.29 97.25 86.29 97.36 86.29 97.41 86.36 97.42"/><polygon class="cls-4" points="86.2 97.14 86.2 96.95 86.16 96.9 86.09 96.97 86.09 97.07 86.19 97.2 86.2 97.14"/><polygon class="cls-4" points="86.17 97.3 86.09 97.2 86.08 97.14 86.03 97.14 86.03 97.19 86.1 97.32 86.17 97.32 86.17 97.3"/><polygon class="cls-4" points="86.03 97.29 86.02 97.4 85.85 97.4 85.85 97.25 85.89 97.23 85.93 97.2 86 97.23 86.03 97.27 86.03 97.29"/><path class="cls-4" d="M85.76,97.42l0-.22h-.07l0,0,0,0v-.07h-.11l0,.28.08,0v0h-.11v.09h.27s0-.08,0-.08l-.1,0v0s0-.1,0-.11,0-.11,0-.11l.06,0v.12l.06.1,0,0Z"/><path class="cls-4" d="M85,97.2l0,.07.08.07.07-.07v-.1h-.06Z"/><polygon class="cls-4" points="84.95 97.32 84.98 97.46 84.8 97.39 84.8 97.32 84.95 97.32"/><polygon class="cls-4" points="85.18 96.87 85.18 97.07 85.13 97.11 85.21 97.14 85.25 97.2 85.28 97.23 85.33 97.23 85.33 97.09 85.28 97.01 85.24 96.92 85.23 96.87 85.18 96.87"/><polygon class="cls-4" points="85.42 96.93 85.44 97.35 85.35 97.28 85.38 97.11 85.38 96.95 85.42 96.93"/><polygon class="cls-4" points="85.47 96.8 85.42 96.87 85.49 96.95 85.51 96.92 85.51 96.8 85.47 96.8"/><path class="cls-4" d="M85.55,96.8a1,1,0,0,0,0,.17s.06-.07.06-.07v-.1Z"/><polygon class="cls-4" points="85.24 97.54 85.4 97.54 85.4 97.5 85.35 97.46 85.37 97.42 85.32 97.37 85.24 97.39 85.24 97.42 85.21 97.46 85.24 97.54"/><polygon class="cls-4" points="85.14 97.46 85.13 97.53 85.06 97.51 85.06 97.44 85.14 97.46"/><path class="cls-4" d="M101.43,92.23l-.12-.14-.12-.12v-.12l-.13-.18-.1-.08-.1-.15-.08-.31-.08-.21-.11-.31-.2-.2-.3-.25L99.81,90l-.29-.22-.3-.25-.08-.07,0-.16-.1-.14L98.84,89l-.15-.16-.13-.1,0-.09,0-.11.07-.12.15-.13.08-.1.11-.06.31,0,.27,0,.16,0,.13,0,.2,0,.19,0,.18,0h.28l.12,0,.17,0h.17l.09-.06,0-.13-.16-.12-.17-.17-.16-.12-.12-.21-.12-.15-.09-.11,0-.17-.11-.14-.06-.12,0-.12-.07-.16.09-.13v-.18l0-.13.06-.35v-.31l-.08-.15.06-.17-.11-.15,0-.17-.08-.1-.15-.14,0-.39-.09-.18v-.23l-.24-.08v-.12l-.18,0v-.16l.11,0,.13,0,.11.08H100l.15-.14h.2v0l-.13-.09.1,0h.14l.1,0s0,0,0,0l-.21,0h.15l-.08-.07-.22-.22,0-.09.26.24.13.1.09.06.11,0,0-.07-.07-.1v-.1l0,0,.05,0-.05-.09h.06l0-.08,0-.07.06,0-.08,0h-.31l-.29-.06-.1-.08L99.9,82l-.11.06,0,.09-.08-.07h-.13l0,.06-.12-.06h-.14l0-.06,0,.06-.07,0L99,82,99,82.1l0-.08-.14,0v0l0-.06,0-.06-.08-.08,0-.09,0-.07-.06-.07,0-.2,0,0H99l0,0-.07-.1.06,0,0-.08-.08,0h0l0-.08-.09,0L98.69,81l0-.11h-.08l-.19,0v-.1h-.13l0,0-.13-.17L98,80.52v.06l.07.16-.12-.14h0l0,.1-.14.09-.07-.27.13-.07h.18l.09-.27L98.2,80l0,0,0-.25.11-.25.24-.29.27-.45.72-.73.58-.59.67-.59.19-.22v-3l0-.54.18-.94.05-.29,0-.55.1-.34.2-.37.15-.26-.39-.26-.27-.19-.07-.24-.17-.23.08-.28-.09-.22-.15-.31-.17-.34v-.84l-.14-.58-.18-.88-.07-.26.14-.09,1.6-.81.56.3,3.18,1.65,2.85,1.39,4.12,2.16,2.18,1.12.51.27v6.44l0,.12,0,0h-.09l-.17-.08-.1,0s-.13,0-.13,0h-.21l-.2,0h-.11l0,.07-.13,0-.12,0-.16-.06-.13.19-.06,0-.12.08-.06.11v.12l.08.11,0,.12v.18l-.08.13-.13.14-.12.07-.08.13-.13.08,0,.09.07.09V80l-.13.06-.17.06-.16.08v.11l.12.09v.1l0,.18,0,.09h.13l.09.09,0,.15-.13.06-.19.09-.21.11-.22.16-.11.13.06.15.12.12,0,.31,0,.15v.11l-.13.15-.21.13-.12.15,0,.13-.06.11-.07.12s0,.14,0,.14l.08.12,0,.07.15.07.11,0,.1-.08.11-.08.08,0,.11.07s.08,0,.08.07.08.07.08.07v.1l-.06.11v.09l.1.1.07.13v.31l0,0h.1l.06,0v.12l0,.11,0,.12,0,.14v.17l0,.12.19.22.15.12.17,0h.09l.12.06,0,.14,0,.21-.17.33-.13,0h-.21l-.24,0h-.42l-.17.07-.15,0-.21,0-.31.06,0,.11-.07.2v.3l-.06.2-.1.17-.14.23-.19.12-.19.13-.22.15-.21.21-.13.14v.29l-.1.09L110,89l-.2.09-.11.09-.11.07a.49.49,0,0,1-.13.08s0,.06,0,.06v.12h-.83l-.15.1-.22,0-.21,0-.18,0h-.62l-.15,0h-.18l-.11.08-.06.12V90l.09.1.09.06.12,0,0,.11v.11l-.1.18a1.78,1.78,0,0,0-.23.09s-.12.12-.12.12l-.15.17,0,.16-.12.2h-.71l-.19.08h-.81l-.15.07-.13.06-.1.06-.22.12-.12.07-.14.11h-.11l-.19,0-.17.12-.2,0L102.9,92l-.08-.1V91.8l-.06-.06h-.36l-.07.1-.09.08-.1.12-.15.11-.15.08-.17.08-.24-.08-.06-.1"/><path class="cls-4" d="M81.12,85.09v-.2l.06-.14v-.46l0-.33.1-.29.18-.11.16-.1.17-.18a2,2,0,0,0,.11-.2,1,1,0,0,0,0-.21l0-.22,0-.46.28,0,.15-.15.12-.12.16,0,.2-.09H83l.12,0,.31,0,.25,0H84l.14-.16.11-.07h.18l.37.11.28.11.36.08.18,0,.22.08.18.17.22.35.11.19.14.19.15.06h.25l.2-.1.14-.08.25,0,.2-.09.34-.25.17-.08.28,0,.27.14.33.21.25.13.24.1.19.18.26.07.32,0,.26,0,.33,0h.27l.17-.12.36-.39.26-.25.25-.06h.43l.29-.14.31,0h.85l.41.06.15.1.12,0,.18,0,.33.13.21.05h.19l.19-.07.18-.12.18-.11.15-.13.17-.13.14-.08.17,0h.22l.09,0,.1-.11.08-.11,0-.1,0-.1,0-.08,0-.06,0-.08-.09-.07h0l0,0v-.08l0,0-.06,0v-.12L97,81l.11-.08.14,0v-.09h.07l.06.14v-.17l.13-.07h.15v-.15l.13-.07h.18l.09-.27L98.2,80l0,0,0-.25.11-.25.24-.29.27-.45.72-.73.58-.59.67-.59.19-.22v-3l0-.54.18-.94.05-.29,0-.55.1-.34.2-.37.15-.26-.39-.26-.27-.19-.07-.24-.17-.23.08-.28-.09-.22-.15-.31-.17-.34v-.84l-.14-.58-.18-.88-.07-.26-.43.21-.42.25-.44.2-.17,0L98.41,66l-.34-.36-.47-.3L97,65.18,96.3,65l-.54-.11-.6-.22-.6.37L93.1,66l-1.16.71-1.28.74-1.35.81-1,.64-.71.42-.21.17-.92.76-.84.75-.48.42-.31.25-.17.14-.74.18-1.26.33-.5.13,0,3.57v.16l-.14.13,0,.52v.4l-.24.43v.27l-.1.34-.07.19-.3.09-.15.08-.09.15,0,.11-.61-.05h-.18l-.17.11-.92,0-.75.08H77.26l-.41.41-.27.2-.55,0-.44,0H75.4v.55l-.09.2v.14l.13.09.18.22,0,.2,0,.22.21.24.23.32.59.14.12.2.16.14,0,.13-.25.18v.22l0,.14.26.14.15.13.13.12.25.2.27.08.19,0,.17-.08.12-.17h.18l.14.07.16.23.06.18,0,.13-.31,0,0,.12.16.19.12.16.16.22.08,0,0-.24,0-.19h.24l.16-.08h.12l.09-.12.26,0,.17.15.34.26.21.21.25.19L81,85Z"/><path class="cls-4" d="M70.11,88.89,70,88.77,70,88.66l0-.06-.14-.12-.07-.09,0-.13-.07-.08h-.06l0,0,0,.07-.14-.07-.1,0-.17,0-.16,0h-.2l-.11,0-.13,0-.13.06-.12.07-.12,0-.06,0-.1.09-.16.1-.07.11,0,.08-.06,0-.13-.06-.06-.11-.09-.06-.12.09-.14,0,0,0L67,88.44l0-.07-.08-.07-.06,0h-.09l-.09,0v0l0-.08V88l-.07-.08-.07-.09-.08,0-.11-.07-.14-.09-.15-.09-.1-.1-.06-.1v-.22l0-.1v-.15l.08-.1v-.11l-.08-.08,0-.26,0-.06.14-.1L66.1,86l.09-.12,0-.1v-.28l0-.11,0-.06-.06-.09v-.1l0-.09L66,85h-.1l-.08,0-.07-.06.09,0H66l.15,0,.11-.08.08-.07.17,0h.54l.14-.1.17-.14.09-.13,0-.17,0-.15v-.17l-.07-.13-.11-.13,0-.07.11,0,0-.07.11.06h.15l.07-.06,0-.12v-.1l0-.06L67.8,83,67.71,83v-.19l.06-.09.1-.07.1-.06,0-.07.16-.15.08-.09.09-.11.07,0v.25l0,0h.18l.07.06.09.07.12.12.13.09h.09l.08-.14h.07l.22,0,0-.09,0-.08,0-.11,0-.17V82l.07-.13h.3l.12,0h.12v-.38l0-.17.07-.13.14-.13a.41.41,0,0,1,.15,0l.07-.09.12,0,.14-.06H71l.17.08.17.08h.16l.11-.06,0-.11v-.4l.1-.11.28-.11.23-.13.3-.1L73,80l.28-.08.27-.26.17-.09h.15l.15-.07h.18l.19.08.21-.08.11.08.15,0,.26.08h.28v.55l-.09.2v.14l.13.09.18.22,0,.2,0,.22.21.24.23.32.59.14.12.2.16.14,0,.13-.25.18v.22l0,.14.26.14.15.13.13.12.25.2.27.08.19,0,.17-.08.12-.17h.18l.14.07.16.23.06.18,0,.13-.31,0,0,.12.16.19.12.16,0,0,.2.08v.09l-.08,0-.06.13-.08.2,0,.14-.07.12-.09.11-.12,0,0,0-.1.11h-.11l-.12,0H78l-.11,0-.09,0h0l-.1-.05-.08,0h-.11l-.11,0-.07.08,0,.12h-.06l-.13,0-.08.06,0,.09-.08.06v.21h-.07l0-.1h-.06l-.05,0,0,.08,0,.13-.11-.05-.17,0-.15,0-.15.08-.13-.09-.12,0h-.13l-.14,0-.12,0h-.16l-.14,0-.11,0h-.09l0-.06-.09-.08h-.09l-.09,0,0,0,0,.07-.08.06,0,0v-.18l0,0-.06.06-.13.09s-.07.08-.07.08l-.08,0-.13-.1H73l-.35,0-.36,0H70.56l-.22,0-.09,0-.08.1,0,.08-.07.16,0,.15.06.29.09.1,0,.07,0,.06,0,.12.06.08,0,0-.05.13v.1l.07.1,0,.06,0,.2,0,.09,0,.12,0,.12s0,.13,0,.14l.06.08.06.13-.06.14L70.25,89l-.09,0Z"/><path class="cls-4" d="M65.77,87.31v-.22l0-.1v-.15l.08-.1v-.11l-.08-.08,0-.26,0-.06.14-.1L66.1,86l.09-.12,0-.1v-.28l0-.11,0-.06-.06-.09v-.1l0-.09L66,85h-.1l-.08,0-.07-.06.09,0H66l.15,0,.11-.08.08-.07.17,0h.54l.14-.1.17-.14.09-.13,0-.17,0-.15v-.17l-.07-.13-.11-.13,0-.07.11,0,0-.07.11.06h.15l.07-.06,0-.12v-.1l0-.06L67.8,83,67.71,83v-.19l.06-.09.1-.07.1-.06,0-.07.16-.15.08-.09.09-.11.07,0v.25l0,0h.18l.07.06.09.07.12.12.13.09h.09l.08-.14h.07l.22,0,0-.09,0-.08,0-.11,0-.17V82l.07-.13h.3l.12,0h.12v-.38l0-.17.07-.13.14-.13a.41.41,0,0,1,.15,0l.07-.09.12,0,.14-.06H71l.17.08.17.08h.16l.11-.06,0-.11v-.4l.1-.11.28-.11.23-.13.3-.1L73,80l.28-.08.27-.26.17-.09h.15l.15-.07h.18l.19.08.21-.08.11.08.15,0,.26.08h.28l.39,0H76l.55,0,.27-.2.41-.41h1.08l.75-.08.92,0,.17-.11h.18l.61.05,0-.11.09-.15.15-.08.3-.09.07-.19.1-.34v-.27l.24-.43v-.4l0-.52.14-.13V76l0-3.57-.3.06-.33.07-.26.08-.34.11-.28.09-.25-.14-.14-.16,0-.11.06-.17V72s0-.23,0-.23l0-.31v-.23l-.47-.22-.24-.16-.06-.09-.16,0-.19-.1-.16,0-.1-.11-.08-.14-.12-.07-.12.07-.13-.07h-.16l-.16,0L78,70.44a1.08,1.08,0,0,1-.11-.11s-.08-.09-.08-.12,0-.15,0-.15a.48.48,0,0,1-.06-.11.41.41,0,0,0-.1-.09l-.13-.07-.21-.11H77l0-.19,0-.16,0-.16L77,69l-.06-.14-.14-.1-.17-.1-1.2-.84L74.18,67,72.82,66,71,64.79l-2.37-1.56-1.37-.95L66.77,62h-.6l-1.38,0H64l.08.94.08.91L64.34,65l0,.26,0,.6.13,1,.11,1.11.16,1.34.13,1.35.15,1.48.16,1.66.16,1.36.06.87.05.52V77l0,.1.17.07.1.1.09.1.06.12v.21l0,.21-.06.41-.05.26v.22l-.06.08h-.44l-3.36,0-2.06,0h-.38l-.12,0,0-.07,0-.08s0-.09,0-.09h-.1l-.09.06,0,.09,0,.15-.1.06h-.28l-1.6,0H57l-.08,0V79l-.09.11-.16.2-.07.08-.16-.22L56.34,79a.41.41,0,0,0-.12-.11l-.09-.08-.19-.15-.07-.12-.06-.07-.1,0a1,1,0,0,0-.17.07l-.13.08-.11.06-.15.12-.08.14-.07.15v.32l0,.07,0,.1-.06.1-.06.07-.17.13-.1.05-.15.07,0,.11v.08l-.08.09,0,.11v.14l.08.15.13.12.14.09.11.08v.34l0,.11,0,.22-.11.12V82l.09.09,0,.07,0,.08v.11l0,.07h.07l.06-.07.06,0h.09l.11.09.1.12.09.19.08.26.08.28v.19l0,.23,0,.09.06.08,0,.06,0,.11-.07.07,0,.08,0,.12,0,.06,0,.08.05.06.08.08.11.1v.09l.08,0h.09l.12-.06a.25.25,0,0,1,0-.07s.06-.1.07-.1a.86.86,0,0,1,.07-.1l.06-.09.12,0,.07,0,.09.07.07.12a1.34,1.34,0,0,0,.06.12l0,.08,0,0,0,.08.07,0,.09-.08a1.27,1.27,0,0,0,.06-.18l.1-.16.08-.07.12-.06.19,0,.2,0,.18.07.15.09.15.09.12.1.08.09.07-.09a1.56,1.56,0,0,0,.06-.15.44.44,0,0,1,0-.1.85.85,0,0,1,.11-.14l.13-.07.14,0h.13l.09,0,0-.09a1,1,0,0,0,0-.12l-.11-.06s0,0,0,0h.35l.19.08.21.09.07.15-.06.07s0,.08,0,.08l.08,0s0,0,0,.05a.31.31,0,0,1,0,.07l-.05,0v.07l0,0,.05,0,.09.07,0,.1,0,.13,0,.11,0,.07,0,.08.06.1.17,0,.06,0,0,.11,0,.07.11,0,.16,0,.11.07.06,0v.09s0,.07-.06.07l-.12,0-.09,0-.07.11v.08l-.1.11,0,.07,0,.07.06,0,.09,0,.06-.12.11,0,.09,0,.09.06.07.11V87l0,.1,0,.1,0,.09.09,0,.1,0,.12.09.14.07,0,0v.16l.19,0,.09-.08,0-.17L62,87.4l.13-.06.18-.07.12,0,0,.1.1,0,.05,0,0,.13s0,.06,0,.06l.13,0h.11l.09.05.08.06.12.05.06,0,0-.12,0-.11v-.07l.1-.06h.21l.12.05h.12a.54.54,0,0,0,.05-.11.25.25,0,0,0,0-.08l-.07-.11a.56.56,0,0,1,0-.07l.06-.1.08,0,.11,0s0,.07.06.07h.08s.06,0,.06-.05V87a.36.36,0,0,1,0-.07l.15,0h.13l.07.06V87l0,.07v.06l.08.09,0,.11,0,.13s0,.1,0,.1v.09l0,.08.08,0h.16l.12,0,.09-.16.05-.09,0-.09.09,0,.1,0,.08,0,.1,0h.21Z"/><path class="cls-4" d="M54.52,80l.15-.07.1-.05.17-.13.06-.07.06-.1,0-.1,0-.07v-.32l.07-.15.08-.14.15-.12.11-.06.13-.08a1,1,0,0,1,.17-.07l.1,0,.06.07.07.12.19.15.09.08a.41.41,0,0,1,.12.11l.09.09.16.22.07-.08.16-.2.09-.11v-.09l.08,0h.13l1.6,0H59l.1-.06,0-.15,0-.09.09-.06h.1s0,.09,0,.09l0,.08,0,.07.12,0h.38l2.06,0,3.36,0h.44l.06-.08v-.22l.05-.26.06-.41,0-.21v-.21l-.06-.12-.09-.1-.1-.1-.17-.07,0-.1v-.34l-.05-.52-.06-.87-.16-1.36-.16-1.66-.15-1.48-.13-1.35-.16-1.34-.11-1.11-.13-1,0-.6,0-.26-.14-1.18-.08-.91L64,62h.75l1.38,0h.6L65.21,60.9l-1.63-1.15-1.4-.87-1-.71-.65-.41v2.38l-5.66,0v4.6l-.17.06h-.13l-.19.1-.1.08-.18,0h-.24l-.28.15-.21.14-.21.18-.15.22-.06.23v.25l.1.86,0,.45,0,.32.06.72H51.83l-2.34,0-1.05,0H47.7l-.72,0-.35,0-.16.06-.07.13-.09.22,0,.24v.19l.07-.08,0-.19v-.12l0-.13,0-.1.07-.07,0,0,0,0,0,.1V69l.08.1,0,.06.07.12.06.07,0,0,0,.15v.12l.13.15.05,0v-.11s0-.17,0-.17l.1,0,.06.06a1.89,1.89,0,0,0,.06.18l.09.17a1.12,1.12,0,0,0,.05.13l.06.12,0,.08.13.09v.14a.6.6,0,0,0-.08.08.81.81,0,0,0,.06.13v.07l-.07.08-.12.12,0,0,.13,0v.12s-.07.11-.09.11l-.1,0a.5.5,0,0,0,0-.12l-.15.06,0,.13.05.11v.25l-.06.08-.06.06v.08h0l.12-.14h.06l0,.08-.13.12h-.19V72l.09.11.08.1.19.16.12.19.11.26.05.29.07.28.07.27,0,.38v.45l0,.53-.07.27-.26.67-.13.32-.18.38,0,.07V77l0,.09,0,.12,0,.08,0,.08,0,.13v.3l.16-.13v-.15l.13-.12,0-.12,0-.13.05-.13.11-.07a.46.46,0,0,1,.1-.05l.14.05L48,77h.09l.07-.06h.26l.08.07.07,0,.12,0,0-.06h.65l.07-.05h.14l0-.14.1,0,.16,0,.18,0,.1,0h.53l.14,0,.11.11.11,0,.1,0,.09.11.13.15.09.08.14.21.07.09H52l0,0,.19,0,.18.06.1.09.1.16.08.15.07.18.06.13.1.11.08.07,0,.08,0,.06h.11l.08,0,0,.08.06.12,0,.15.13.11.13.09.18.16.17.11.22.15.15.12.1.1Z"/><path class="cls-4" d="M70.21,96.24l.1,0,.06-.06.06-.21,0-.18,0-.15-.06-.16-.11-.09-.12,0-.1-.11-.07-.07-.09-.46,0-.28-.1-.18,0-.2-.07-.16-.06-.15v-.42l.15-.13L69.8,93l.11-.15,0-.12.05-.48.07-.17,0-.21.07-.15.17-.26.15-.15,0-.07.19-.24v-.17l-.08-.29,0-.19,0-.16L70.5,90v-.27l-.18-.06-.06-.13v-.11l.08-.07.06-.07v-.06l-.06-.1v-.07L70.26,89l-.1,0,0-.08L70,88.77,70,88.66l0-.06-.14-.12-.07-.09,0-.13-.07-.08h-.06l0,0,0,.06-.13-.07-.11,0-.17,0-.16,0h-.2l-.11,0-.13,0-.13.06-.12.07-.12,0-.06,0-.1.09-.16.1-.07.11,0,.08-.06,0-.13-.06-.06-.11-.08-.06-.12.09-.15,0,0,0L67,88.44l0-.07-.08-.07-.06,0h-.09l-.09,0v-.13l0-.13-.07-.08-.07-.08-.08-.06-.11-.07-.14-.09-.15-.09-.1-.1-.06-.1h-.21l-.1,0-.08,0-.1,0-.08,0,0,.09-.05.09-.09.16-.12,0h-.16l-.08,0,0-.08v-.09s0-.09,0-.1l0-.13v-.11l-.08-.09,0-.06,0-.07v-.07l-.07-.06h-.13l-.14,0s0,.07,0,.07a.53.53,0,0,1,0,.12s-.06.05-.06.05H64.1s-.06-.07-.06-.07l-.11,0h-.07l-.07.1a.56.56,0,0,0,0,.07l.07.11a.25.25,0,0,1,0,.08.54.54,0,0,1-.05.11h-.12l-.12,0h-.2l-.11.06v.07l0,.11,0,.12-.06,0-.12-.05L63,87.76,63,87.71h-.12l-.13,0s0-.06,0-.06l0-.13-.06,0-.1,0,0-.1-.12,0-.18.07L62,87.4l-.06.13,0,.17-.09.08-.15,0-.17,0-.15.13-.11.13v.13l.07.09,0,.21-.08.15.05.16,0,.18.42,0,0,.24v.1l.19.09.1.16-.23,0-.15.12v.27l.26.1.08.23.11.19-.06.22-.11,0,0-.13-.13.11-.16-.16-.13,0-.08,0-.13-.06h-.09v.46l.2.14.22.16-.28.23,0,.35-.16.2L61,91.9h-.16l-.16.13v.2l.26.5,0,.19,0,.21-.05.15-.09.17-.1.1-.09.15-.06.12v.09h.28v.14l.13,0,.15,0,.17,0,.16.08.14.09.16.07.11.12.06.15v.06H62l.11.08.14.09.11.14.08.1.06.1,0,.22-.11.08v.07l.13.08,0,.11h-.16v.28l-.16,0,0,.09.06.08v.12l-.1.08v.1l0,.15,0,.13.06.1,0,.13,0,.07,0,.18h.16l.23-.06.19-.12.12,0,.18,0,.1-.08.09-.09.15-.07.22,0,.15-.06.21-.08.23-.07.27-.06.24-.15.21-.12.29-.05.31-.06.5-.06.42-.05.46,0,.5,0,.47-.07.31-.05,0-.07,0-.1.23,0,.11,0,0,.11-.11.05,0,0,.16,0,.24,0,.24,0,.12,0,.21,0,0-.12,0-.08.09,0s.09.15.09.15l0,0s0,.08.05.08l.11,0v0l-.2,0,.17.06.07.12,0-.09.13,0Z"/><polygon class="cls-4" points="55.64 93.11 55.71 93.05 55.79 92.95 55.84 92.82 55.83 92.7 55.89 92.62 56.07 92.53 56.18 92.46 56.28 92.41 56.42 92.33 56.5 92.23 56.58 92.11 56.68 92.06 56.79 91.94 56.9 91.8 57.1 91.64 57.1 91.41 57.02 91.33 57.04 91.22 57.18 91.22 57.28 91.13 57.44 91.07 57.62 91.03 57.62 90.95 57.63 90.74 57.68 90.67 57.77 90.49 57.94 90.5 58.03 90.64 58.14 90.63 58.22 90.5 58.45 90.48 58.56 90.45 58.74 90.55 58.9 90.56 58.92 90.49 58.98 90.59 58.98 90.67 58.9 90.71 58.91 90.86 58.97 90.96 58.97 91.21 59.09 91.28 59.1 91.55 59.21 91.65 59.22 91.8 59.18 91.92 59.17 92.03 59.06 92.15 59.08 92.28 59.28 92.28 59.48 92.43 59.55 92.48 59.62 92.69 59.83 92.55 60.02 92.54 60.19 92.3 60.29 92.14 60.3 91.94 60.31 91.86 60.45 91.87 60.56 92.01 60.66 92.12 60.71 92.19 60.71 92.23 60.97 92.73 60.99 92.92 60.95 93.13 60.9 93.28 60.81 93.44 60.71 93.55 60.62 93.7 60.56 93.82 60.56 93.91 60.84 93.92 60.84 94.06 60.97 94.08 61.12 94.13 61.29 94.17 61.45 94.25 61.59 94.34 61.74 94.41 61.86 94.53 61.92 94.68 61.93 94.74 62 94.74 62.11 94.82 62.25 94.91 62.36 95.05 62.44 95.15 62.5 95.25 62.48 95.47 62.37 95.55 62.38 95.62 62.51 95.7 62.48 95.81 62.32 95.81 62.32 96.09 62.16 96.12 62.18 96.21 62.24 96.29 62.24 96.41 62.15 96.49 62.15 96.59 62.19 96.74 62.15 96.87 62.2 96.97 62.18 97.1 62.22 97.17 62.19 97.35 62 97.35 61.82 97.24 61.62 97.11 61.36 97.04 61.19 97.05 61.03 96.95 60.74 96.81 60.54 96.69 60.28 96.55 60.13 96.45 59.96 96.36 59.8 96.33 59.57 96.17 59.29 95.96 59.13 95.9 58.98 95.67 58.87 95.59 58.83 95.5 58.6 95.35 58.35 95.09 58.08 94.81 57.74 94.55 57.42 94.36 57.17 94.28 56.95 94.23 56.92 94.12 56.83 93.95 56.57 93.76 56.21 93.6 55.97 93.53 55.88 93.5 55.96 93.47 56.07 93.46 56.17 93.47 56.18 93.41 56.12 93.34 56.05 93.31 55.99 93.33 55.94 93.36 55.88 93.34 55.79 93.23 55.71 93.16 55.64 93.11"/><path class="cls-4" d="M60.51,57.76v2.38l-5.66,0v4.6l-.17.06h-.13l-.19.1-.1.08-.18,0h-.24l-.28.15-.21.14-.21.18-.15.22-.06.23v.25l.1.86,0,.46,0,.31.06.72H51.83l-2.34,0-1.05,0H47.7l-.72,0-.35,0-.16.06-.07.13-.09.22,0,.24v.19l-.07-.45.1-.35.08-.38.07-.25-.07-.43.22-.45.17-.34.1-.08.1,0,.24-.09.07-.23v-.12l.15-.1,0-.38.11-.06,0-.16.12,0,.15-.14v-.12l-.09,0,0-.08.27-.39.14-.28.07-.13.29-.38v-.27l-.16.17-.09.13-.14.16,0-.06.18-.29.23-.22.19-.06.12-.15L49,63.3l.51-.46.36-.35.13-.38v-.36l0-.18,0-.3.1-.18.15-.18,0-.24,0-.16.13-.16.09-.21,0-.18v-.14l.07-.18.21-.07.11-.09.1-.18.22,0,.2-.09.31-.16.21-.16.2-.27.16-.44,0-.23.13-.2.1-.29,0-.18.08-.15h7.75Z"/><path class="cls-4" d="M91,52.2l.07-.07L91,52l-.08-.38-.24-.88-.16-.69-.11-.59-.08-.41-.13-.39-.31-.24-.32-.22-.42-.28L89,47.79,89,47.63l0-.39-.06-.12-.1-.21-.16-.24-.19-.12-.21-.07L88,46.39v-.32l0-.14-.13-.25-.1-.31,0-.2v-.49l.18-.22.28,0v-.26l0-.09.11-.12.2-.15.3-.21.08-.17V43l.07-.11.09-.14.07-.17,0-.13,0-.12-.15-.13V42l.06-.09v-.36l-.09-.16,0-.14,0-.18,0-.2.07-.18v-.28l0-.22L89,40v-.1h-.27l-.06-.08V39.7l.09-.06.19-.12.14-.11.21-.12a.94.94,0,0,0,.1-.14l0-.11-.08-.11h-.15L89,39l-.14,0-.06-.09h-.09l0,.08-.14.06h-.41l-.1-.08-.12-.1h-.12l-.14,0-.08-.09-.18,0,0,0h-.31l.06.09v.09l-.13.1-.13.06-.19,0-.18,0h-.19l-.14,0-.09-.06L86,38.65l-.08-.06h-.24l-.07,0-.09.06,0,0,.06.09,0,.08-.12,0-.17,0-.15.08-.19,0h-.26l-.15.08-.14.09-.16.05-.33,0-.17-.06-.14-.08-.14-.13L83,39h-.2l-.28,0-.13,0-.21,0-.14,0h-.4l-.19,0-.19.06-.12.08-.14.09-.23.05-.13,0-.23,0h-.17l-.13-.07h-.18l-.08,0-.14.06-.16.12a.72.72,0,0,1-.18.1l-.23,0-.13,0,0,0H78.7l-.23.12a1,1,0,0,1-.24,0H78l-.17,0-.24,0-.21,0h-.12l-.13.09-.23,0-.15,0-.12,0-.09.15h-.11l-.1.09-.2,0-.12.08-.22.12-.17,0-.07.09-.09.05-.14.1-.07.12-.08.16-.05.13-.14.11-.16.08h-.14l-.15,0,0-.09V41l-.06,0-.06,0-.15,0,0,.16,0,.06-.11,0-.14,0-.18,0h-.07l-.12.07h-.08l-.07,0h-.07l0,.08-.16.15H73l0,.16,0,.17-.09.1-.11.08-.11,0,0,.06-.13.06-.27.08a.44.44,0,0,0-.07.09l-.12.09-.16.07-.26,0-.29-.06,0,.13.29.17a.85.85,0,0,1,.14.1l0,.12a1.93,1.93,0,0,0,.15.16.59.59,0,0,1,0,.17l0,.19.12.09.07.13L72,44l0,.19.12.28v.29l0,.25-.07.22-.06.09v.1l.21.09,0,.19,0,.14-.13.24,0,.17.15.2.17.2.07.14,0,.1v.16l.12.15.24.22.27.16a1.33,1.33,0,0,1,.16.12.13.13,0,0,1,0,.08l0,.12A1,1,0,0,1,73,48a.93.93,0,0,0-.1.1l0,.13,0,.16.09.12,0,.08-.21,0h-.22l-.35-.06-.28-.11h-.24l-.17,0-.36,0h-.28l-.19.05-.14.13h-.44l-.06.1.14.2.08.16-.12.13h-.2l-.22,0-.19.08-.27.06-.3.07-.09.14v.15l0,.12L68.7,50l0,.13v.32h.08l.08-.07.08,0,.07.16v.11l-.08.14-.12.1-.08.15,0,.14.11.07-.15.11-.23.13h-.37l-.21,0-.16.13-.32.31-.26.21-.35.12-.16.15-.43.4-.49.54-.16.18-.11,0s0-.1,0-.1l-.13-.06h-.19l-.22.05h-.76l-.18.08-.25.06H63.4l-.16,0-.12-.07-.17,0-.2.09-.1.15-.12,0-.15,0-.23.11-.09.14a.54.54,0,0,0-.16.09s-.15,0-.15,0l-.16.07-.17.15-.17.09-.09.06-.21.25-.36.26-.08.11v2.73l1.67,1.12,1.41.87,1.62,1.15L66.77,62l.47.31,1.37.95L71,64.79,72.83,66l1.35.94,1.25.86,1.2.84.16.1.14.11L77,69l0,.15,0,.16,0,.16.06.19h.31l.22.12s.11,0,.12.06a.41.41,0,0,1,.1.09.48.48,0,0,0,.06.11s0,.12,0,.15.08.13.08.13l.11.1.12.07.16,0h.17l.12.07.12-.07.12.07.08.14.1.11.16,0,.19.1.16,0,.06.09.24.16.47.22v.23l0,.31s0,.22,0,.23v.22l-.05.17v.11l.14.16.25.14.28-.09.34-.11.27-.08.32-.07.8-.19L83.88,72l.74-.18.17-.14.31-.25.49-.42.84-.75.91-.76.21-.17.71-.41,1-.65,1.35-.81,1.28-.74L93.1,66l1.46-.91.6-.37-.23-.36-.45-1-.4.07-.2-.1-.36-.24-.09-.21-.12-.14h-.18l-.07.09-.08,0-.06-.11-.21,0-.18.08h-.22l-.1-.16-.14-.17L92,62.36l-.1-.21v-.7l-.22-.27-.36-.46L91,60.24,90.82,60l-.08-.21.12-.12,0-.11.07-.16.24-.06.17,0,.25-.08V59l0-.39,0-.21-.11-.27,0-.47.17-.53.06-.38.08-.22,0-.12-.16-.21,0-.35.06-.49.11-.44,0-.44-.1-.59-.29-.66L91,52.79l-.19-.31v-.19L91,52.2"/><path class="cls-4" d="M71.24,42.62l0,.13.29.17a.85.85,0,0,1,.14.1l0,.12a1.93,1.93,0,0,0,.15.16.59.59,0,0,1,0,.17l0,.19.12.09.07.13L72,44l0,.19.12.28v.29l0,.25-.07.22-.06.09v.1l.21.09,0,.19,0,.14-.13.24,0,.17.15.2.17.2.07.14,0,.1v.16l.12.15.24.22.27.16a1.33,1.33,0,0,1,.16.12.13.13,0,0,1,0,.08l0,.12A1,1,0,0,1,73,48a.93.93,0,0,0-.1.1l0,.13,0,.16.09.12,0,.08-.21,0h-.22l-.35-.06-.28-.11h-.24l-.17,0-.36,0h-.28l-.19.05-.14.13h-.44l-.06.1.14.2.08.16-.12.13h-.2l-.22,0-.19.08-.27.06-.3.07-.09.14v.15l0,.12L68.7,50l0,.13v.32h.08l.08-.07.08,0,.07.16v.11l-.08.14-.12.1-.08.15,0,.14.11.07-.15.11-.23.13h-.37l-.21,0-.16.13-.32.31-.26.21-.35.12-.16.15-.43.4-.49.54-.16.18-.11,0s0-.1,0-.1l-.13-.06h-.19l-.22.05h-.76l-.18.08-.25.06H63.4l-.16,0-.12-.07-.17,0-.2.09-.1.15-.12,0-.15,0-.23.11-.09.14a.54.54,0,0,0-.16.09s-.15,0-.15,0l-.16.07-.17.15-.17.09-.09.06-.21.25-.36.26-.08.11v2H52.76l.1-.17.11,0,.11-.16.12-.22.12,0,.3-.07.28,0,.22-.09.19,0,0,.17.1-.08.06-.1.12,0,.14-.1.29-.1.22-.07.23-.09a.93.93,0,0,0,.18-.13l.15-.2.14-.2.21-.09.12-.07.07-.14.17-.08.26-.08.33-.14.29-.33.31-.41.23-.23.15-.32.14-.2.23-.17.15-.31.12-.32s.07-.29.07-.32,0-.24,0-.24l-.16-.21-.08-.09-.06-.09h-.16l0-.15.13-.15,0-.13-.08-.08v-.38a.55.55,0,0,1,0-.12s.12-.26.12-.26L58.45,50v-.13l.21-.24,0-.2,0-.11L59,49l.2-.21s.11-.22.13-.25,0-.13,0-.13l0-.22.09-.12,0-.07,0-.12v-.14l0-.12.32-.31.25-.24.37-.33.16-.26.09-.24.19,0,.12-.09L61,46l.23,0,.65-.3.55-.25.54-.33.41-.38.38-.43.36-.64.29-.75.25-.65.16-.46.12-.36,0-.2h.26l.07-.1h.55l.11.12.09.12v.15l0,.11.09.1.2.07.08.15.17.17.24.16.25.16.34,0,.24,0,.22-.09h.25l.15-.06.09,0v.08l.19,0,.11,0v-.09h.11l.1.09.2.05h.24l.23-.06.09-.09h.1l.12-.19,0-.07v0l0,.21v.17l.1.1.11.11.12,0,.13,0,.18,0h.11l.14-.09H71l.13.05Z"/><path class="cls-4" d="M94.32,46.52v.35l-.06.33.06.4.12.17,0,.14-.18.16-.14.06-.29.11-.32.12-.27.23,0,.12-.09.14h-.18l-.09.12,0,.11-.1.14-.16.09h-.17l-.13.15,0,.13L92,49.7V50l.22.24,0,.6-.08.31-.22.45-.37.35-.22.1-.31.09L91,52l-.08-.38-.24-.88-.16-.69-.11-.59-.08-.41-.13-.39-.31-.24-.32-.22-.42-.28L89,47.79,89,47.63l0-.39-.06-.12-.1-.21-.16-.24-.19-.12-.21-.07L88,46.39v-.32l0-.14-.13-.25-.1-.31,0-.2v-.49l.18-.22.28,0v-.26l0-.09.11-.12.2-.15.3-.21.08-.17V43l.07-.11.09-.14.07-.17,0-.13,0-.12-.15-.13V42l.06-.09v-.36l-.09-.16,0-.14,0-.18,0-.2.07-.18v-.28l0-.22L89,40v-.1h-.27l-.06-.08V39.7l.09-.06.19-.12.14-.11.21-.12a.94.94,0,0,0,.1-.14l0-.11-.08-.11,0,0,.15,0,.18,0,.07-.05.12-.1.07,0,.08-.11.07-.1.14,0,.13-.1,0,0,.09,0,.14,0,.12,0,.12-.07.23,0,.19,0h.19l.09,0,.1,0,.11,0,.12.07.09.08,0,.09.08.09,0,.06-.06.08v.09l.09.09.19.08.05.08,0,.11,0,.11.07.09.13,0a.43.43,0,0,0,.11,0l.08-.08.08-.12.06-.1h.09l.1,0,.13,0,.09-.06.05-.11,0-.08.14-.06h.11l0,.06v.09l0,0,.05.16s0,.15,0,.18l-.06.08-.16.12-.05.07-.07.13,0,.08-.06.21h-.08l-.17.09-.25.11-.06.16-.07.18,0,.36.09.11.11.2.09.15.15.07.15.1.19.11s.16.09.16.11v.16l0,.06,0,.1v.13l-.05.12.19.21-.07.07-.11.13,0,.25h0l-.12.06v.26a.76.76,0,0,0-.07.13.36.36,0,0,0,0,.07l0,0,0,0-.18.06-.06,0-.07.07,0,.07-.08.11h0l-.15,0-.09.09V44h-.25l-.05.1-.11,0,0,.12,0,.07-.07.11-.07.3,0,.18a1.31,1.31,0,0,0,.09.17l.13.11.18.18.19.16.09,0,.08,0,0,0,.14,0,.1-.05,0-.06h0l0,0,0,0,0-.06v-.11l.18-.13h.21l.09.07,0,.15,0,.1h-.05l-.1.09,0-.17h-.1l-.05,0h0l0,.07v.21h-.14l0,.07.1,0,.11,0,.21-.06.12-.07v-.15l.18,0,.09.11v.35l0-.05,0-.1h-.08l0,.05,0,0,0,0-.08.14.07,0v.12l.1-.14h.22l.08,0,.1.1h-.23l-.12,0v.07l.14,0,0-.09.09.11.1,0,.12,0h.13l.06,0L94,46.3l.17.11.11.08"/><path class="cls-4" d="M155.49,142.15l-.17.72-.16.79-.08.44-.19.37v.38l-.16.35-.14.36-.18.25v.29l-.13.18-.06.21v.17l-.1.19H154V147l-.15.18h-.23l-.14.17h-.82l-.36.22-.39.21-.29.23-.43.08-.39.06-.14-.14-.18-.05-.18-.17-.24-.15-.38-.07h-.24l-.08-.16.12.06.06-.06-.11-.09-.18-.06-.26-.13-.1-.12-.06-.2-.09-.17v-.2l-.12-.18-.25-.22-.11-.12-.06-.3.05-.23-.1-.32v-.47l.13-.11.07-.11,0-.17-.17-.15,0-.24v-.3l-.16-.17-.27-.38-.1-.47-.06-.44h.15V142l-.14,0v-.17l.11-.25v-.08h.11l0-.23.12-.13,0-.1,0-.21,0-.14,0-.17.15-.09h.3l.09-.12.08-.19.09-.27.05-.19,0-.12h.11l.05-.12.15-.28.14-.13.11-.09,0-.08-.11,0,.16-.17.12-.12.09-.17.06-.16v-.16l-.09-.09,0-.11,0-.13.09-.1,0-.12.05-.09-.08-.1-.16-.24-.15-.26,0-.19,0-.11,0-.23,0-.2.11,0-.07-.13h-.1v-.2l-.13-.17-.1-.09v-.13l0-.12,0-.17-.07-.18,0-.1v-.07l.06-.11v-.22l0-.16-.1-.2,0-.12.06-.25.2-.22v-.18l.23-.23.16-.31.15-.14v-.23l0-.19-.06-.15-.06-.15.09-.17,0-.09h.31l.15.07h.18l.2-.11.22-.15.11-.11.18-.08.05.1,0,.13.05,0,.14-.07v-.14l.23-.06.09,0v.09l.06,0,0-.16,0-.16.11-.09H152l.1.08.1.06.14,0,0-.12h-.09l.1-.09h.27l0,.14v.14l.08.11.08.07,0-.11.07-.06,0-.07-.06,0h-.06v-.1l0-.13v-.07l.19-.16.19-.11.29-.17.07-.11.21-.13h.11l.06.11.06.09,0,.09-.08.08,0,.17-.05.1v.08l.13,0,0-.16,0-.08.17,0,.1-.06.05,0-.06-.09v-.13l-.15,0v-.14l.07-.11.15-.09.1-.16.06-.08h.15l.06-.11h-.18l.11-.19.16-.11,0,.09v.15l-.07.13,0,.1,0,.14.08.06.11-.08.09-.15.1-.13.07-.11,0-.13.14-.17h.1l0,.07.08.05.06-.12v.31l.15-.06V129l-.07-.15h-.24l-.06-.07h-.11l-.06-.16v-.09l.06-.14,0-.14h.24l.06-.12-.1-.07,0-.06.17.06v.13l0,.1v.07h.12v-.11s0-.05,0-.08,0-.21,0-.21l-.07-.08h-.1l.09-.18-.11-.09-.07-.12v-.08l.13-.11-.08,0v-.09l.07-.08h.08l.07.07v-.14l.06.1h.11v.16l.12.14.07,0h.08l.07-.16.21,0v-.07l-.21,0,0-.11h.23l.05-.08v-.12l.11-.08h.28l.12,0v-.48l.14-.1,0-.19v-.22l-.07,0v-.13l-.09-.06,0-.1-.12-.07-.07-.08,0-.07h.22l.06.06h.06l.07-.18.1-.07.12-.08h.09v-.14l-.07-.09v0h.07l.07-.07v-.09l.08-.07h.06v.14l.07.07,0,.11-.11.06h-.09v.09h.13l.07,0,.19.06v.2l.06,0,.12,0-.09.11,0,.12.06.06v.09l.09.07v.18l.14-.1.07.15,0,0,.14,0v.12l.11.13.07.14v.51l.1.18.1.17.07.19v.29l.05.41v.62l.1.2v.22l.07.23.18.29.13.26.05.2-.05.26-.1.29-.1.27-.1.12,0,.14-.21-.08L159,131l-.14-.2,0-.17v-.12l-.1-.08-.06-.17-.11.06h-.12l-.1.15,0,.21.07.17,0,.15v.3l0,.13.14.07.07.06v.26l.06.09,0,.27-.08.13-.12.12-.07,0,.11.14.13.05,0,.16-.15,0-.25,0-.1.15-.07.24,0,.09,0,.18v.2l.12.27v.24l0,.35-.09.28-.1.32-.21.48-.22.69-.16.46-.22.77-.15.46-.15.4-.15.36-.16.37,0,.24-.12.26v.2l-.11.27-.1.2-.09.38L156,141l-.11.15-.09.17,0,.19-.06.17-.08.2-.08.14Z"/><path class="cls-4" d="M158.66,133.11l.08-.12.15-.28.09-.15.05-.05s0-.09,0-.09a.68.68,0,0,0-.15.08l-.07.18-.12.21-.05.08Z"/><polygon class="cls-4" points="156.15 126.53 156.17 126.73 156.16 126.89 156.09 126.89 156.03 126.89 155.95 126.83 155.9 126.79 155.9 126.73 155.94 126.71 155.9 126.64 155.94 126.58 155.98 126.58 156.02 126.63 156.04 126.56 156.04 126.5 156.09 126.5 156.15 126.53"/><line class="cls-7" x1="45.72" y1="107.97" x2="200.99" y2="106.69"/><text class="cls-8" transform="translate(171.19 104.33) scale(1.05 1)">KENYA</text></g></g></svg>