<svg xmlns="http://www.w3.org/2000/svg" viewBox="0 0 203.72 213.14"><defs><style>.cls-1{fill:#fff;}.cls-2,.cls-4,.cls-5,.cls-7{fill:none;}.cls-3{font-size:6.7px;stroke-width:0.5px;font-family:MyriadPro-Regular, Myriad Pro;}.cls-3,.cls-8{fill:#231f20;}.cls-3,.cls-5,.cls-7{stroke:#151515;stroke-miterlimit:10;}.cls-4{font-size:5.44px;}.cls-4,.cls-8{font-family:Bauhaus93, "Bauhaus 93";}.cls-5{stroke-width:0.25px;}.cls-6{fill:#b82025;}.cls-7{stroke-width:0.75px;}.cls-8{font-size:9.98px;}</style></defs><title>Asset 1</title><g id="Layer_2" data-name="Layer 2"><g id="Layer_1-2" data-name="Layer 1"><circle class="cls-1" cx="101.86" cy="101.86" r="101.86"/><rect class="cls-2" x="0.13" y="1.2" width="203.46" height="211.93"/><text class="cls-3" transform="translate(155.45 105.05) scale(1.29 1)">00</text><text class="cls-4" transform="translate(180.18 105.3) scale(1.24 1)">KENYA</text><path class="cls-5" d="M54.15,93.38v0l.11,0,0,0,0,0,.08,0v0l-.11,0-.08-.06-.07,0v0h.12l.09,0,.26.1.21.09h.07l-.25-.1-.22-.15v0l.29.2.09-.06,0,.1.26.11v-.09l0,.13.17,0,.18.17,0-.19-.15-.11v-.13l.19.16,0,.12,0-.06v.29l.14.12.07-.07.08-.1L56,94v-.12l.06-.09.18-.09.11-.07.1,0,.14-.07.08-.11.08-.12.1,0,.11-.11L57,93l.2-.17v-.23l-.08-.08,0-.11h.14l.11-.09.15-.06.18,0v-.29l.05-.07.08-.08v-.1h-.32l-.06.08-.18.22h-.06l-.13,0v-.18l.08-.12.07-.12.14-.15-.09-.09-.07-.08v0l-.1-.14v-.18l-.06-.08-.1,0v-.06l.08-.12.07-.12v-.09l-.06,0L57,90.2l-.09-.06L56.8,90l-.1-.2-.13-.2-.09-.14-.17-.17-.11-.1-.2-.08-.17,0-.17,0h-.42l-.17,0-.1.12-.11,0h-.48l-.1,0-.11.09-.17.18-.07.15,0,.11s0,.1,0,.1l-.09.12-.09.11-.1.08-.06,0-.08.07-.08.11,0,.09-.08,0h-.07l-.11.06-.1,0h-.21l0,.08V91h.12v0l.08-.07h.14l.05,0,0,0H53v.07h.38v.07h-.28l0,0v.11l-.06,0v0H53l0,0,0,0v-.1h0l0,0v.09l0,.1,0,.06,0,.05v.06l0,.06,0,.11H53v-.1l-.06,0,0-.07.11,0,0,.07h.21v.09h-.15l0,0-.06.05,0,.09.09.07v.06H53.1L53,91.82H52.9V92l.1.11v.12l.09-.08h.16l0,0,.16-.06v.07l-.12.08.16.21a1.47,1.47,0,0,1,0,.21l.07.08,0,0-.06,0h-.08l0,0,.16.19h.13l0,0,0,.06H54l.1-.11.07,0h.08s0,.11,0,.11h-.1l-.07.07v.11H54l-.06-.06h-.11l-.1.05,0,.11.05.11.16,0,.12.12.06-.13v-.19l0,0,.05,0v.11Z"/><path class="cls-5" d="M61.8,88.94v-.17l-.06,0-.15-.07-.12-.08-.09,0-.1,0,0-.08,0-.11,0-.1v-.52l-.07-.11L61,87.51l-.1,0-.1,0-.07.11-.09,0-.06,0,0-.07,0-.08.1-.11V87.3l.08-.1.08-.06.12,0S61,87,61,87v-.09l-.06,0-.11-.08-.16,0-.11,0,0-.08,0-.11-.07,0-.17,0s-.05-.1-.05-.1l0-.08,0-.07,0-.11,0-.13,0-.09-.09-.08h-.06l-.05,0v-.06l0,0a.64.64,0,0,0,0-.07s0-.06,0-.06l-.08,0s0-.08,0-.08l.06-.08L60,85.21l-.21-.09L59.64,85h-.35s0,0,0,0l.11.05a1.33,1.33,0,0,1,.06.12l0,.1h-.22l-.14,0-.12.07-.12.14a.52.52,0,0,0,0,.11s0,.14-.06.14l-.07.09-.08-.09-.11-.1-.16-.09-.15-.08L58,85.53l-.21,0h-.19l-.11.06-.09.07-.09.16a1.34,1.34,0,0,1-.07.18l-.09.09-.07,0L57,86l0,0,0-.08s0-.11,0-.12a1.27,1.27,0,0,0-.07-.12l-.09-.06-.08,0-.11,0-.07.09-.07.1a.53.53,0,0,0-.06.1l0,.07-.11.07h-.1l-.07,0,0-.09-.11-.09-.08-.09,0,0,0-.09,0,0,0-.12,0-.08.07-.08,0-.11,0-.06h-.31l-.14.15h-.29L55,85.07h-.24l-.11,0-.2.1H54.3l-.13-.09-.06,0L54,85.2l-.14-.07-.13,0L53.58,85l-.07,0-.15,0,0,.07h-.13l0-.08,0-.2-.23,0-.09.07-.12,0-.43,0h-.12l-.08.07,0,.17,0,.12v.06l0,.13,0,.09H51.9l-.06,0-.05,0-.07,0v.23l.31.17,0,.46-.36.16-.49,0-.2.12-.25.15h-.29l-.11.16V87l-.07.14-.1.14,0,0v.07l-.1.11v.08h0v0h.14l.06-.07v-.13l.07,0v.14l0,.09-.24.14v.14l.15-.16v.07l-.08.1v0l.17-.12h0l-.22.16v.06l.05,0,.21-.19,0,0-.13.1v0l.09,0,.15-.12,0-.09.05,0h0l.06,0v0l-.1,0-.12.17,0,.07,0,.06v.1l0,0,.08,0v.08h0v-.06h-.06l0,.07v.08l.06,0h.06v-.09h0v0h0l0,0,0,.06,0,.06.05.06v.18H51l.13.11.07.07.14.06,0,0h0V88.9h.06l.22.19,0,0-.12-.1-.06,0,0,.08.12.08.1,0h.05l.08.08,0,.06.07,0,.07,0,0-.13,0,0,.14.07v0h0l0,.13.06,0,0,.12h-.05l0,.16-.06.11,0,.07h.14l.15,0,.09,0,.09.1v.1l0,0-.06,0v.13h0v0l.08-.07h0l-.06.08,0,.09,0,0v-.07l0,0,0,.09,0,0,0,0h0l0,0h0l0,0h.05v0l-.07,0v.09H53l0,0-.13,0-.07.11H53l.1,0,.11-.06h.07l.08,0,0-.09.08-.11.08-.07.06,0,.1-.08.09-.11.09-.12s0-.1,0-.1l0-.11.07-.15.17-.18.11-.09.1,0h.48l.11,0,.1-.12.17,0h.42l.17,0,.17,0,.2.08.11.1.17.17.09.14.13.2.1.2.1.11.09.06.12.06.06,0v.09l-.07.12-.08.12v.06l.1,0,.06.08V91l.1.14v0l.07.08.09.09-.14.15-.07.12-.08.12v.18l.13,0h.06l.18-.22.06-.08h.49l.09.14h.11l.08-.13.23,0,.11,0,.18.1H59l0-.07.06.1v.09l-.08,0v.15l.06.09v.25l.12.07v.27l.11.1V93l0,.13v.11l-.11.11,0,.14h.2l.2.14.08.05.06.21.21-.13h.19l.17-.25.1-.16v-.28h.14l.12.14.09.11.05.07v-.16l.16-.12h.16l.14.09.16-.2-.05-.36.28-.23-.22-.16-.2-.13v-.46h.1l.12,0,.08,0,.13,0,.16.16L62,91.7l0,.13.11,0,.06-.22-.11-.19L62,91.23l-.26-.1v-.27l.15-.12.23,0-.1-.17-.19-.09v-.1l0-.24-.42,0L61.41,90l0-.17.07-.15,0-.21-.07-.09v-.13l.09-.1.06-.06.08-.09Z"/><polygon class="cls-5" points="49.78 87.67 49.85 87.61 49.97 87.61 49.97 87.67 49.9 87.71 49.9 87.81 49.81 87.81 49.8 87.73 49.78 87.67"/><polygon class="cls-5" points="52.13 84.69 52.05 84.76 52.09 84.93 52.12 85.05 52.11 85.11 52.09 85.24 52.05 85.33 51.9 85.33 51.84 85.28 51.79 85.33 51.72 85.37 51.72 85.44 51.72 85.6 52.03 85.77 52.01 86.23 51.65 86.39 51.16 86.41 50.96 86.53 50.71 86.68 50.42 86.69 50.3 86.84 50.3 86.96 50.24 87.1 50.14 87.24 50.08 87.32 49.97 87.38 49.91 87.5 49.75 87.56 49.66 87.44 49.91 87.25 49.93 87.16 49.91 86.98 49.88 86.99 49.84 87.14 49.78 87.22 49.7 87.25 49.6 87.25 49.58 87.11 49.46 87.08 49.3 87.05 49.23 87.05 49.27 87.11 49.35 87.15 49.46 87.16 49.46 87.3 49.31 87.28 49.23 87.16 49.2 87.08 49.16 86.96 49.31 86.84 49.36 86.73 49.36 86.65 49.22 86.81 49.11 86.91 49.05 86.94 49.05 86.76 49.23 86.6 49.36 86.52 49.46 86.49 49.6 86.5 49.67 86.52 49.72 86.58 49.88 86.54 49.7 86.45 49.63 86.39 49.38 86.39 49.13 86.58 49.13 86.44 48.95 86.3 48.95 86.23 49.06 86.2 48.95 86.1 48.74 86.09 48.55 86.12 48.38 86.12 48.23 86.12 48.14 86.17 48.04 86.2 47.83 86.1 47.67 86.1 47.67 86 47.7 85.9 47.81 86.02 48.06 86.04 48.22 86 48.38 86 48.55 85.92 48.63 85.83 48.47 85.83 48.29 85.91 47.94 85.91 47.87 85.96 47.79 85.87 47.79 85.79 47.67 85.78 47.63 85.81 47.59 85.73 47.59 85.61 47.83 85.42 48.01 85.34 48.17 85.32 48.31 85.39 48.42 85.5 48.54 85.47 48.42 85.36 48.28 85.27 48.08 85.23 47.91 85.3 47.73 85.39 47.62 85.46 47.59 85.5 47.4 85.49 47.05 85.2 47.46 85.22 47.69 85.13 47.86 85.04 48.03 85.03 48.28 85.04 48.45 85.09 48.65 85 48.8 84.98 48.96 84.99 49.11 84.97 49.27 84.84 49.41 84.72 49.54 84.69 49.68 84.69 50.16 84.69 50.73 84.69 51.21 84.69 51.69 84.69 52.13 84.69"/><polygon class="cls-5" points="48.9 86.61 48.99 86.58 49.04 86.55 49.04 86.46 48.95 86.46 48.92 86.48 48.82 86.5 48.8 86.56 48.84 86.62 48.9 86.61"/><polygon class="cls-5" points="48.65 87.23 48.67 87.14 48.76 87.12 48.76 87.04 48.65 87.04 48.56 87.12 48.56 87.23 48.65 87.23"/><path class="cls-5" d="M47.86,87.17a.7.7,0,0,1,.06-.09l0-.07-.12,0,0,.08,0,.08Z"/><path class="cls-5" d="M47.77,84.82l-.14,0-.05,0-.12-.06h-.1l-.15-.09-.08,0,0,.06-.13.07h-.08v-.13L47,84.6h.13l0,.05.09,0v-.09l.07-.12,0-.12h-.07l0,.13-.07.06,0,.06h-.26v-.08l.07-.14,0-.16V84l.21-.08h1.19l.17-.14.17-.17.22-.15.24-.08h.34l.21,0,.32.06.19.08.18.11h.17l.27.09.22.09.23,0,.21-.12h.16l.14-.08,0-.24-.08-.12-.19,0-.36.11-.15.08-.25,0,0-.15-.1-.11-.19,0-.13,0-.17-.18-.1-.07-.18,0-.17,0-.18.07-.24,0-.09.12-.15.18-.17,0-.4,0-.43,0-.38,0-.37,0V83l.09-.1,0-.16,0-.12,0-.11-.08,0,0,.07v.05h.08v.12l0,.08-.1.09-.06,0v-.12l.08-.1,0,0v0h-.07v-.13h.05l0-.1-.07-.06-.07,0-.09,0v0l.09,0v.06l.08,0,0,.09,0,0v0l0,0v0h0l0,.06-.05,0v-.33l-.08-.11,0-.09,0-.11-.09-.11-.09-.16-.12-.07-.08-.15,0-.08-.09-.09-.14,0-.1,0-.12-.08v-.07h.09l.14,0,.13-.05.09-.09,0-.09.1,0,.15-.16.17-.26L47,80l.17-.27.17-.37,0-.22V79l.13-.12v-.16l.13-.12,0-.12,0-.13,0-.13.11-.07.1,0,.14,0,0,.08h.1l.06-.07h.27l.08.07.07,0,.11,0,0,0,.06,0h.59s.07,0,.07,0h.14l0-.14.1,0,.16,0h.19l.09,0h.53L51,78a1.2,1.2,0,0,0,.12.11l.11,0,.09,0,.09.1.14.15.08.08.14.21.08.1.23,0,.05,0h.19l.18.06.1.08.1.16.08.15.07.18a1.39,1.39,0,0,0,.06.13,1.27,1.27,0,0,0,.1.12l.08.06,0,.08,0,.06h.12l.07,0,0,.08.05.12,0,.15.13.11.14.1.17.15.18.11.21.15.15.13.1.09.08.07v0l0,.08v.08l-.08.09,0,.11v.14l.08.16.13.12.14.08.11.08v.34l0,.12,0,.21-.11.13v.2l.09.08,0,.07v.19l.05.07.06,0,.06-.08.06,0h.09l.11.1.1.11.09.19.08.27.08.27v.19l0,.23-.05,0v.05l0,0,.07.06h-.31l-.14.15h-.29L55,85.07h-.24l-.11,0-.2.1H54.3l-.13-.09-.06,0L54,85.2l-.14-.07-.13,0L53.58,85l-.07,0-.15,0,0,.07h-.13l0-.08,0-.2-.23,0-.09.07-.12,0-.14,0H52.4l-.27,0H49.54l-.13,0-.14.12-.16.13L49,85H48.8l-.15,0-.2.09-.17,0h-.42l-.17.09-.23.09-.41,0-.17,0V85l.22-.08,0-.08h.09l0,.14.11.17,0-.13-.06-.14,0,0h.38Z"/><polygon class="cls-5" points="47.29 83.12 47.66 83.14 48.04 83.11 48.47 83.14 48.87 83.17 49.04 83.13 49.19 82.95 49.28 82.83 49.52 82.85 49.7 82.78 49.87 82.76 50.05 82.81 50.15 82.88 50.32 83.06 50.45 83.04 50.64 83.01 50.74 83.12 50.79 83.27 51.04 83.31 51.19 83.23 51.55 83.12 51.74 83.17 51.82 83.28 51.79 83.52 51.65 83.6 51.49 83.61 51.28 83.73 51.05 83.75 50.83 83.66 50.56 83.56 50.38 83.56 50.21 83.45 50.02 83.36 49.7 83.31 49.49 83.34 49.15 83.34 48.91 83.42 48.69 83.56 48.52 83.73 48.35 83.88 47.49 83.88 47.16 83.88 46.95 83.96 46.91 83.86 46.91 83.72 46.83 83.63 46.89 83.5 46.95 83.36 47.04 83.36 47.14 83.36 47.22 83.27 47.29 83.12"/><path class="cls-5" d="M79.67,95.25v-.19l0-.16.06-.14s0-.09,0-.13-.11-.16-.11-.16v-.19l0-.06,0-.12,0-.17,0-.29.1,0-.08-.22,0-.26v-.9l0-.49,0-.59,0-.22.31,0,.21-.11.14-.15.07-.27,0-.23.14-.2.08-.2,0-.14.18-.08.11-.1.06-.14,0-.17,0-.17,0-.06.13-.14s0-.13,0-.13a.56.56,0,0,1,.13,0l.15-.12v-.22l-.08-.19-.08-.17,0-.2,0-.16-.11-.21-.12-.18L81.09,87v-.21l0-.15,0-.11.1-.19-.15-.07-.17-.15-.25-.19-.21-.21-.34-.25L80,85.26l-.26,0-.09.13-.12,0-.16.08h-.24l0,.19,0,.25-.07,0-.07.13-.08.2,0,.14-.08.13-.09.1-.12,0,0,0-.1.12h-.11l-.12,0H78.1l-.11,0-.09,0h-.05l-.1,0-.08,0h-.11l-.11,0-.07.08,0,.13h-.06l-.13,0-.08.06,0,.09-.07.06v.21h-.08l0-.1-.06,0-.09.08v.14l-.06.14,0,.08,0,.11-.07.14v.4l0,.15.1.09.12.12.11,0L77,89l.16.09.12.05.09.09.06.12V90l0,.18,0,.15.05.16.15.14.08.11.06.11,0,.21,0,.41V92.7l0,.51v.69l0,.13-.1.25,0,.23.1.26L78,95l.06.18.06.26.2,0,.32,0,.31,0,.32,0,.3,0h.11Z"/><path class="cls-5" d="M78.11,95.45l-.06-.26L78,95l-.07-.24-.1-.26,0-.23.1-.25,0-.13v-.69l0-.51V91.42l0-.41,0-.21-.06-.11-.08-.11-.15-.14-.05-.16,0-.15,0-.18v-.59l-.06-.12-.09-.09-.12-.05L77,89l-.14-.1-.11,0-.12-.12-.1-.09,0-.15v-.4l.07-.14,0-.11,0-.08.06-.14-.14,0-.17,0-.15,0-.15.08L76,87.58l-.13,0H75.7l-.14,0h-.12l-.08,0h-.22v.09l0,.09-.07.11,0,.12v.35l.1.07.07.06.07.09,0,.1,0,0h.15s0,.07,0,.08l.14,0,.08,0,0,0,0,.11v.19l0,.18v.45l0,.12L75.6,90l0,.09,0,.06h.09l.08,0,.18,0,.1.06,0,.11,0,.14L76,90.6l0,.05,0,.1v.15l.05.12v.08l0,.11-.06.06h-.08a.28.28,0,0,0,0,.08l.07.12.1.12.1,0,.1.13.1.14.06.12v.09l-.08.06-.06.08,0,.13v.33l0,.25,0,.15-.1.16,0,.12,0,.13.09.08.08.07v.14l-.07.23,0,.14-.11.1,0,.12.06.16,0,.17.09.15.2.21.1.14.14.08.14,0,.09.07.1.13.12.09.19,0,.26,0,.23,0,.22,0Z"/><path class="cls-5" d="M70.47,90.28l.06-.13L70.47,90s-.06-.06-.06-.08,0-.13,0-.13l0-.13,0-.12,0-.09,0-.2,0-.06-.07-.1V89l0-.12,0-.06-.06-.08,0-.11,0-.07,0-.07-.09-.1-.06-.28,0-.16.07-.16,0-.07.08-.11.09,0,.22,0h.41l.26,0h1.1l.36,0,.35,0h.74l.13.1.08,0a.44.44,0,0,1,.07-.08l.13-.09.06-.06,0,0v.18l0,0,.08-.06,0-.06.06-.06.08,0h.09l.09.08,0,.06H75l.11,0v.09l0,.09-.07.11,0,.12v.35l.1.07.07.06.07.09,0,.1,0,0h.15s0,.07,0,.08l.14,0,.08,0,0,0,0,.11v.19l0,.18v.45l0,.12L75.6,90l0,.09,0,.06h.09l.08,0,.18,0,.1.06,0,.11,0,.14L76,90.6l0,.05,0,.1v.15l.05.12v.08l0,.11-.06.06h-.08a.28.28,0,0,0,0,.08l.07.12.1.12.1,0,.1.13.1.14.06.12v.09l-.08.06-.06.08,0,.13v.33l0,.25,0,.15-.1.16,0,.12,0,.13.09.08.08.07v.14l-.07.23,0,.14-.11.1,0,.12.06.16,0,.17.09.15.2.21.1.14.14.08.14,0,.09.07.1.13.12.09,0,0,0,.08-.11,0a.56.56,0,0,1-.13,0h-.11s-.06,0-.05,0,0,.1,0,.1l0,0v.08s-.08,0-.08.06a.22.22,0,0,0,0,.05l0,0,.07,0,.09-.09v-.15l0,0v.19l-.06.1-.12,0h-.13l0-.07V96h0l0,0h0s0,0,0,0h-.14v.09l0,0,0,0v0l0,.09h-.18l-.08-.13,0,.06h0l-.15,0h-.07l-.09.07h-.08l-.16,0H75.4l-.05,0,0,.06-.19.09-.09.09h-.12l-.18.11-.08.07h-.12l-.12.07-.16.13L74,97l-.14.12-.18.12H73.4l-.19.07-.18.09-.14,0h-.14l-.19.06-.14,0-.19.14-.21.12-.07,0-.13.08-.09,0h-.12l-.12-.07-.11-.05-.07-.1-.1-.07L71,97.58l-.21,0-.22-.07-.21,0,.1,0,.06-.06.06-.21,0-.17,0-.16-.06-.16-.11-.09-.12,0-.1-.11L70,96.34,70,95.88l-.06-.28-.09-.18,0-.2-.07-.16-.06-.14v-.43l.15-.12.17-.18L70,94l0-.12,0-.47.07-.18,0-.21.07-.15.17-.26.15-.15,0-.07.19-.24V92l-.08-.29,0-.19-.05-.16-.11-.16V91l-.19-.07-.05-.13v-.1l.08-.08.06-.07v-.06l-.06-.09Z"/><path class="cls-5" d="M130.72,129.06l-.17-.07,0-.14-.07-.16-.1-.12v-.11l-.11-.09h-.18l.11-.13.22-.12.05-.16.07-.29v-.23l.13-.18,0-.1-.1-.07-.12-.12.08-.2.1-.15.12,0,.08.08.08,0s.09-.08.09-.08l.1-.07h.1l.1-.07.07-.12.15-.07v-.07h-.22l-.16-.11-.05-.26v-.17l.1-.16,0-.21-.07-.2-.08-.14,0-.25,0-.13.14-.15.07-.21-.14-.24-.11-.12,0-.17.2,0,.2-.08.15-.08.07-.21v-.15l-.11-.13-.07-.09v-.28l-.09,0-.14,0-.09-.11-.06-.16,0-.14,0-.08,0-.09-.09-.06a.73.73,0,0,1-.09-.13s0-.14,0-.14l-.05-.07h-.1l0,.07,0,.11-.09,0-.06-.13v-.07a1.1,1.1,0,0,0,0-.16l-.19-.14-.13-.12,0-.05.12.06.22,0,.16.06.11.09.08,0h.1l.17.05.07.08.1.08h.39l.11.06.23.11,0,.1,0,.18.05.14.06.13,0,.11.08.11.1.15.09.08.09,0,.06.09V123l-.05.06,0,.12v.17l0,.19,0,.2v.65l0,.11,0,.11v.16l.05.1,0,.13v.14l-.09.11-.08.11-.09.06v.15l0,.09-.08.08-.06.09,0,.11v.23l0,.1,0,.07.07,0,.08.08,0,.09v.11l0,.1,0,.06.06.06,0,.21.05.1,0,.1v.14l0,.09v.21l0,.1,0,0V128l0,.08.07,0,0,.1a.62.62,0,0,1,0,.1l.12.05.1,0,.07.07.05.06,0,.08v.29l-.08.12,0,.07v.1l0,.09.05.08,0,.08.1.06.11,0,.08,0v-.22h.07l.12,0,.1.05.07,0,.08.05,0,.06.07.1,0,.07.1.08h.09v-.07l-.09-.2v-.44l-.1-.19,0-.11-.06-.07-.12,0-.24,0v-.36l.22.23.52.6.32.4.28.33.24.25.13.19,0,.17v.16l.06.11,0,.1-.15.13-.06.11,0,.16,0,.13.06.14,0,.18-.05.25,0,.24,0,.17v.2l-.18.13-.15.11-.11.05-.17-.07-.11,0-.15.11,0,.18v.19l0,.1-.14.11,0,.12.08.11.09.1.07.14v.42l0,.16h-.16l-.15,0-.12-.17.07-.11.13-.06,0-.13s0-.14-.08-.15l-.2,0-.16-.11-.13-.17-.34-.25-.13-.17-.06-.17-.22-.08,0-.18,0-.17-.13-.11-.08-.09v-.1l.2-.15.13-.09v-.13l0-.21.08-.11.13-.12.07-.07,0-.25,0-.34v-.23l-.1-.11,0-.22-.05-.2-.15-.07-.06-.14-.21-.06-.22.1-.19.07-.22,0-.18,0-.18-.06-.09.1-.16-.06-.09-.15-.2-.27-.17-.23L131,129l-.23.05"/><path class="cls-5" d="M127.72,143.56l.13-.13.51-.53.75-.78.33-.41h.26l.05-.08-.24-.14v-.14l0-.12.15-.16.06-.15v-.33l0-.27.1,0,.15,0,.1-.21.18-.33,0-.14.1-.06.1-.14.11-.3-.08-.21-.17-.13-.13-.07v-.19l-.06,0,0-.12.07-.17.09-.17,0-.19-.11-.16-.19-.14,0-.11,0-.14h.13l.16,0,.09-.07,0-.08-.05-.1-.1-.11-.05-.13.14-.18.07-.08v-.54l0-.56v-.19l-.07-.13,0-.08,0-.12.06-.14s0-.12,0-.14v-.15l-.09-.15-.08-.14-.11-.16.14-.08,0-.08-.1-.07,0-.09-.16,0-.08-.17-.12-.1-.2-.07-.27-.08-.46-.07h-.17l-.11-.08-.17-.15-.14-.08-.15-.08-.19,0-.25-.1a1,1,0,0,1-.15-.09l-.11-.1-.14-.06-.18.19-.24-.13-.37,0h-.3l-.1-.09v-.18l0-.2v-.19h-1.07l-.55.05-.46.18-.21.25-.17.06-.12.14,0,.15.06.17-.06.08v.29l-.06.27-.61.11-.53.21-.31.21-.41.33-.36.41-.34.42-.29.33v.2l-.1.06-.3.05-.25.12-.23,0-.2-.14-.29,0-.3,0-.15.1-.35,0-.17-.12-.24,0-.34,0-.45,0,.1.16.1.15.13.16.16.17.09.17.08.19.31.28.1.19.08.17.16.16.13.13v.29l.08.15.09.2.08.3.22.17.31.28.23.17.11.09.45.19s.11.17.13.17l.25.08.17.09,0,.16v.36h.31l.09,0h.24l.12.11,0,.22-.07.33,0,.2,0,.21.24.18.15.16.1.2.06.07.17,0,.17.12.3.14.24.08.21.12.27.17.22,0,.07.18.13.1.11.07.09.07,0,.2h.45l.23-.08.26,0,.17.1.18.13.21.05.28.06.24,0H127l.33,0,.22.1.16.06Z"/><path class="cls-5" d="M133.7,54.79l-.29-1.1L133,52.42l-.46-1.1-.45.24-.31.13h-.29l-.17-.08-.13.11,0,.09-.2,0-.15.13-.1,0v-.17l-.08,0-.09.06-.16.1-.34,0h-.23a1.82,1.82,0,0,1-.29-.22l-.17-.14-.23-.11-.07-.15.07-.19-.17-.09h-.27l-.2.06-.27,0-.25,0-.25-.14-.25-.08h-.3l-.46.18-.31.07h-.19l-.08-.06-.07.18v.12l-.11.11-.16,0-.15,0-.06-.06-.09.12-.06.13-.08.08-.16,0-.09.08-.15.12-.17.13-.17.15-.27.11-.22.05-.28-.07-.31-.15L123.4,52l-.14-.07-.15,0-.12-.06-.13-.06-.58,0-.28,0-.13-.15v-.15l-.14.07-.18,0a2.39,2.39,0,0,1-.27,0l-.21-.12-.07-.21v0l-.15,0-.22,0-.16-.14h-.31l-.26-.1h-.47l-.26-.1-.24-.07-.2-.13-.27,0-.23.11-.14.08-.15.05-.17,0-.16,0-.23-.07-.08-.14v-.16l-.08.15-.06.13L117,51l-.08.23,0,.29.12.36.11.35v.27l-.13.42-.13.21-.16.25-.05.18.15.37,0,.22v.29l.08.36.13.31,0,.16,0,1.65v6.46l0,2.78v2.32h2.6l7.56.06h3.56l.23.19.23.19.19.11H132l.15-.13.1-.15,0-.18,0,0,.92,0,2.48,0,1.29,0,0-.09-.09-.08-.1,0-.1-.05-.06-.09-.08-.09-.15,0-.09-.06,0-.08,0-.07-.08-.06-.09,0,0-.19-.06-.1-.14,0-.23,0-.18-.06-.09-.07,0-.08-.08-.07-.19-.13v-.19l-.05-.17-.08-.19,0-.3L134.7,66l0-.32v-.17l0-.07,0-.06,0-.17,0-.14h.1a.14.14,0,0,0,0,0,2,2,0,0,0,.32,0l.06,0,0-.06-.1,0h-.14l-.16-.23h-.08l-.1-.17-.12-.2-.18-.15-.14-.14,0-.18-.14-.32-.12-.15-.08-.25-.12-.28-.15-.23-.11-.2-.06-.1,0-.19-.08-.13-.27-.44-.23-.33-.16-.33-.11-.33-.13-.26-.12-.28s0-.19,0-.21v-.19l-.15-.15-.07-.21-.11-.11,0-.2a.59.59,0,0,1-.11-.08l-.24-.28-.18-.32,0-.09.1,0v-.15l-.13,0,0-.09,0,0,.07,0,.08,0v-.15l-.14-.18-.12-.06-.11,0-.3-.44-.13-.2-.16-.18-.14-.15-.12-.1,0-.26-.13-.11L130,56l-.07-.13,0-.3,0-.27-.09-.22-.15-.17-.18-.14-.11-.24.08-.17.14-.12.09-.08,0-.16.06-.11.05.14,0,.12,0,.1.08.06,0,.17,0,.18.08.08a.76.76,0,0,0,0,.14.74.74,0,0,0,.12.09l.05.06v.1a1.15,1.15,0,0,0,.08.15l.24.25.24.21.08.11v.12l0,.07,0,.09v.44l.12,0,.14.18.21.19.26.25.19.32.2.22.18.09.16.14.2.09.09.05V58l.17-.2.1-.16,0-.2,0-.17,0-.23.22-.45.17-.43.05-.36,0-.36.11-.36.17-.23Z"/><path class="cls-5" d="M117.3,50.66l-.08.15-.06.12L117,51l-.08.23,0,.29.12.36.11.35v.26l-.13.42-.13.22-.16.24-.05.19.15.37,0,.22v.29l.08.35.13.31,0,.16,0,1.66v6.46l0,2.78v2.17L117,72h-1.61v.85l-2.69-1.38-4.12-2.16L105.76,68l-3.17-1.65L102,66l-1.6.8-.36.18L99,67.56l-.17,0-.3-.37-.33-.36-.48-.29-.6-.16-.69-.14-.54-.11-.6-.22-.63-1.15,0-.16-.4.07-.2-.1-.36-.24-.1-.21L93.44,64h-.18l-.07.1-.08,0-.06-.11-.21,0-.18.08h-.22l-.1-.16-.14-.17-.12-.13-.1-.21v-.7l-.22-.27-.36-.46-.29-.47L91,61.23,90.87,61,91,60.9l0-.11.07-.16.24-.06.17,0,.25-.08v-.2l0-.38,0-.22-.11-.27,0-.47.17-.53.06-.38.08-.22,0-.12-.16-.21,0-.35.06-.49.11-.43,0-.45-.1-.59-.29-.66L91.14,54,91,53.68V53.5l.14-.1.24-.09.36-.17.37-.35.22-.45.08-.31,0-.6-.22-.24V50.9l.15-.11,0-.13.14-.15h.17l.16-.09.1-.14,0-.11.1-.12h.18l.09-.14,0-.12.27-.23.32-.12.29-.11.14-.06.18-.16,0-.14-.12-.17-.06-.4.06-.33v-.35l.1,0,.14.08.12.06H95l.33.23.31.21.37.07.54.05.39-.1.33-.09h.19l.24.07.27.1.19,0,.48.11.2,0,.16,0,.14.1.11.13.15.15.2,0,.2.13.54.06.2,0,.18.08.07.16,0,.14,0,.08,0,.5.21.45.22.35.24.27.4.15.51.12.42,0,.25,0s.85.19.86.21a1.49,1.49,0,0,0,.32.08l.21.1a1,1,0,0,0,.21,0l.09.08.26,0,.09.12.19.08.29.09.26.21.3.26.24.2.24.14.26.12.32.06.32-.09.36-.2.43-.32.37-.45.17-.4,0-.41-.2-.43-.19-.33,0-.24,0-.32.13-.22.32-.5.53-.42.41-.22.13,0,.29-.2.55,0,.21-.1.24-.19.26,0,.16,0h.38l.07-.06.08,0,0,.08.3,0,.14.09.19,0,.17.14.24,0h.13l.16.06.13.13L114,49v.12l0,.12-.09.08v.11l.08,0,.13.06.06.1.1.14.08-.08.21,0,.26,0h.2l.28.1.15,0v.09l.25.11h.45l.28,0,.14-.08h.19l.12.08H117l0,.08.06.2.1.13Z"/><path class="cls-5" d="M117.06,68.48v.23L117,72h-1.61v7.3l0,.11,0,.06h-.09l-.18-.08s-.11-.05-.09-.06l-.14,0h-.2l-.2,0h-.11l0,.08h-.12l-.12,0-.17,0-.12.18-.06.06-.12.07-.06.12v.12l.07.1,0,.13,0,.18-.09.13-.12.13-.12.07-.08.13-.14.08,0,.09.07.1v.1l-.13.07-.17,0-.17.08v.12l.13.08v.11l0,.17,0,.09H113l.08.1,0,.15-.14.06-.19.08-.2.12-.22.16-.11.12.06.15.12.13,0,.31,0,.14v.12l-.13.14-.22.13L112,84l0,.14-.06.1-.08.13s0,.13,0,.13l.08.12,0,.07.15.08.11,0,.09-.08.12-.09.08,0,.1.07s.09.05.09.07.08.08.08.08v.1l0,.11v.09l.1.1.07.12v.31l0,.06H113l.07,0v.11l0,.12,0,.12,0,.13v.29l.19.23.16.11.17,0h.09l.12.06,0,.14,0,.21-.06.14-.1.18,0,.1.14.14.34.32.27.31.14.24.18.28.14.28.1.14,0,.14v.18l-.06.14-.07.07,0,.09.08,0v.08l-.09,0,0,.07v.13l0,.1-.14.07,0,0,0,.2.12.07.08.07V91l-.07.1-.05.06s0,.07,0,.07l.15,0,.21.06h.77l0,.1-.05.1-.08.1a.56.56,0,0,0,0,.13l.07.17.11.11.17.07.35,0h.34l.13.06.14.2.09.14.15.11.12,0,.06,0,.07,0,.08.13,0,.18,0,.1-.12,0s0,.11,0,.12.06.09.06.09h.12l.11,0,0,.14,0,.08.19.1.25,0,.2.1.34.2.3.37.08.13.11,0,.11,0,.09.07,0,.09-.07.09-.06.1,0,.15,0,.08.16.08.1,0,.07,0,0,.11-.08.09v.07l.16.1.21,0h.11l.1.13.21.09h.12l.24.21,0,.08,0,.11.06.1v.08l0,.06v.14l0,.17.14.12.07.11.11.24.14.1.22.06.08.12s.07.09.06.1v.16l.16.14h.33v.2l.15,0,.11.08h.06l.14.05.08.09.1,0,.09-.07.1,0,.1-.05.06-.13,0-.08.09,0,.08,0,.12.11.19,0h.18l.15.14h.14l.13-.08.25-.25.06-.11.08,0,.14,0,.15.1.15.09.08.07v.26l.24.23.28.27a1.31,1.31,0,0,0,0,.15l.15.07.17,0,.15.06.12.13,0,.12a1.31,1.31,0,0,1,0,.15l.15,0h.1l.12.09.08,0h.1l.2-.17.11-.12.14-.06.2,0,.27.14.12.08h.19l.3-.2.13.12.15.13.15.11.13.1.1-.1.16-.11.14-.1.17,0,.2,0h.16l.14,0,.14-.08.13-.11.07,0,.15,0,.1.08.1,0,.23,0h.38L132,99l.45-.42.47-.45h2.48l0-.09-.08-.09-.09-.11v-.29l.05-.16,0-.14V97l-.1-.11-.18-.07-.12,0-.13,0h-.11l-.08.06-.11,0-.13-.06,0-.13,0-.15-.13-.08-.08-.09s-.16-.24-.16-.24l-.06-.18,0-.21-.05-.16-.09-.13,0-.25s-.06-.25-.07-.27l-.18-.2-.15-.16-.3-.19-.19-.09-.09,0-.1-.11-.06-.17-.09-.07-.13,0a.32.32,0,0,1-.06-.08l-.05-.15s0-.08-.06-.09l-.16-.16-.13-.12-.1-.15s0-.09-.06-.1l-.19,0h-.19l-.07,0-.11,0-.12-.07-.35,0,0-.11v-.21l.1-.27,0-.17.17-.27.16,0,.15,0,.1,0h.12l.14,0,.13.08.13,0,.11,0,0-.06h.17l.1-.07.17-.19v-.21l0-.82,0-.7.18-.54,0-.12.09-.12a.72.72,0,0,0,0-.14s0-.19,0-.19l0-.37.05-.17.13-.22.15-.13.14,0,.13.07s0,.1,0,.12a1.13,1.13,0,0,0,.11.11l.07-.08.09-.1.11-.05.06-.19,0-.2,0-.28.06-.17.09-.09,0-.17v-.25l0-.16.12-.11.16-.15.29-.36.17-.34.18-.3.15-.22.06,0,.16,0h.23s.14,0,.14,0a.54.54,0,0,0,.11.05l.09-.06,0-.11,0-.36.1-.39.07-.32.24-.54.12-.34V82.4l.08-.23.07-.18-.1-.23,0-.6-.1-.49,0-.27.12-.08.08-.14.07-.05.09-.42,0-.21.08-.11.06-.15.23-.45,0-.2.14-.13v-.19l-.15-.13V78l.09-.11.1-.1v-.6h.15l.12.07.21,0,.26,0,.13-.23,0-.19.17-.05h.12l0-.07.19-.13,0,0,.06,0,.1,0,0-.11,0-.08.07,0,.08.09.06.07.13-.17.18-.25.08-.19.14-.24.17-.22h-.14l0-.08-.08,0v-.13h-.14l-.06-.05v0l.07-.07h-.1l0,.07-.12,0-.1-.06-.07-.1v-.19l-.09-.09-.12-.16-.11,0h-.13l-.13-.14-.06,0h-.09l-.07.06-.15-.07-.15-.22s0-.24,0-.26l-.11-.2v-.36l0-.27,0-.24-.06-.17V72.4l-.11-.16v-.3l-.07-.17,0-.09v-.21l0-.1.08-.05,0-.14-.06-.34,0-.35-.11-.23v-.2l.06,0,.13.09,0,.08,0,0,0,.07h.07l.07-.1-.09-.13-.26-.2-.15-.17-.11-.3-.08-.35-.1,0,.07-.1-.12-.08,0-.06.06,0,0-.09-.07,0,0,0v-.09l-1.29,0-2.48,0h-.92l0,0,0,.19-.1.15L132,69h-.56l-.19-.11-.23-.2-.23-.19h-3.56l-7.56,0h-2.6Z"/><path class="cls-5" d="M135.44,98.09l0-.09-.08-.09-.09-.11v-.29l.05-.16,0-.14V97l-.1-.11-.18-.07-.12,0-.13,0h-.11l-.08.06-.11,0-.13-.06,0-.13,0-.15-.13-.08-.08-.09s-.16-.24-.16-.24l-.06-.18,0-.21-.05-.16-.09-.13,0-.25s-.06-.25-.07-.27l-.18-.2-.15-.16-.3-.19-.19-.09-.09,0-.1-.11-.06-.17-.09-.07-.13,0a.32.32,0,0,1-.06-.08l-.05-.15s0-.08-.06-.09l-.16-.16-.13-.12-.1-.15s0-.09-.06-.1l-.19,0h-.19l-.07,0-.11,0-.12-.07-.35,0,0-.11v-.21l.1-.27,0-.17.17-.27.16,0,.15,0,.1,0h.12l.14,0,.13.08.13,0,.11,0,0-.06h.17l.1-.07.17-.19v-.21l0-.82,0-.7.18-.54,0-.12.09-.12a.72.72,0,0,0,0-.14s0-.19,0-.19l0-.37.05-.17.13-.22.15-.13.14,0,.13.07s0,.1,0,.12a1.13,1.13,0,0,0,.11.11l.07-.08.09-.1.11-.05.06-.19,0-.2,0-.28.06-.17.09-.09,0-.17v-.25l0-.16.12-.11.16-.15.29-.36.17-.34.18-.3.15-.22.06,0,.16,0h.23s.14,0,.14,0a.54.54,0,0,0,.11.05l.09-.06,0-.11,0-.36.1-.39.07-.32.24-.54.12-.34V82.4l.08-.23.07-.18.13-.1.27,0,.19.05.08.06.16,0,.16-.08.13,0,.19,0,.11.06.21-.1.11-.16.23-.39.13-.23.14,0,.14.09.2.06.13,0,.1.09.1.13.12.13.18.07.32,0,.27-.07.21,0,.09-.25.09,0,.2.19.17,0H142l.42,0,.34.1.33.2.53.42.42.34.28.42.16.24.14.25v.17l0,.12.25.19.41.15.17.11.08.17.12.2.29.17L146,85l.05.19v.11l-.14.33-.22.28-.21.25-.16.17-.08.11,0,.17v.25l0,.3,0,.3.08.14.19.09.28,0,.19-.08.28-.06.2-.09.27,0,.18,0,.07.08h.22l-.21.28-.2.26,0,.17.07.12.12.07.06.15v.12l.19.36.17.19.17.12h.12l.09.29v.11l.17.14a1.86,1.86,0,0,1,.1.2s.22.06.22.06l.19.14.33.32.23.21,1.62.57.88.25.85.33.91.31.43.17.62,0,.71,0h.66l-.1.12-.28.3-1.53,1.47-.71.73L152,96.26l-.68.68-.56.6-.1.06-.24,0-.48-.07-.52,0H149l-.53.17-.52.22-.4.15-.16.22-.14.26-.14.16-.45.1-.33,0-.36,0-.21,0-.26.28-.37,0-.43,0-.36,0-.43-.28-.35-.29-.35.13-1,.47-.2.29-.1.16-.27.36h-.09l-.09-.17-.11,0h-.19l-.45-.07-.64,0h-.56l-.43-.07-.56-.4-.67-.45-.64-.48-1.08,0h-.26l-.19-.09-.19-.12Z"/><path class="cls-5" d="M146.09,85.21,146,85l-.09-.14-.29-.17-.12-.2-.08-.17-.17-.11-.41-.15-.25-.19,0-.12V83.6l-.14-.25-.16-.24-.28-.42-.42-.34-.53-.42-.33-.2-.34-.1-.42,0h-.88l-.17,0-.2-.19-.09,0-.09.25-.21,0-.27.07-.32,0-.18-.07-.12-.13-.1-.13-.1-.09-.13,0-.2-.06-.14-.09-.14,0-.13.23-.23.39-.11.16-.21.1-.11-.06-.19,0-.13,0-.16.08-.16,0-.08-.06-.19-.05-.27,0-.13.1-.11-.12v-.51l0-.2-.1-.49,0-.27.12-.08.08-.14.07-.05.09-.42,0-.21.08-.11.06-.15.23-.45,0-.2.14-.13v-.19l-.15-.13V78l.09-.11.1-.1v-.6h.15l.12.07.21,0,.26,0,.13-.23,0-.19.17-.05h.12l0-.07.19-.13,0,0,.06,0,.1,0,0-.11,0-.08.07,0,.08.09.06.07.13-.17.18-.25.08-.19.14-.24.17-.22.06,0v.13l.05.15.28.38.19.35.25.66.06.32a2.84,2.84,0,0,1,.08.34s.05.33.05.33l.06.09v.56l.1.11a.83.83,0,0,1,0,.12,1.56,1.56,0,0,0,.05.16l.12.12.08,0,0,.19.05.11-.07,0,0,.15h.26l.05.11,0,.37.06.2,0,.09h.13l.08-.11a.93.93,0,0,0,0-.14.72.72,0,0,0-.07-.11.49.49,0,0,1,0-.14.47.47,0,0,0,0-.09L142,80l.05,0,.13,0,.12.11.09.15v.27l.07.12s.07,0,.07,0l.05.12a.71.71,0,0,0,.16.07h.09l.13-.17,0,.11,0-.07.07.09.11-.11,0,.12h.11v.09l.11,0,0,.09,0,0,.08.24h.21l.13.06s.25.06.25.08.26.21.26.21l.25.34.15.25.2.19,0,.16.06.06h.23l.11.09.11,0,.08.15.13.17.13.14,0-.08.09.07.07.12.05.08,0,.09,0,.14v.17l.15.06.13-.06,0,.07.13.16.14.11.07.13v.14l.16,0,.09.1.15-.12.09,0,.08.13.06.17v.09h-.28l-.2,0-.18,0V85s0,.1,0,.11-.06.12-.09.11a.67.67,0,0,0-.2,0l-.13-.14-.09-.08-.14.15-.13.13Z"/><path class="cls-5" d="M147.22,87.54H147l-.07-.08-.18,0-.27,0-.2.09-.27.06-.19.08-.29,0-.19-.09-.08-.14,0-.3v-.55l0-.17.07-.11.17-.17.21-.25.21-.28.19-.38.09-.13.18-.15.09.08.13.14s.14,0,.16,0,.07-.1.09-.11,0-.11,0-.11v-.18l.18,0,.21,0h.27l.14.09.11.18.1.11,0,.14v.14l.05.13v.11l-.09.13-.17,0-.14,0,0,.07,0,.09-.12,0-.19,0-.13,0-.15.06-.06.08-.11.1,0,.1-.25.07v.07l.08.09.14,0,.05-.14.17,0h.33l.24.06.17.14-.16.33-.18.28Z"/><path class="cls-5" d="M147.73,86.75l-.16.33-.18.28-.14.18-.13.17-.28.37,0,.17.07.12.12.07.06.15v.12l.19.36.17.19.17.12h.12l.09.29v.11l.17.14a1.86,1.86,0,0,1,.1.2s.22.06.22.06l.19.14.33.32.23.21,1.62.57.88.25.85.33.91.31.43.17.62,0,.71,0h.66l-.1.12-.28.3-1.53,1.47-.71.73L152,96.26l-.68.68-.56.6-.1.06-.24,0-.48-.07-.52,0H149l-.53.17-.52.22-.4.15-.16.22-.14.26-.14.16-.45.1-.33,0-.36,0-.21,0-.26.28-.54.77-.26.36-.51.61-.19.25v2.5l-.06,2.17,0,1.09v.21l.85,1.13.2.22.32-.55.11-.23.18-.08.37-.5.62-.68.35-.35.9-1,.67-.65.6-.5.62-.51.47-.33.6-.43.67-.34L152,102l.64-.47.27-.34.41-.34.62-.63.48-.6.39-.34.75-.8L156,98l.25-.46.33-.39.63-.93.35-.69.07-.42.24-.57.46-.69.46-.74v-.21a.4.4,0,0,0,0-.11s.1-.19.1-.19l.3-.22.17-.2.1-.25.22-.21v-.3l.08-.09.08-.08v-.13l.1-.11.16-.1.1-.22v-.13l.22-.2.1-.19-.1-.22.1-.42.11-.52v-.25l.09-.12.08-.11.1-.12.1-.07h.12l.1.11v.12l.13.1.13,0,.05-.15.09-.19-.12,0,0,.08-.14.06-.08-.12-.13-.1-.1-.06v-.25l0-.31.08-.27-.13-.07,0-.18.09-.31.17-.3.06-.22,0-.09h-.17l-.27-.1-.25-.12h-.31l-.2.17-.14.24-.24.15-.59.23-.5,0h-.25l-.23.15-.36.1-.33.09-.36,0-.23-.07-.52.1-.28.15-.33.09h-.43l-.22,0-.31-.1-.38.11-.32.28-.38.26-.3.14-.28,0-.23-.12-.3,0h-.12l-.29-.16-.31.12-.32.21-.3,0-.16.17-.23.11-.38.11-.38,0h-.38l-.18,0-.35-.23-.27-.28-.26-.21-.28-.31-.1-.19-.1-.08,0-.27H148Z"/><path class="cls-6" d="M144.92,108.49l-.2-.22-.85-1.13v-.21l0-1.09.05-2.17v-2.5l.2-.25.5-.61.26-.36.54-.77-.35-.05-.45.05-.35,0-.43-.28-.36-.29-.34.13-1,.47-.2.29-.1.16-.27.36h-.09l-.08-.17-.12,0h-.19l-.45-.07-.64,0h-.56l-.42-.07-.57-.4-.66-.45-.65-.48-1.08,0h-.25l-.2-.09-.19-.12-.06,0H133l-.48.45-.28.29.2.21.06.19.14.06v.12l.07.11.12,0,.14,0,0,.12,0,.13v.57l.21.15.09.21.09.14.09.08,0,.21.09.15.1.09v.25l0,.2.1.28.11.22,0,.24,0,.23-.09.19-.13.12,0,.14v.25l-.2.06-.16.15-.13.09-.06.35-.13.12-.11.09-.07.16-.12.09-.17.09-.05.17v.16l-.08.12-.07.09,0,.13.06.09v0h-.06l0,.1.09.15.08.08h.13v.17l.12.06.09.07,0,.17.08,0,.09-.08,0-.07-.07,0v-.07l.09,0,.17,0,.24-.06.11-.08.08.06.09.13.1.09,0,.09-.11,0h-.47l-.11.1.07.09v0l-.17,0h-.14l-.09-.11-.06-.08h-.07l0,.07,0,.06-.06.08-.09.06,0,.08,0,.1V107l.12.13.06.11,0,.06,0,0h-.06l-.06.06-.08.11,1.46.78,1.08.61.71.37.67.45.65.31.39.22.5.24.4.24.16.13.08.17v.17l0,.08-.11,0,0,.1.05.1.09.09.13,0,0,.15.24.18.68.45.59.45.4.26.18.15.15,0,.14.12.09-.1.07,0h.07l0,.14.14,0,0-.13.16-.13.13-.25.09-.29.18-.21.17-.26,0-.16,0-.29s.06,0,.06-.06,0-.21,0-.21l.25-.46.05-.19.23-.3.16-.22L143,110H143l.09.1.13-.05,0-.13h.08l.15,0,.07-.08,0-.11,0-.07.08,0,.06,0,.08,0,.07-.06,0-.13,0-.06v-.16l.06-.07.12,0,.12,0v0l-.06.06-.12,0,0,.07,0,0,.07,0,0,0,.12,0h.06v0l0,0-.07,0v-.06l.07-.08,0,0,.21,0,.11,0,.12,0,.06-.11v-.09l.08-.1.09-.08Z"/><path class="cls-5" d="M132.33,105.21l-.15.06-.14.08h-.12l-.12,0-.15-.07h-.16l-.12,0-.11-.06v-.07l.05-.07-.05-.06-.2,0v.09l.08.17,0,.15v.14l0,.12-.13.06.09-.12,0-.09,0-.12-.05-.16-.1,0-.05.08h-.08l-.05.07h-.06v.11l-.1.07-.06,0-.1,0-.06-.1,0-.08-.08,0-.06.06-.08,0h-.09l.06-.06,0-.14h-.2v0l0,.07-.08.07,0,0-.05.07h-.07v-.19h-.08l0,.12h-.18l0-.08.07,0v-.1l-.1.07h0l-.07.1v.07h-.07l0-.24-.06.06v.12l0,.09,0,.06H129l0,.08v.07l0,.08,0,0h0v.18l0,.07,0,0v.07l0,.1-.09.1-.08.06-.11.06,0,.08v.14l-.08.07-.06.07v.16l.05.05.07.1H128l-.49.07-.55,0-.33.06-.28,0-.12.06-.16.09-.13.19-.17.1-.08.09-.06.08h-.24l-.13-.15-.06,0h-.34v-.34l-.07-.21.07-.13.14-.09v-.35l-.08-.1.08-.06.18-.12.06-.08.06-.11v-.1l0-.09,0-.06,0,0h-.08l-.11,0-.11-.07.08-.32.07-.12,0-.12.08-.12,0-.15.07-.08.09,0v-.55l.07-.13.14-.15.12-.13.13-.11.09-.08.1-.08h.22l0,.06,0,.09,0,.09,0,0h.12l.07,0,.07-.09.07-.07,0-.08,0-.06s0-.1,0-.1l.12-.08.06-.11.1-.09,0-.13.11,0h.12l.14-.06.08-.08.06-.08.06-.05v-.14l.06,0h.07l.06-.07v-.09l0-.09v-.34l.15-.1h-.13l0-.06,0-.08.07-.08,0-.11-.09.1-.1.07-.06.09-.06.11,0,.09-.1-.1-.08-.06-.16,0v-.09l0-.1-.08,0-.07,0-.06,0H127l-.1,0-.1-.07a.54.54,0,0,1-.06-.11s0-.12,0-.12l0-.12.11-.11.06-.08,0-.16-.12-.14,0-.07v-.2l.05-.17,0-.1.08-.11,0-.13,0-.11v-.07l.2-.17.11-.12.14-.06.21,0,.26.14.12.08h.19l.3-.2.13.12.15.13.15.11.13.1.11-.1.15-.11.14-.1.17,0,.2,0h.16l.14,0,.14-.08.13-.11.07,0,.15,0,.1.08.1,0,.24,0h.38l.15-.15.18-.25.17-.15.17-.12.2.21.06.19.14.06v.12l.07.11.12,0,.14,0,0,.12,0,.13v.57l.21.15.09.21.09.14.09.08,0,.21.09.15.1.09v.25l0,.2.1.28.11.22,0,.24,0,.23-.09.19-.13.12,0,.14v.25l-.2.06-.16.15-.13.09-.06.35-.13.12-.11.09-.07.16-.12.09-.17.09-.05.17v.16l-.08.12"/><path class="cls-5" d="M126.34,107.48l-.12.06-.16.09-.13.19-.17.1-.08.09-.06.08h-.24l-.13-.15-.06,0h-.34l-.07.12-.17.08-.2.15-.08.09-.12.13v.09l.08.07v.2a.81.81,0,0,0,0,.11l0,.07v.09l0,.07-.13.14-.24.27-.06.15,0,.23v.15l.15,0h.13l.13,0,.07.05v.11l.07.08h.44l.09,0,.14-.05.18-.06.07-.21v-.28l0-.23h.14l.1.1.11,0,.1-.06.08-.07H126l.16,0,.16.08.12.1.21-.1.17,0,.17-.22,0-.24V109l-.07-.35-.09-.27-.15-.2-.2-.23-.14-.23,0-.15v-.1Z"/><path class="cls-5" d="M123.88,110.1l.15,0h.13l.13,0,.07.05v.11l.07.08h.44l.09,0,.14-.05.18-.06.07-.21v-.28l0-.23h.14l.1.1.11,0,.1-.06.08-.07H126l.16,0,.16.08.12.1-.13.11-.06.12v.09l0,0,0,.12-.07.12v.11h.25l.06.09s-.07,0,0,.06a.5.5,0,0,0,.22,0l.08,0,.13.14v.13l-.06.12-.06.08h-.14l-.06.17h0l-.11.1h-.08l-.15.1-.06.14v.17l0,.1-.09.24s-.14.2-.15.23l-.28.29-.22.26s-.16.07-.16.07l-.28.08-.13-.28-.17-.24-.17-.31-.13-.28s0-.23,0-.27,0-.26,0-.26l-.08-.12-.1-.12,0-.19v-.2l-.08-.14-.15-.18-.07-.07Z"/><path class="cls-5" d="M128.54,107.28H128l-.49.07-.55,0-.24.06h-.19l-.15,0v.1l0,.15.14.23.2.23.15.2.09.27.07.35v.22l0,.24-.17.22-.09,0-.09,0-.14,0-.06,0-.13.11-.06.12v.09l0,0,0,.12-.07.12v.11h.25l.06.09s-.07,0,0,.06a.5.5,0,0,0,.22,0l.08,0,.13.14v.13l-.06.12-.06.08h-.14l-.06.17h0l-.11.1h-.08l-.15.1-.06.14v.17l0,.1-.09.24s-.14.2-.15.23l-.28.29-.22.26s-.16.07-.16.07l-.28.08,0,.06,0,.22,0,.18v.16l0,.1.12.1.12.17.06.14v.14l0,.21-.05.13.05.13.13.12.08.16.08.24,0,.18-.06.09H125v.4l.08.14.1.12.13.11.15.06h.3l.09.13.11.07.06,0,.1.26.13.18.09.11.09.07v.08l0,.07h0l-.06.08,0,.08.07.07,0,.09.07.11V118l0,.17.11.13.12.22.18.26.16.37.06.21.08.13.11,0,.07.09,0,.1,0,.15v.1h.38l.1.05.16,0,.11.07.19.17.3.14.07.19h.3l.11.1h.16l.22.06.1.09.15.08h.34l.05.14.12.06.22,0,.16.06.11.09.08,0h.1l.17.05.07.08.1.08h.39l.11.06.23.11.16-.11v-.08l0-.1.07,0,.14.08.11.11.17.19.2.2.19.3.08.27,0,.22v.36l.11.26,0,.14v.16l0,.17V124l.11.12.1.12,0,.12.07.06.14.06.06.11,0,.16,0,.11h.75l.43-.05.11-.11.07,0,.14,0,.08,0,.2.13.12.11,0,.1.13.08h.23l.14,0h.26l.21-.18.09,0h.39l.11.08.16,0,.3,0,.16,0,.22-.06.15,0,.13-.11.06-.21,0-.14.18-.13h.33l.22,0,.12,0,.17,0,.26-.08.12-.05.18,0,.18-.08.16-.05.14,0h.32l.13-.07.1-.11.26-.12.3,0,.34-.15.29-.16.27-.24.23-.14v-.06l0-.15-.06-.14v-.07s0,0,0,0l-.15,0h-.13l-.13-.11-.17-.12-.11-.12-.09-.09-.12,0-.1,0h-.08l0-.1h.07l.06-.12,0-.19-.06-.13,0-.17-.08-.1h-.07l-.05-.09,0-.08.08-.06,0-.08,0-.07v-.26l-.08-.16,0,.09v.05l-.12,0,0,0v-.15l0-.11,0,0,0,0h-.06l0-.09,0,0,.08,0h.06l0,.05.07,0,0-.09-.13-.16a1.94,1.94,0,0,1-.1-.17s-.13-.26-.13-.26l0-.22v-.18l.12-.17.08-.17,0-.16-.08-.14-.12,0h-.09v-.08l.07-.09,0-.08v-.34l.11-.32.08-.16.07-.05.12,0,.1-.13-.05-.18-.09-.12-.26,0,0-.14a1.13,1.13,0,0,0-.11-.11l-.07-.15-.07-.09-.19-.13-.13-.06-.16-.1V116l-.1-.13a1.16,1.16,0,0,1-.06-.15s.09-.23.09-.23l.12-.34.1-.22.1-.23a.64.64,0,0,0,.06-.14s0-.25,0-.25l.1-.07,0-.14v-.2l.07,0,.07,0v-.09l-.06,0,0-.14,0-.1-.14-.12-.15,0-.18-.15-.4-.26-.59-.45-.68-.45-.24-.18,0-.15-.13,0-.09-.09-.05-.1,0-.1.11,0,0-.08V111l-.08-.17-.16-.13-.4-.24-.5-.24-.39-.22-.65-.31-.67-.45-.71-.37-1.08-.61-1.46-.78v.14h-.07l-.08.07-.05.06-.08,0,0,.06.09.05.06,0V108h-.05l-.07,0-.06,0H132V108l.07,0,.08.11s0,.06,0,.08-.05,0-.07,0l-.08-.06h-.17l-.06,0,0,.07,0,0,0,.09v.07l-.06,0h-.09l0,0,0,.06,0,0-.06,0-.06.09h-.14l-.13,0-.08.1a.15.15,0,0,0,0,0s.08,0,.08,0l.06,0h.08l.09.09,0,.11.1,0h.12l.18,0,0,.07,0,.13,0,.07-.15,0-.17.11-.12.12-.07.14-.09,0-.15,0-.08,0h-.13s-.06,0-.07,0a.59.59,0,0,0-.08-.08h-.13l-.14,0-.09.12v.22l.05.11v.08l.08.08.05.06,0,.08-.09,0-.12-.07-.08.06v-.09l.05-.07,0-.07-.08-.06,0-.07V110l.06-.07s0-.07,0-.07l-.2,0,0-.15-.1.07-.09.07-.1,0,0,0-.07,0h-.07l-.06,0,0-.16-.08-.09-.1,0-.07.08s0,0,0,0l-.11,0-.05.08,0,.07a.15.15,0,0,1,0,0s-.08,0-.08,0l-.05,0,0,0,0,.1,0,.1,0,.08-.14,0s0,.07,0,.07l-.08.09-.12,0,0-.13a.52.52,0,0,0,0-.11.7.7,0,0,1-.08-.14l.12-.07v-.14l0,0h-.1l0,0-.06,0v-.1l0,0,0-.09v-.09l0-.11v-.1l-.08,0-.06-.07,0-.11.08-.11,0-.12,0-.14,0-.31.05-.11.09-.14,0-.12,0-.09,0-.17v-.16l-.12-.06v-.09Z"/><path class="cls-5" d="M141.83,114.75l-.14-.14v-.15h.11l.09-.12-.06-.08-.07-.08.08-.14-.05-.08v-.12s.15,0,.16,0,0,0,0,.06a.36.36,0,0,0,.11,0l.05.1v.12l0,.11-.09,0,0,.15-.11.09v.08l-.05.07Z"/><polygon class="cls-5" points="141.54 116.27 141.54 116.05 141.52 115.86 141.41 115.8 141.28 115.72 141.24 115.61 141.24 115.47 141.24 115.34 141.17 115.3 141.1 115.39 141.05 115.45 140.98 115.52 140.95 115.66 140.92 115.78 140.92 115.85 140.96 115.93 141 116.05 141.03 116.13 141.13 116.14 141.18 116.11 141.23 116.16 141.33 116.16 141.37 116.18 141.38 116.27 141.41 116.39 141.48 116.39 141.54 116.33 141.54 116.27"/><path class="cls-5" d="M130.33,109l0,.14.16.08.19.08.09,0,0-.08s0-.14,0-.15l-.12-.1h-.1l0,0h0s0-.12,0-.12l-.05,0-.06,0Z"/><path class="cls-5" d="M128.62,109.8l0-.15,0-.15s0-.07,0-.07h.06l0,.09,0,.06.06,0v.17l-.09,0Z"/><path class="cls-5" d="M143,123.1v.06l-.23.14-.27.24-.29.16-.34.15-.3,0-.26.12-.1.11-.13.07h-.32l-.14,0-.16.05-.18.08-.18,0-.12.05-.26.08-.17,0-.12,0-.22,0h-.33l-.18.13,0,.14-.06.21-.13.11-.15,0-.22.06-.16,0-.3,0-.16,0-.11-.08H137l-.09,0-.21.18h-.26l-.14,0H136l-.13-.08,0-.1-.12-.11-.2-.13-.08,0-.14,0-.07,0-.11.11-.43.05H134l0,.22v.13l-.14.2,0,.19-.08.16-.16,0-.1.16v.48l.14.14a.58.58,0,0,1,.05.11s0,.26,0,.26l-.06.13,0,.13.05.17,0,.07v.21l0,.17,0,.1.32.39.22.2.3.4.32.4.28.33.24.25.13.19,0,.17v.16l.06.11,0,.1-.15.13-.06.11,0,.16,0,.13.06.14,0,.18-.05.25,0,.24,0,.17v.2l-.18.13-.15.11-.11.05-.17-.07-.11,0-.15.11,0,.18v.19l0,.1-.14.11,0,.12.08.11.09.1.07.14v.42l0,.16h-.16l-.15,0-.12-.17.07-.11.13-.06,0-.13s0-.14-.08-.15l-.2,0-.16-.11-.13-.17-.34-.25-.13-.17-.06-.17-.22-.08,0-.18,0-.17-.13-.11-.08-.09v-.1l.2-.15.13-.09v-.13l0-.21.08-.11.13-.12.07-.07,0-.25,0-.34v-.23l-.1-.11,0-.22-.05-.2-.15-.07-.06-.14-.21-.06-.22.1-.19.07-.22,0-.18,0-.18-.06-.09.1-.16-.06-.09-.15-.2-.27-.17-.23L131,129l-.23.05-.37.08-.43.15-.25.1-.6.15-.41.17-.37.12-.4.18-.62.19-.53.09-.38.19-.31.11-.19,0v.15l.08.11.07.12.06.12v.27l0,.15v.09l.11.11V132l0,.2v.18l.1.09h.3l.37,0,.24.13.18-.19.14.06.11.1a1,1,0,0,0,.15.09l.25.1.19,0,.15.08.14.08.17.15.11.08h.17l.46.07.27.08.2.07.12.1.08.17.16,0,0,.09.1.07,0,.08-.14.08.11.16.08.14.09.15v.15s0,.14,0,.14l-.06.14,0,.12,0,.08.07.13v.19l0,.56v.54l-.07.08-.14.18.05.13.1.11.05.1,0,.08-.09.07-.16,0h-.13l0,.14,0,.11.19.14.11.16,0,.19-.09.17-.07.17,0,.12.06,0v.19l.13.07.17.13.08.21-.11.3-.1.14-.1.06,0,.14-.18.33-.1.21-.15,0-.1,0,0,.27v.33l-.06.15-.15.16,0,.12v.14l.24.14-.05.08h-.26l-.33.41-.75.78-.51.53-.13.13.11.54.1.39.08.2.07.22v.35l0,.25.08.18.12.17,0,.23.13.18.14.16,0,.27,0,.15.1.14,0,.14v1l0,.59V149l0,.2,0,.29-.08.18,0,.13,0,.08,0,.17.17,0v.86l.06.25,0,.27v.16l.13.09h.72l.36-.08,0-.11,0-.51,0-.26.09-.28v-.1h-.14v.11l0,.16-.16,0-.09-.16-.08-.16-.11-.13-.1-.16-.1.12,0-.12.13-.17.14-.08.13-.13.05-.06.11-.21.37-.34.44-.2.5-.28.44-.21.49-.17.41-.16.32,0,.43-.15.28-.18.26-.21.29-.37.29-.42,0-.26.2-.21-.12-.12-.12,0-.14.15,0,.11,0,.08h-.09l.05-.17.08-.12v-.18l-.08,0,0-.1h.09l0,.07,0-.25.1-.6,0-.25.15-.11v-.09l-.1-.12s0-.35,0-.37,0-.21,0-.21l.15-.29-.1-.22V143l-.08.05-.07.09h-.1l-.08-.12v-.37l-.06-.3v-.11l-.06-.22-.14-.16,0-.25.08-.25h-.07l0,.1,0,.09-.08,0,0-.09.06,0,0-.11-.05-.11.09-.09.07-.11-.06-.08-.14,0,.07-.11-.07-.2-.07-.09-.1-.05-.1.05-.11,0v-.14l.05-.07-.15-.14h-.08l0-.05,0-.09h.06l0-.09v-.06l.07,0v-.1l-.17-.09.22,0v-.29l-.07-.09.08-.09s0-.11,0-.12a.62.62,0,0,1-.12-.08l-.1-.14v-.07l.12.1.1.13.16,0,.24,0,.22-.08.16-.2.18-.17.22-.21.13-.17.07-.12.14-.06,0-.17.17,0,.25-.2.12,0,.2-.05.16-.07.12-.12.11-.16,0-.13.13-.08v-.08l-.08-.06.11,0,.1,0,.11-.16.25,0v-.2l.07-.15.16,0,.09-.2-.08-.11.08-.15,0,.13.06.05.24,0,.06-.14,0-.13-.09-.1h-.09v-.12l.16,0,.07,0,.16-.09.24-.13.48-.28.42-.19.13-.07.06-.1.08.06.26,0,.24-.12.17-.11H140l.06-.08h.13l.27-.07h.25l.09-.12,0-.14.15,0,0-.12h.14l.23,0,.24-.22.19-.14.11-.09.11,0s0-.12,0-.13-.14-.15-.14-.15l.22-.17.08-.07.16-.06v.13l.1-.08v-.17l-.07.08-.06,0,.08-.07v-.17h.11s0,.07,0,.08a3.84,3.84,0,0,0,.37-.45l-.06-.08s0-.1,0-.1H143l.08-.09.17-.25.11-.16,0-.12-.24-.06,0-.11.12-.08.09,0h.15l0-.09h.07l.21.15.14,0v-.18a.6.6,0,0,0-.14-.07,1.14,1.14,0,0,0-.16.09l-.12,0-.1-.08v-.08l.19-.06.12-.11.06-.24V130l-.07-.1-.13.05-.16.13,0-.13v-.25h.16l.08-.12-.07-.14h-.09l0,0h-.09l-.14-.09,0-.06.13,0v-.17l0-.1,0-.15v-.16l0-.15,0-.1,0-.21v-.09l.09,0-.08-.07.08-.16,0-.4v-.17l-.1,0v.13l0,0-.12,0-.05-.11,0-.09.09,0,.09.06,0-.08v-.07l.06,0,.13-.06-.13,0v-.35h-.14l0-.07.15-.2,0-.08-.08-.2v-.13l.1-.12v-.08l-.06-.17-.07-.21v-.25l0-.26v-.17l-.16-.09.08-.11.16-.19.06-.13v-.11l0-.07,0-.1.12-.07,0-.08-.1-.06-.07,0v-.08l0,0,.11,0h.13l0,0-.11,0,0-.13,0-.07Z"/><path class="cls-5" d="M128.78,150l.17,0v.86l.06.25,0,.27v.16l-.21,0,0,.44v.51l-.09,0h-.3l-.15.07-.32-.08-.27-.19-.3-.1-.1-.11,0-.08-.18-.13,0-.12,0-.06-.22-.17-.11-.07v-.65l.37-.45.24-.53.2-.13.26-.09.3.14.2.13.15.09Z"/><path class="cls-5" d="M124.26,143.11h.45l.23-.08.26,0,.17.1.18.13.21.05.28.06.24,0H127l.33,0,.22.1.16.06h0l.08.36.13.57.08.2.07.22v.35l0,.25.08.18.12.17,0,.23.13.18.14.16,0,.27,0,.15.1.14,0,.14v1l0,.59V149l0,.2,0,.29-.08.18,0,.13.07.25-.26,0-.15-.09-.2-.13-.3-.14-.26.09-.2.13-.24.53-.37.45v.65l.11.07.22.17,0,.06,0,.12.18.13,0,.08.1.11.3.1.27.19.32.08.15-.07h.3l.09,0V152l0-.44.21,0,.25.05.24,0h.36l.36-.08v.37l-.08.1,0,.23-.14.31-.14.27v.45l-.09.19v.25l0,.31-.12.21-.06.18,0-.15.05-.15V154l.08-.13v-.1l0-.13,0-.25v.26l-.05.1v-.13h-.07l0,.08-.05.06,0,.15.07.07v.49l.06.07v.12l-.05.11-.13.15-.06.1-.15.13-.14.06-.12.07v0H129l0,.1-.11.06-.23.1-.14.07-.27.25-.34.37-.25.32-.17.23-.15.12,0,.14,0,.17-.12.18-.1.21-.3.55-.23.43-.29.41-.37.49-.33.45-.23.22,0,.05-.14.09-.2.18-.13.16h-.1l-.08,0-.14.15-.17.16-.15.2-.08.09H124l-.06.11-.25.22-.07.21-.18.13-.27.25-.19.23-.06.08h-.09l-.14.14-.09.1-.21.1-.14.1,0,.07-.22.21-.38.32-.24.21-.34.21-.2.12-.2.25,0,.12-.14,0-.27,0-.22.08-.11.07-.06.09,0,.07-.2,0h-1.3l-.11.13,0,.18-.18.08-.27,0-.23-.07-.24-.07-.18.06,0,.18-.15.07h-.09l.08.1,0,.07h-.17l-.32,0-.22,0-.21-.1-.55-.1-.54,0-.29,0-.25.07v.13l-.81,0-.18-.06h-.6l-.26.09-.09,0h-.1l-.15.22-.05.06-.23,0-.07.11-.12.11-.13,0h-.12l-.28-.06L111,166l-.11.08h-.11l-.21-.09-.21-.08h-.11l-.13,0-.07,0,0,.07.06.06,0,.07-.21,0h-.24l-.22.12-.06.1-.12.09-.19.08-.08.1-.09.09,0,.15V167l0,0h-.11l-.14-.07,0-.09-.06,0,0-.06h-.06l0,0-.09,0-.1,0,0-.08-.08-.1-.08-.07-.1,0h-.23v-.1l.1-.06v-.09l0-.08-.06-.06-.06,0-.21,0-.13-.13-.07,0-.07,0h-.19l0,.06-.09-.06v-.14l.07,0v-.07l0-.07v-.09l-.18-.1-.17,0h-.14l-.14.06-.1.06v.1l.05.09V166l-.11-.12,0-.1-.1-.13v-.11l.06-.08-.06-.08v-.08l.08-.09.11-.07,0-.14,0-.2-.11-.27-.12-.1,0-.08-.17-.22-.12-.15,0-.1-.31-.31v-.07h.08l.11.17.08.08,0-.07-.11-.14,0-.13-.1-.06-.08,0h-.13l0-.14v-.11l0-.06,0-.08,0-.08,0-.11.11,0,.08,0,0,.09.13,0,.11-.06.08-.12.14-.23.07-.52v-.14l0-.09v-.27l-.06-.18,0-.11-.09-.19,0-.16-.11-.18-.24-.29-.22-.38-.21-.25-.15-.4-.27-.49-.28-.56-.24-.56-.18-.45-.06-.45-.17-.54-.17-.21,0-.22a1.11,1.11,0,0,1-.12-.16,1.27,1.27,0,0,0,0-.14l-.25-.21-.11-.34-.13-.14.34-.3.15,0,.08-.31.12-.06,0-.18.2-.17h.34l.07.08v.18l.24.11.07.1,0,.08-.05.1v.14l.09.09,0,.13V155h.18l.21,0,.14.06.11.09h.16l.16.07.17.14.13,0,.17,0h.17l.25-.06.13,0,.3,0,.25.07.17.14h.16l.16-.07.24-.32.2-.16.27-.2.27-.13.23-.06h.13v-6.67l.13.1.2.15.22.16.14.18,0,.13,0,.16.17.16.08.1,0,.22,0,.2s.07.17.07.18a1.42,1.42,0,0,0,.11.18l.1.15,0,.13,0,.2-.06.19-.14.19-.13.13,0,.11v.24l.06.38.09.14.16-.16.34,0,.23.11h.22l.13-.09H111l.2,0,.11,0h.25l0-.18.09-.11.13,0,.22-.08.16-.13.11-.15.1-.15.08-.09.24-.11.16-.08.15-.1.12-.14a1.71,1.71,0,0,1,.07-.18l0-.22v-.13l.1-.13.05-.14v-.17l0-.17.21-.15.23-.1.2,0h.26l.17,0,.2.15.16.12.15.11.13.16.07.1.14,0,.05-.05.27,0,.17,0,.09.08.17,0h.14l.12.06.14.12.26,0,.15-.06.12-.1.18,0,.32,0,.21,0,.17-.12.2-.14,0-.17,0-.23.13-.45.06-.21.07-.22.08-.18.08-.12.18-.13.25-.06.23,0,.24,0,.08-.23.14-.17.15-.14.18-.11.15-.07.06-.09v-.25l.06-.11,0-.2.08-.4,0-.1.1,0,.08-.17.21-.17.15-.1.2,0,.12-.05.11-.21.43-.32.28-.35.31-.36.21-.12.2-.05.27,0,.17,0,.21-.1.14-.12.11-.18.08-.14.2-.06Z"/><path class="cls-5" d="M122,158.68h-.21l-.24-.21-.11-.2-.18-.18-.16-.22-.14-.2-.13-.28-.16-.18,0-.16v-.2l.12-.2.18-.12.15-.11.07-.22.17-.14.18-.24.06-.2.14-.2.27-.08h.17l.15-.2.19-.16h.14l.19-.15.18-.06.34.07.28.16.16.17.09.19.13.11.15.13.13.12.17.19.06.19,0,.19v.15l-.22,0v.28l-.18.08-.14.1,0,.15,0,.12.07.12-.09.13-.19.12-.26.14-.2.07-.22,0-.19,0-.15,0-.2.05,0,.07,0,.14,0,.15-.1.09-.11,0-.08,0,0,.12v.08l-.1.09-.14,0-.07-.05Z"/><path class="cls-5" d="M124.26,143.11l-.19,0-.2.06-.08.14-.11.18-.14.12-.21.1-.17,0-.27,0-.2.05-.21.12-.31.36-.28.35-.43.32-.11.21-.12.05-.2,0-.15.1-.21.17-.08.17-.1,0,0,.1-.08.4,0,.2-.06.11v.25l-.06.09-.15.07-.18.11-.15.14-.14.17-.08.23-.24,0-.23,0-.25.06-.18.13-.08.12-.08.18-.07.22-.06.21-.13.45,0,.23,0,.17-.2.14-.17.12-.21,0-.32,0-.18,0-.12.1-.15.06-.26,0-.14-.12-.12-.06h-.14l-.17,0-.09-.08-.17,0-.27,0-.05.05-.14,0-.07-.1-.13-.16-.15-.11-.16-.12-.2-.15-.17,0h-.26l-.2,0-.23.1-.21.15,0,.17v.17l-.05.14-.1.13v.13l0,.22a1.71,1.71,0,0,0-.07.18l-.12.14-.15.1-.16.08-.24.11-.08.09-.1.15-.11.15-.16.13-.22.08-.13,0-.09.11,0,.18h-.25l-.11,0-.2,0h-.11l-.13.09h-.22l-.23-.11-.34,0-.16.16-.09-.14-.06-.38V151l0-.11.13-.13.14-.19.06-.19,0-.2,0-.13-.1-.15a1.42,1.42,0,0,1-.11-.18s-.07-.18-.07-.18l0-.2,0-.22-.08-.1-.17-.16,0-.16,0-.13-.14-.18-.22-.16-.2-.15-.13-.1v-5h1.52l.14-.17v-2l0-2.13v-2.18l.1-.08h.82l.31-.08.57-.15.42,0,.38-.14.31,0,.38-.08h.54l.16.24,0,.23.16.16.14.13h.14l.2-.16.19-.18.26-.22.22-.09.29,0,.2,0h.13l.15-.15.19-.13.21-.11h.46l.09.13.1.15.13.16.16.17.09.17.08.19.31.28.1.19.08.17.16.16.13.13v.29l.08.15.09.2.08.3.22.17.31.28.23.17.11.09.45.19s.11.17.13.17l.25.08.17.09,0,.16v.36h.31l.09,0h.24l.12.11,0,.22-.07.33,0,.2,0,.21.24.18.15.16.1.2.06.07.17,0,.17.12.3.14.24.08.21.12.27.17.22,0,.07.18.13.1.11.07"/><polygon class="cls-5" points="108.69 150.15 108.68 151.81 108.68 152.76 108.68 153.93 108.69 154.48 108.7 154.65 108.57 154.65 108.34 154.71 108.06 154.84 107.8 155.03 107.6 155.19 107.36 155.52 107.2 155.59 107.04 155.57 106.87 155.44 106.62 155.36 106.32 155.34 106.19 155.38 105.94 155.44 105.77 155.44 105.6 155.48 105.47 155.44 105.3 155.3 105.14 155.22 104.98 155.22 104.88 155.13 104.73 155.07 104.52 155.05 104.34 155.04 104.34 154.89 104.3 154.76 104.21 154.67 104.21 154.53 104.26 154.43 104.28 154.35 104.21 154.24 103.97 154.14 103.98 153.95 103.91 153.88 103.57 153.88 103.37 154.06 103.39 154.23 103.27 154.29 103.19 154.61 103.04 154.65 102.7 154.95 102.55 154.86 102.39 154.7 102.17 154.43 101.91 154.23 101.67 154.02 101.45 153.81 101.43 153.72 101.44 153.66 101.48 153.63 101.39 153.55 101.29 153.44 101.23 153.35 101.19 153.23 101.14 153.11 101.09 152.97 101.04 152.85 100.92 152.72 100.81 152.59 100.78 152.47 100.75 152.21 100.71 152.08 100.67 151.88 100.57 151.77 100.5 151.65 100.5 151.53 100.44 151.42 100.42 151.27 100.51 151.27 100.65 151.27 100.5 151.11 100.46 150.91 100.2 150.63 100.15 150.43 100.14 150.35 100.19 150.31 100.19 150.14 100.16 150.06 100.11 149.96 100.09 149.8 99.99 149.72 99.97 149.56 100.02 149.43 100.04 149.26 99.97 149.03 99.9 148.71 99.96 148.61 100.01 148.49 100.03 148.34 99.96 148.21 99.88 148.05 99.82 147.81 99.63 147.54 99.55 147.44 99.58 147.4 99.59 147.26 99.55 147.16 99.44 146.93 99.35 146.66 99.36 146.43 99.44 146.38 99.45 146.18 99.4 145.96 99.39 145.63 99.31 145.54 99.31 145.41 99.39 145.33 99.42 145.16 99.32 144.98 99.24 144.71 99.24 144.57 99.31 144.51 99.32 144.67 99.38 144.67 99.44 144.6 99.47 144.49 99.47 144.27 99.45 144.04 99.36 143.65 99.1 143.2 98.92 142.87 98.51 142.5 98.51 142.29 98.36 142.11 98.33 141.95 98.13 141.71 97.87 141.34 97.64 140.9 97.46 140.49 97.41 140.29 97.36 140.12 97.36 139.92 97.29 139.76 97.13 139.55 96.91 139.3 96.74 138.9 96.55 138.48 96.33 138.02 96.1 137.65 95.99 137.4 95.81 137.19 95.61 137.02 95.36 136.79 95.25 136.57 95.04 136.18 94.88 135.69 94.8 135.18 94.8 134.51 94.91 134.46 95.09 134.41 95.32 134.36 95.56 134.36 95.73 134.43 95.97 134.46 96.14 134.44 96.24 134.38 96.55 134.21 96.78 134.07 97.06 133.98 97.27 133.98 97.58 134.06 97.76 134.24 98.08 134.43 98.41 134.65 98.62 134.84 99.08 134.81 99.92 134.78 100.76 134.78 101.58 134.82 102.36 134.78 103.31 134.78 104.16 134.78 105.17 134.78 106.11 134.78 106.33 135.01 106.67 135.36 106.97 135.49 107.08 135.46 107.24 135.39 107.58 135.41 107.69 135.49 107.83 135.55 108.12 135.55 108.31 135.57 108.51 135.58 108.72 135.55 109.06 135.55 109.27 135.64 109.62 135.82 109.88 135.89 110.09 135.87 110.35 135.79 110.55 135.79 110.75 135.85 110.95 135.95 111.2 136 111.33 135.91 111.51 135.79 112.03 135.73 113.03 135.52 113.7 135.4 114.25 135.26 114.56 135.19 114.95 135.12 115.34 135.03 115.54 134.95 115.74 134.85 115.92 134.93 116.14 134.96 116.46 134.93 116.77 134.93 116.96 135.04 117.2 135.3 117.33 135.57 117.3 135.57 117.19 135.57 116.84 135.57 116.63 135.68 116.44 135.81 116.29 135.95 116.16 135.96 115.95 135.93 115.67 135.98 115.45 136.07 115.19 136.29 115 136.48 114.8 136.64 114.66 136.65 114.52 136.52 114.36 136.36 114.31 136.13 114.15 135.89 114.03 135.89 113.61 135.89 113.23 135.97 112.92 136.01 112.54 136.16 112.12 136.19 111.55 136.34 111.24 136.41 110.67 136.41 110.42 136.41 110.32 136.5 110.32 138.68 110.36 140.81 110.35 142.78 110.21 142.95 108.69 142.95 108.69 145.54 108.69 147.98 108.69 150.15"/><path class="cls-5" d="M114.25,135.26l.31-.07.39-.07.39-.09.2-.08.2-.1.18.08.22,0,.32,0h.31l.19.11.24.26.17.27h.37l.34,0,.24,0,.17.12.35,0,.15-.09.3,0,.29,0,.2.14.23,0,.25-.12.3,0,.1-.07v-.19l.29-.33.34-.42.36-.41.41-.33.31-.21.53-.21.61-.12.06-.26v-.29l.06-.08-.06-.17,0-.16.12-.14.17,0,.21-.26.46-.17.55-.05h1v-.21l0-.14v-.28l-.06-.11L126,131l-.08-.1v-.15l.19-.06.31-.1.38-.2.53-.08.62-.19.4-.18.37-.13.41-.16.6-.15.25-.1.31-.13.28-.05.19-.07-.17-.07,0-.14-.07-.16-.1-.12v-.12l-.11-.08h-.18l.11-.13.22-.12.05-.17.07-.28v-.23l.13-.18,0-.1-.1-.08-.12-.11.08-.2.1-.15.12,0,.08.08.08,0s.09-.07.09-.07l.1-.07h.1l.1-.07.07-.12.15-.07v-.07h-.22l-.16-.11-.05-.26v-.18l.1-.15,0-.22-.07-.19-.08-.14,0-.25,0-.13.14-.16.07-.2-.14-.24-.11-.12,0-.18.2,0,.2-.08.15-.09.07-.2v-.16l-.11-.12-.07-.09v-.29l-.09,0-.14,0-.09-.12-.06-.15,0-.14,0-.08,0-.09-.09-.06a1.46,1.46,0,0,1-.09-.13l0-.14-.05-.08h-.1l0,.08,0,.11h-.09l-.06-.12v-.08a1.43,1.43,0,0,0,0-.16l-.19-.14-.13-.12,0,0-.09-.1-.11,0h-.19l-.15-.09-.1-.08-.22-.06h-.16l-.11-.11h-.3l-.07-.18-.3-.14-.19-.17-.11-.07-.16,0-.1,0h-.38l0,.1,0,.11-.06.08-.09,0-.16-.06-.09-.11-.08-.11-.14-.09-.12,0-.06-.06,0-.06-.07.06-.12.08-.06,0v-.08l-.08,0-.05-.13v-.15l0-.1-.7.07-.72.06-.92.11-.26,0,0,0,.17.07.16.14,0,.15-.07.27-.09.19-.11.14-.1.11-.12.11-.12.19,0,.11,0,.12v.07h-.09l0-.07h-.17l0,.16.09.19v.16l.1.06,0,.13-.09.15,0,.27v.34l0,.27.06.2v.15l-.09.09-.07.14-.07.17,0,.17,0,.18,0,.25,0,.19-.09.11,0,.1.09.14,0,.18v.16l.12.11.22.14.21.11.17.21.2.21.11.15.14,0,.2,0,.11.09h.15s.1-.16.1-.17a1.35,1.35,0,0,0,0-.18l.17-.11.14,0,.11,0,.07-.09.07.19v1.9l-.11.12-.16-.1,0-.1.1-.07,0-.1-.08-.06-.1,0-.14.11-.2.12-.17.07-.19,0-.08,0-.09.08-.21-.15v-.17l-.14-.16s-.07-.18-.07-.2a.84.84,0,0,0-.11-.21,1.88,1.88,0,0,0-.31-.06l-.14-.15,0-.12.07-.1a1.16,1.16,0,0,0-.11-.16,1.68,1.68,0,0,1-.32-.09s-.05-.13-.08-.14l-.25-.06-.23-.06L122,126l-.1,0-.16.11-.15,0-.17-.12a1.76,1.76,0,0,1-.12-.2s0-.2,0-.2l-.19-.13-.2-.07v-.15l0-.19-.22,0-.06.21-.07.17-.11.12-.23.07-.22,0h-.19l-.11-.1-.16,0-.18,0-.2-.06-.15.05-.23-.09-.13-.1-.33,0v-.07l-.15.08-.14,0v-.12l-.19-.09-.12-.24v-.23l.09-.15v-.1h-.09l-.15,0-.19,0h-.3l-.14.08-.18.07-.07.11-.14.12h-.2l-.09-.06h-.22l.15-.17,0-.09a.74.74,0,0,0,0-.17s0-.13,0-.13a1,1,0,0,0-.15-.09h-.22l0-.14-.07-.08-.15,0,0,.41v.26l.06.14v.15l-.12.17v.37l.06.13-.1.22,0,.17.07.13.14.12v.25l-.15.21-.14.13,0,.15v.17l0,.14.11.11.11.14-1.14,0-1.29,0H112V132l0,.82.12.38.12.21.13.15.17.14.14.07.08.18.16.21.15.09.15,0,.13.12.19.18.2.21.18.22.15.2,0,.06,0,0Z"/><path class="cls-5" d="M94.8,134.51l.11,0,.18-.05.23,0h.24l.17.07.24,0,.17,0,.1-.07.31-.16.24-.14.27-.09h.21l.31.08.18.18.32.19.33.22.21.19.46,0,.84,0h.84l.81,0,.79,0h3.75l.22.23.34.35.3.13.11,0,.16-.07.34,0,.11.08.14.06h.29l.19,0h.2l.21,0h.34l.21.09.35.18.26.07.21,0,.26-.08h.19l.21.06.2.1.25.05.13-.09.18-.12.52-.06,1-.21.13,0,.43-.08.39-.09.19-.07,0,0,0-.06-.15-.2-.18-.22-.2-.21-.19-.18-.13-.12-.15,0-.15-.09-.16-.21-.08-.18-.14-.07-.17-.14-.13-.15-.12-.21-.12-.38,0-.82v-4.64H113l1.29,0,1.14,0-.11-.14-.11-.11,0-.14v-.17l0-.15.14-.13.15-.21V126l-.14-.12-.07-.13,0-.17.1-.22-.06-.13v-.37l.12-.17v-.15l-.06-.14v-.26l0-.41-.11,0-.06.1,0,.11h-.1l-.12-.1h-.19l-.17,0-.23-.07-.09.06-.18.13s-.08.07-.12.07l-.23,0-.08,0-.23,0h-.24l-.2-.06-.19,0-.13.14-.18,0-.14-.14a.31.31,0,0,0,0-.14,2.17,2.17,0,0,0-.11-.22l.22-.13.06-.13-.11-.19,0-.3-.11-.29v-.48l-.12-.17-.14-.05-.17-.16-.2-.26-.06-.48,0-.53.08-.39.12-.43,0-.19-.16-.29-.16-.32,0-.3.13-.29,0-.19,0-.21-.19-.14h-.79l-.82.08-.32-.08-.09-.26v-.25l-.14-.09-.21,0-.18.14-.08.06-.45,0H108l-.14.1,0,.37s0,.16,0,.18a1,1,0,0,1-.1.15l-.13.16,0,.15,0,.17v.14l-.08.09-.16,0-.36,0-.22,0-.21-.16h-.18l-.14.14-.07.09-.12,0-.12-.09-.25,0-.1.13-.2.06-.44,0-.32,0h-.21V119l-.21-.37-.26-.37-.22-.29-.24-.25-.08-.57-.22-.34-.11-.5,0-.12,0-.14,0-.18-.17-.22,0-.18v-.09h-.16l-.23.09-.25,0-.38,0-.61,0-.59,0-.59,0-.45,0h-.3l-.36,0-.52,0h-.89l-.24-.05-.39.14-.42.15-.25,0-.17.1-.24,0-.11,0,.11.28.16.19.09.27.18.24.24.24.11.25.08.37.13.39.2.49.2.42.2.33.15.19,0,.07,0,.09,0,.12,0,.16.06.19v.07l-.17,0-.16.06-.14.19-.06.11-.09.09,0,.08.06.15.07.2.07.17.08.21,0,.16,0,.2.22.2,0,.15,0,.13.1.17.15.11.09.2,0,.12.31.29.08.13,0,.23v.11l.09.1v.45l0,.18,0,.24,0,.23,0,.37,0,.31-.11.32-.26.4-.26.29-.34.07-.19.19-.14.1-.07,0v.12l0,.18-.15.16-.2.19-.14.1,0,.12,0,.09-.12,0,0,.13.07.21-.06.25,0,.13a.62.62,0,0,0-.12.08,1.28,1.28,0,0,1-.1.17l0,.15-.06.21,0,.22,0,.28-.11.42-.1.27-.09.17-.07.17,0,.11v.11l-.06,0-.12.08,0,.18,0,.13-.06.2-.11.18L95,132l-.14,0-.09.08v.15l.09.1v.31l.05.57v.22l0,.17,0,.12-.08,0,0-.14,0-.16v-.17H94.7l0,.13,0,.13.09.17,0,.12V134l0,.21v.26Z"/><polygon class="cls-5" points="95.53 115.25 95.99 115.25 96.05 115.06 96.05 114.83 96.05 114.61 96.05 114.43 96.05 114.23 96.11 114.05 96.26 113.87 96.44 113.73 96.61 113.59 96.77 113.5 97.06 113.38 96.91 113.25 96.74 113.12 96.62 113.01 96.5 112.96 96.42 112.96 96.39 113.07 96.36 113.16 96.25 113.23 96.04 113.31 95.9 113.36 95.84 113.41 95.82 113.51 95.8 113.6 95.75 113.67 95.59 113.76 95.43 113.8 95.26 113.88 95.22 113.94 95.36 114.19 95.38 114.24 95.47 114.26 95.5 114.38 95.46 114.46 95.49 114.56 95.57 114.67 95.61 114.8 95.53 114.87 95.49 115.01 95.51 115.15 95.53 115.25"/><path class="cls-5" d="M121.26,97.4l.14.1.21.06.09.12a.88.88,0,0,1,.06.1.85.85,0,0,0,0,.16l.15.13h.33v.21l.16,0,.1.08h.06l.14,0,.08.09.1,0,.1-.08.09,0,.11-.06,0-.12.06-.09h.08l.08,0,.13.12h.36l.15.14h.14l.14-.07.24-.25.06-.11.08-.06.15,0,.14.1.16.09.07.07v.26l.24.23.28.27s0,.13,0,.15l.16.07.16,0,.15.05.12.14,0,.12a1.55,1.55,0,0,1,0,.15l.16,0h.09l.13.08.17,0v.07l0,.11,0,.13-.08.11,0,.1-.05.16v.2l0,.07.12.14,0,.17-.06.08-.11.1,0,.13s0,.1,0,.11a.67.67,0,0,0,.06.12l.1.07.1,0h.09l.06,0,.07,0,.08,0,0,.1v.09l.16,0,.08.07.1.1-.07.09-.17.14-.24.14-.24.19-.2.16-.22.2-.17.22-.1.2-.08.11,0,.12-.11.15-.09.07-.13.12-.12.13-.14.15-.07.13V105l-.09,0-.07.09,0,.14-.08.12,0,.12-.07.13L125,106l-.09,0h-.1l-.06.06-.11,0-.06.21-.07.1-.06.08-.09.12,0,.11v.06l0,.06,0,.06,0,.06h.06s0,0,0,0h.1l.12-.06.06-.09,0,0,0,0,.08.11v.35l-.14.09-.07.12v.1l0,.12,0,.12v.22l-.07.12-.17.08-.2.15-.08.08-.12.14h0l-.07,0-.08-.06-.07,0-.06,0,0,.06.07.07v.13l-.08.1,0,.08,0,.07-.05.06,0,0v.06l0,.06,0,.12-.06.07,0,.06v.06l0,0,.06,0,0,.08,0,0-.07,0,0,.07,0,.16V110l.07.09,0,.07.08.1.16.23.15.22,0,.17V111l0,.16v.26l0,.37v.27l0,.06v.27l0,.11v.26l0,.08,0,.05h0l.07-.08,0-.2,0-.11v0l0,.19,0,.17,0,.13,0,.1-.09.09-.06.12,0,.18v.29l0,.23v.18l0,.16.11.18.1.15.08.13.06.1v.09l-.05,0,.05,0v.07l-.15.17-.09.1,0,.08v.12l.07.1.07.13.07.16.06.1,0,.12v.09l.06.07v0l.08,0,0,.14,0,.2.15.1.11.12.08.17.1.09.19.09.2.11.2.15.19.16.1.11,0,.07,0,.17v.17l.07.1,0,.12,0,.15,0,.16.1.13.08.09.06.1v.14h-.21l-.7.07-.72.06-.92.11-.26,0,0,0-.07.08,0,.08-.06.13-.11.1-.07.07-.08.1-.08.09-.12.17-.08.1-.08.11,0,.1v.4l.08,0H123l.06,0,0,0,0,.16.09.19v.16l.1.06,0,.13-.09.15,0,.27v.34l0,.27.06.2v.15l-.09.09-.07.14-.07.17,0,.17,0,.18,0,.25,0,.19-.09.11,0,.1.09.14,0,.18v.16l.12.11.22.14.21.11.17.21.2.21.11.15.14,0,.2,0,.11.09h.15s.1-.16.1-.17a1.35,1.35,0,0,0,0-.18l.17-.11.14,0,.11,0,.07-.09.07.19v1.9l-.11.12-.16-.1,0-.1.1-.07,0-.1-.08-.06-.1,0-.14.11-.2.12-.17.07-.19,0-.08,0-.09.08-.21-.15v-.17l-.14-.16s-.07-.18-.07-.2a.84.84,0,0,0-.11-.21,1.88,1.88,0,0,0-.31-.06l-.14-.15,0-.12.07-.1a1.16,1.16,0,0,0-.11-.16,1.68,1.68,0,0,1-.32-.09s-.05-.13-.08-.14l-.25-.06-.23-.06L122,126l-.1,0-.16.11-.15,0-.17-.12a1.76,1.76,0,0,1-.12-.2s0-.2,0-.2l-.19-.13-.2-.07v-.15l0-.19-.22,0-.06.21-.07.17-.11.12-.23.07-.22,0h-.19l-.11-.1-.16,0-.18,0-.2-.06-.15.05-.23-.09-.13-.1-.33,0v-.07l-.15.08-.14,0v-.12l-.19-.09-.12-.24v-.23l.09-.15v-.1h-.09l-.15,0-.19,0h-.3l-.14.08-.18.07-.07.11-.14.12h-.2l-.09-.06h-.22l.15-.17,0-.09a.74.74,0,0,0,0-.17s0-.13,0-.13a1,1,0,0,0-.15-.09h-.22l0-.14-.06-.09-.12,0h0l-.11,0-.06.1,0,.11h-.1l-.12-.1h-.19l-.17,0-.23-.07-.09.06-.18.13s-.08.07-.12.07l-.23,0-.08,0-.23,0h-.24l-.2-.06-.19,0-.13.14-.18,0-.14-.14a.31.31,0,0,0,0-.14,2.17,2.17,0,0,0-.11-.22l.22-.13.06-.13-.11-.19,0-.3-.11-.29v-.48l-.12-.17-.14-.05-.17-.16-.2-.26-.06-.48,0-.53.08-.39.12-.43,0-.19-.16-.29-.16-.32,0-.3.13-.29,0-.19,0-.21-.19-.14h-.79l-.82.08-.32-.08-.09-.26v-.25l-.14-.09-.21,0-.18.14-.08.06-.45,0H108l-.14.1,0,.37s0,.16,0,.18a1,1,0,0,1-.1.15l-.13.16,0,.15,0,.17v.14l-.08.09-.16,0-.36,0-.22,0-.21-.16h-.18l-.14.14-.07.09-.12,0-.12-.09-.25,0-.1.13-.2.06-.44,0-.32,0h-.21V119l-.21-.37-.26-.37-.22-.29-.24-.25-.08-.57-.22-.34-.11-.5,0-.12,0-.14,0-.18-.17-.22,0-.18v-.09h-.16l-.23.09-.25,0-.38,0-.61,0-.59,0-.59,0-.45,0h-.3l-.36,0-.52,0h-.89l-.24-.05h-.1l-.18.07-.2,0-.15,0-.19,0-.18,0h-.23l-.13,0-.17-.06-.15-.11-.09-.15H96l.06-.19v-.83l.06-.18.15-.18.17-.14.18-.14.16-.09.29-.12.12,0,.12.11,0,.06a.73.73,0,0,0,.1.09l.19,0h.13l.12-.1.07-.06h.2v-.54h.06l.13,0,.07.09.17-.07.06-.07.11,0,.13-.07.11,0,.2,0h.18V113l0,0s.06.1.08.1.06,0,.06.06,0,.11,0,.11l0,.15,0,.14a.56.56,0,0,0,0,.15.28.28,0,0,0,.09.06l.15,0a1.89,1.89,0,0,0,.19-.14l.15-.13.24-.32.25-.3.27-.27.35-.28.31-.09h.18l.18-.13.2-.48.17-.35,0-.57,0-.34.07-.18.08-.19,0-.22-.09-.23v-.19l.29-.33.42-.34.18-.29.12-.28.1-.31.19-.24.22-.13.2,0h.2l.35-.33.15-.21,0-.16,0-.12.11-.15,0-.12,0-.23.06-.24.08-.14.07-.12,0-.14.11-.15.11-.11V105l-.1-.15,0-.06,0-.18v-.14l0-.12,0-.1v-.16l.11-.13.07-.21v-.2l.1-.23a1,1,0,0,1,.09-.14,2.1,2.1,0,0,0,0-.43l0-.33,0-.34.08-.22.1-.13,0-.19.08-.13.12-.17v-.15l.06-.14.15-.17.14-.17,0-.44v-.36l0-.2-.08-.22.08-.23v-.29l-.07-.15.16-.2.15-.12.13-.15.14-.14.13-.18.12-.18.16-.12.2-.14.21-.07h.44l.16.12h.13a.67.67,0,0,0,.18.07h.18a1.16,1.16,0,0,1,.2.13l.09,0,.14,0,.14.11.08.15.06.15.1.16.14.07h.62l.09.1.06.08.15,0h.12l.11.06.13.06h.13l.11,0,.06,0,.1,0,.07-.06a.71.71,0,0,1,.15,0,.32.32,0,0,1,.11,0l.07,0,.1.07.23,0,.3,0,.1,0h.2l0,0,.12-.11.1,0,0-.06V98.6l0-.13s.06-.1.12-.1h0l0-.23.15-.12.26-.08h.12l.25.11.36.07.22-.06.15-.11.31-.16h.16l.2,0,.16-.07h.18l.2-.06.14-.07.07-.12,0-.09h.15l.1.1.1.11.13.07.27,0,.15-.09h.16l.09-.11h.14l.11-.09v-.13a.93.93,0,0,1,.07-.13c0-.06.24-.11.24-.11h.42l.23.11h.46l.13.11.12.07h.08l.13.13.1,0,.17-.08H120l.15,0,.06,0,.11-.06v-.1l.07,0,.12-.13h.34l.19.11.16.08Z"/><path class="cls-5" d="M102.25,102.09l0-.33-.13-.15.07-.08,0-.24a1.09,1.09,0,0,0,0-.17s-.09-.2-.09-.2l-.09-.13-.18-.16-.16-.15-.12-.07-.17,0-.14-.16L101,100l-.33-.42-.17-.23,0-.17V98.8l-.13-.18-.18-.17-.22-.13-.12-.18,0-.37-.11-.25-.06-.3-.15-.17.14-.23,0-.42,0-.31-.21-.15-.08-.08v-.13l.18-.07.26-.2.18-.23.13-.21.1-.22.17-.15.14-.16,0-.16.07-.23.07-.18.1-.16.16-.08.23-.21.12-.15.07-.15,0-.14-.11-.16-.1-.08-.1-.15-.08-.3-.07-.22-.12-.31-.2-.19-.3-.26-.27-.21-.3-.22-.3-.25-.08-.07,0-.16-.1-.14L99,90.18,98.82,90l-.13-.1,0-.08,0-.12.07-.12.15-.13.08-.1.11-.06.31,0,.27,0,.16,0,.13,0h.2l.19,0,.18,0h.28l.12,0,.17,0h.17l.09-.06,0-.12-.16-.13-.17-.17-.15-.12-.13-.21-.11-.14-.1-.11,0-.18-.12-.14-.06-.12,0-.11-.07-.16.09-.14v-.18l0-.12.06-.36v-.3l-.08-.16.06-.17-.11-.14,0-.18-.08-.1-.15-.14,0-.39-.09-.18v-.23l-.24-.08v-.12l-.18,0v-.16h-.16l0,.25-.06,0-.24,0h-.1l0,.09v.07l0,.06L99,85l0,.07v.18h.36l.15.12.14.12.09.11a2.94,2.94,0,0,1,0,.42l0,.11-.13.15,0,.08.06.12,0,.11-.06.09-.11.08-.2.16-.17.1-.21.13-.22,0-.11,0-.11.12-.08.24-.26.21v.23l-.11.11-.08.29-.12.32-.08.25V89l-.2.12-.13.09-.06.08,0,.39,0,.12-.07.21h-.26l-.19.1-.08.1,0,.09v.46l-.09.1,0,.15v.23l-.2.16-.11.08h-.25l0,.15,0,.1-.13,0-.09.06-.09.09,0,.17,0,.17-.06.33-.11.18-.14.17,0,.22,0,.12-.06.18,0,.09,0,.1-.09.11,0,.11V94l0,.15,0,0-.17,0-.15,0-.09.1,0,.23,0,.19-.1.1-.13.1-.11,0H94l-.12,0-.1,0-.07,0v-.27l-.15-.06-.09,0-.08-.07,0-.11,0-.14-.11-.08H93s-.08-.06-.08-.08L92.84,94h-.06v.13l0,.14s0,.08-.06.09l-.13.07-.12,0-.18-.06-.13-.16-.07,0-.07.05-.07.06-.13.07-.1.08v.07l-.08,0H91.5l0,.11,0,.13-.06.1-.13.14-.22.11-.13.06-.12.05,0,.14-.09.21-.17.16-.19.12-.18.09-.08.1,0,.1v.12l0,.12s0,0,0,0a.34.34,0,0,1,0,.11L90,96.7l-.07.11,0,.07,0,.13v.17l-.07.21-.09.17-.08.08-.05.08,0,.16V98l.15,0,0,0,.06,0,.08,0L90,98l0,.14,0,.09,0,.11,0,.17v.09l.06.08v.09l.06,0,0,.06,0,.1,0,.08.05,0,.14.06h.09l.12.06.08.06.07.1H91l.06,0v-.08l0,0h.1l0-.1-.08,0v0h.32l.06.05.08,0v.07l0,.06,0,.07.08.08,0,.09-.12,0-.11-.1v-.22l-.06,0,0,.11a.87.87,0,0,0,0,.1.66.66,0,0,0,0,.13l0,.1,0,.12.06.13.1.13.11.08.08.07.08.07.09.15.07.22v.19l-.06.21,0,.19,0,.22,0,.22,0,.24,0,.1.13.09.09.09.12.06.09,0h.13l.1,0H94.2V102l.41,0,.37,0h.47l.16,0,.13.06H97l.08-.06h.21l.12.06.07.09.62,0,.45,0h.57l.45,0,.23,0,.17.09.25.08.2,0,.14,0,.09,0,.11.08.09,0h.4l.17.06.16.07.13,0,.14.12.16.12.13,0,0-.06,0-.14v-.13l-.07-.12,0-.1,0-.09v-.11l.09-.08Z"/><polygon class="cls-5" points="89.55 98.17 89.55 98.41 89.69 98.41 89.69 98.38 89.76 98.41 89.76 98.32 89.66 98.17 89.61 98.14 89.55 98.14 89.55 98.17"/><path class="cls-5" d="M121.07,97.05l-.14-.12,0-.17v-.14l0-.07v-.08l-.05-.09,0-.12-.06-.07-.23-.21h-.13l-.21-.09-.1-.14H120l-.21,0-.17-.1v-.07l.09-.09,0-.12-.07,0-.1,0-.15-.07-.05-.08,0-.15.06-.1.07-.09,0-.1-.09-.06-.12,0-.11,0-.08-.13-.3-.36-.34-.2-.2-.1-.25-.05-.18-.1-.06-.09,0-.13-.1,0h-.13a.7.7,0,0,1-.06-.09.83.83,0,0,1,0-.12l.12-.05,0-.1,0-.18-.08-.13-.07,0-.06,0-.12,0-.14-.11-.1-.14-.14-.21-.12,0h-.34l-.35,0-.18-.07-.11-.12-.07-.17v-.12l.08-.11.05-.09v-.11H115l-.22-.06-.15-.05s0-.07,0-.07l.05,0,.07-.1v-.09l-.07-.07-.12-.06,0-.2,0,0,.15-.07,0-.1v-.13l0-.07.1,0,0-.08-.08,0,0-.09.08-.08.06-.13v-.19l0-.13-.1-.14-.14-.29-.18-.27-.13-.24-.28-.31-.34-.32-.14-.14,0-.1-.13,0h-.21l-.23-.06h-.43l-.16.07-.16,0-.21,0-.31.06,0,.11-.07.2v.31l-.07.19-.1.17-.14.23-.19.13-.19.12-.22.15-.21.21-.12.14V90l-.11.09-.15.1-.2.08-.11.09-.11.07a.49.49,0,0,1-.13.08s0,.06,0,.06l0,.12h-.83l-.15.1-.22,0-.21,0-.18,0h-.62l-.15,0H107l-.11.08,0,.12,0,.11.09.1.09.06.12.06,0,.1v.11l-.1.18a1.78,1.78,0,0,0-.23.09,1.21,1.21,0,0,0-.12.13l-.15.16,0,.16-.12.2h-.71l-.19.09h-.81l-.15.06-.13.06-.1.06-.22.13L104,93l-.15.11h-.11l-.19,0-.17.12-.2.06-.13-.09-.08-.1V93l-.06,0h-.36l-.07.1-.09.07-.1.13-.15.1-.15.08-.17.08-.24-.07-.06-.11v-.1l-.18-.06-.07.15-.12.15-.23.21-.16.08-.1.16-.07.18-.07.23,0,.16-.14.16-.17.15-.1.22-.13.21-.18.23-.26.2-.18.07v.13l.08.08.21.15,0,.31,0,.42-.14.23.15.17.06.3.11.25,0,.37.12.18.22.13.18.17.13.18v.36l0,.17.17.23.33.42.26.24.14.16.17,0,.12.07.16.15.18.16.09.13s.08.19.09.2a1.09,1.09,0,0,1,0,.17l0,.24-.07.08.13.15,0,.33.08,0,.07-.15.06-.15.11-.19.09-.19.09-.36,0-.23.06-.11,0-.14,0-.14v-.33l.09-.1.29,0,.3,0,.37,0,.14,0,.12,0,.08,0h.32l.22,0H105l.13.08h.11l.13,0,.13,0,.1.08.1.06.07-.09.15-.1.1,0h.1l.13.09.12.15v-.49l-.08-.17,0-.12.08-.23v-.29l-.07-.15.16-.2.15-.12.13-.15.14-.14.13-.18.12-.18.16-.12.2-.14.21-.07h.44l.16.12h.13a.67.67,0,0,0,.18.07h.18a1.16,1.16,0,0,1,.2.13l.09,0,.14,0,.14.11.08.15.06.15.1.16.14.07h.62l.09.1.06.08.15,0h.12l.11.06.13.06h.13l.11,0,.06,0,.1,0,.07-.06a.71.71,0,0,1,.15,0,.32.32,0,0,1,.11,0l.07,0,.1.07.23,0,.3,0,.1,0h.2l0,0,.12-.11.1,0,0-.06V98.6l0-.13s.06-.1.12-.1h0l0-.23.15-.12.26-.08h.12l.25.11.36.07.22-.06.15-.11.31-.16h.16l.2,0,.16-.07h.18l.2-.06.14-.07.07-.12,0-.09h.15l.1.1.1.11.13.07.27,0,.15-.09h.16l.09-.11h.14l.11-.09v-.13a.93.93,0,0,1,.07-.13c0-.06.24-.11.24-.11h.42l.23.11h.46l.13.11.12.07h.08l.13.13.1,0,.17-.08H120l.15,0,.06,0,.11-.06v-.1l.07,0,.12-.13h.34l.19.11.16.08Z"/><path class="cls-5" d="M95.22,113.94l0-.06.17-.08.16,0,.16-.09,0-.07,0-.09,0-.1.06,0,.14,0,.21-.09.11-.07,0-.09,0-.11h.08l.12.05.12.11.2.15.12.11.12,0,.12.11,0,.06a.73.73,0,0,0,.1.09l.19,0h.13l.12-.1.07-.06h.2v-.54h.06l.13,0,.07.09.17-.07.06-.07.11,0,.13-.07.11,0,.2,0h.18V113l0,0s.06.1.08.1.06,0,.06.06,0,.11,0,.11l0,.15,0,.14a.56.56,0,0,0,0,.15.28.28,0,0,0,.09.06l.15,0a1.89,1.89,0,0,0,.19-.14l.15-.13.24-.32.25-.3.27-.27.35-.28.31-.09h.18l.18-.13.2-.48.17-.35,0-.57,0-.34.07-.18.08-.19,0-.22-.09-.23v-.19l.29-.33.42-.34.18-.29.12-.28.1-.31.19-.24.22-.13.2,0h.2l.35-.33.15-.21,0-.16,0-.12.11-.15,0-.12,0-.23.06-.24.08-.14.07-.12,0-.14.11-.15.11-.11V105l-.1-.15,0-.06,0-.18v-.14l0-.12,0-.1v-.16l.11-.13.07-.21v-.2l.1-.23a1,1,0,0,1,.09-.14,2.1,2.1,0,0,0,0-.43l0-.33,0-.34.08-.22.1-.13,0-.19.08-.13.12-.17v-.15l.06-.14.15-.17.06-.08.08-.1,0-.12v-.31l-.12-.15-.13-.09H106l-.1,0-.15.1-.07.09-.1-.06-.1-.08-.13,0-.13,0h-.11l-.13-.08h-.19l-.22,0h-.32l-.08,0-.12,0-.14,0-.37,0-.3,0-.29,0-.09.1v.33l0,.14,0,.14-.06.11,0,.23-.09.36-.09.19-.11.19-.06.15-.07.15-.08,0-.12,0,0,.08v.11l0,.09,0,.1.07.12v.13l0,.14,0,.06-.13,0-.16-.12-.14-.12-.13,0-.16-.07-.17-.06h-.4l-.09,0-.11-.08-.09,0-.14,0-.2,0-.25-.08-.17-.09-.23,0-.45,0h-.57l-.45,0-.62,0h-.07v.12l0,.11-.1,0-.1,0-.07.07v.09l0,.05.08,0,0,.09-.07.08-.06,0s0,.06,0,.08,0,.12,0,.12l0,.09,0,.09.06,0,.08.06,0,.14,0,0-.07.07,0,.07.06.06h.1l.13-.1.22-.09h.22l.2-.09h.26l.09-.08.11,0,.09.06h.23l.14,0,.08,0,.05.11,0,.19-.07.12v.3l0,.18v.22l0,.1-.09.07L99,105l0,.08-.13,0-.17.15v.44l-.08.28-.08.1.13.2.31.12.25.07.19.07.05.19v.18l0,.34v.51s0,.2,0,.2l0,.13,0,.14-.18.19,0,.12v.29l0,.09,0,.16-.07.08-.16,0-.11.09,0,.16,0,.2,0,.19-.13.09-.17-.07-.13-.19-.11-.16-.14-.15-.1-.06H98l0,.08a.46.46,0,0,1,0,.09s-.07.09-.07.09l-.13.07h-.14l-.15,0-.1,0-.13.06-.19.06-.12,0-.08-.27-.11-.16-.13-.14-.09-.13,0-.13-.11,0-.22-.07H96l0,.11,0,.1.09,0,0,.13,0,.2s0,.11,0,.14a1.13,1.13,0,0,1-.07.18l-.08.1-.27,0-.22-.06-.14-.08a.38.38,0,0,0-.11,0l-.15,0-.14.07-.11,0s-.09,0-.09,0a.33.33,0,0,1,0-.1l-.13-.05-.1,0-.08.09,0,.08.06.06a.58.58,0,0,1,0,.11v.16l0,.13-.1.15s0,.1,0,.13.09.07.09.07l.09,0,.07-.1h.06l.14.08.06.07,0,.1,0,.12a.43.43,0,0,0,0,.15l0,.08.07.2v.08l0,.14-.08.06,0,.09,0,.18,0,.1H95l-.18-.15-.11-.16-.08-.1-.11-.06h-.11l-.09,0v.16l0,.06-.12,0-.1,0-.09.1a.33.33,0,0,0-.08.06V112l0,.12-.06.07.14.13.19.16.21.24.27.25.22.19.12.14v.15l0,.19.12.14.1.11Z"/><polygon class="cls-5" points="91.61 101.97 91.74 102.06 91.83 102.15 91.94 102.21 92.04 102.23 92.17 102.22 92.27 102.17 92.43 102.16 92.71 102.15 92.98 102.16 93.25 102.17 93.45 102.18 93.72 102.18 94.01 102.18 94.19 102.18 94.19 102.59 94.19 102.99 94.19 103.41 94.19 103.97 93.95 104.08 93.38 104.08 92.78 104.08 92.37 104.08 92.1 104.08 91.95 104.14 91.84 104.14 91.8 104 91.8 103.92 91.73 103.92 91.69 104.01 91.41 104.03 91.35 104.07 91.28 104.07 91.24 103.99 91.19 103.94 91.13 103.92 91.02 103.9 91.02 103.95 90.91 103.96 90.91 103.82 90.96 103.68 91.03 103.61 91.06 103.47 91.15 103.39 91.22 103.3 91.27 103.16 91.31 103.06 91.41 102.91 91.51 102.77 91.56 102.54 91.56 102.33 91.56 102.14 91.58 102 91.61 101.97"/><path class="cls-5" d="M89.84,100.25,90,100l.12-.15.09-.11v-.11l-.09-.08-.18,0-.12,0-.13.1,0,.1v.12l0,.08,0,0V100l0,0,0,0-.1,0,0,0v.19l.07.05.11,0,.12,0h.07l.12-.07,0-.09Z"/><path class="cls-5" d="M94.2,103.4V104l-.25.11H92.1l-.15.06-.09,0-.16-.06-.32,0h0l0,.31v.31l0,.24-.06,0,0-.11,0-.11-.06,0-.14,0-.1,0,0,.1,0,0,.11.08.12.07.13,0,.12.1.07.1.05.13.1,0h.27l.18,0,.12,0,.09.07a.21.21,0,0,0-.08,0s-.15,0-.15,0l-.16,0v.06l.1,0,0,.07h-.23l0-.1,0,.07-.13-.13-.16,0H91.1l-.11,0,0-.08v-.08l0-.06,0,0h-.09l0,.07.06.13,0,.16,0,.07v.11h-.13l0,.21v.19l-.06.21-.06.16-.09.14-.11.12,0,.09-.06.09,0,.08v.07l.05.09v.06l-.13.07.15.06h.5l.18-.08.11-.09.07-.12.07-.1,0-.13,0-.15.05-.07,0,.09,0,.16,0,.15.12,0,.1,0,0,0-.09,0-.11,0-.06.08-.06.06-.05.05-.06.07H91l-.1,0-.1,0-.11,0h-.09l-.09,0h-.23l0,0h-.07v.11l.12.08v.2h.06l.1.07,0,.07,0,0h.08l.06,0,0,0,0-.06h0l0,0v.15l-.08,0-.06,0,0,.09,0,0,.09,0,.06-.05,0,0,.1,0,0,.06v0l0,0-.05,0,0,0h-.08l0-.05-.06,0h-.12l-.05-.12,0-.07-.1-.11-.1-.07-.07-.07,0,0,0,.06.06.11.11.11.07.08.07.1,0,0,0,.12,0,.16h.09l0,0,0,0h.09l.05,0,0,0h0l0,.08V109l.07.09,0,0v.07l0,0-.06-.12L91,109l-.12,0-.08,0h-.07l0,0h0v.06l.09.07,0,0,.06.07.13.12.13.14,0,.07,0,.14.13.09.11,0a.43.43,0,0,1,.06.07l.17,0h.09l.09,0,0,0V110l.15,0,.09,0,.05,0,0,.08-.07.07h-.09l-.12,0-.11-.1s0,0-.06,0l-.11-.07h-.08v.06l.16.16.26.21.23.19.21.16.29.23.13.19.18.25,0,.13.16.11.17.1.11.14.09.11.09.14.08.1.08,0,.06-.07,0-.12v-.13a.33.33,0,0,1,.08-.06l.09-.1.1,0,.12,0,0-.06v-.16l.09,0h.11l.11.06.08.1.11.16.18.15H95l0-.1,0-.18,0-.09.08-.06,0-.14v-.08l-.07-.2,0-.08a.43.43,0,0,1,0-.15l0-.12,0-.1-.06-.07-.14-.08h-.06l-.07.1-.09,0s-.1,0-.09-.07,0-.1,0-.13l.1-.15,0-.13v-.16a.58.58,0,0,0,0-.11l-.06-.06,0-.08.08-.09.1,0,.13.05a.33.33,0,0,0,0,.1s.09,0,.09,0l.11,0,.14-.07.15,0a.38.38,0,0,1,.11,0l.14.08.22.06.27,0,.08-.1a1.13,1.13,0,0,0,.07-.18s0-.14,0-.14l0-.2,0-.13-.09,0,0-.1,0-.11h.22l.22.07.11,0,0,.13.09.13.13.14.11.16.08.27.12,0,.19-.06.13-.06.1,0,.15,0h.14l.13-.07s.07-.06.07-.09a.46.46,0,0,0,0-.09l0-.08h.14l.1.06.14.15.11.16.13.19.17.07.13-.09,0-.19,0-.2,0-.16.11-.09.16,0,.07-.08,0-.16,0-.09v-.29l0-.12.18-.19,0-.14,0-.13s0-.18,0-.2v-.51l0-.34v-.18l-.05-.19-.19-.07-.25-.07-.31-.12-.13-.2.08-.1.08-.28v-.44l.17-.15.13,0,0-.08.11-.1.09-.07,0-.1v-.22l0-.18V104l.07-.12,0-.19-.05-.11-.08,0-.14,0h-.23l-.09-.06-.11,0-.09.08h-.26l-.2.09h-.22l-.22.09-.13.1h-.1l-.06-.06,0-.07.07-.07,0,0,0-.14-.08-.06-.06,0,0-.09,0-.09s0-.1,0-.12,0-.08,0-.08l.06,0,.07-.08,0-.09-.08,0,0-.05v-.09l.07-.07.1,0,.1,0,.1-.23-.07-.1-.12-.06h-.21l-.08.06H95.73L95.6,102l-.16,0H95l-.37,0h-.21l-.19,0v1.43Z"/><path class="cls-5" d="M90.07,107.33a1.17,1.17,0,0,0,.05-.11s0-.11,0-.11l-.1,0-.06-.07-.08,0,0,0,0,0,0,.08,0,.06,0,.06.06,0,0,0,.07,0Z"/><path class="cls-5" d="M86.82,97.94l0,.13,0,.14,0,.14v.07l.07.11,0,0-.08-.08,0-.16v-.2l-.06-.1,0-.08v-.07l0,0-.08,0v0l0,0V98h0v0l.07.06,0,.08v.12l0,.08,0,.1.06.09h-.07l0,0h0v-.15l0-.06v-.11l0-.08,0,0v-.19h.07v-.05l-.1,0,0-.08-.14,0,0,0,.14.06,0,0v.06l-.1,0-.09,0,0-.12h-.07l.06.12V98l-.07,0-.07,0,0,.06v.1l-.1,0,0,0-.07,0,0-.1.07-.09V98l0-.07h-.26l-.08,0,0-.14v-.06h-.08a1,1,0,0,0,0,.15l-.06.09,0,.07,0,.1v0l-.07,0v.06l-.06.07v0l-.06,0h0v-.07l-.1,0v.06l-.08,0,.06-.09v-.09l0-.1V98l0-.06h0l-.09,0,0,.09v.14l.08.07,0-.1-.07,0,.09-.1v.1l0,.05v0l-.11.12-.15-.16-.15-.26-.1-.21,0-.19,0,0-.06-.06v-.07h0l0,0,.06,0,0-.09,0,0H84.2l-.06-.07v-.16L84,97l.24,0s.08,0,.1,0l.12.07,0-.08s.07-.06,0-.08-.14,0-.14,0l-.08.05-.11,0,0,0-.15,0H84l-.17-.21h.26l.12-.06h.19l.11,0,0-.11-.07,0v-.06h-.07l0,.13-.15,0,0,0v0H84v-.08h0l0,.13-.16,0-.09-.11-.07-.13.19-.11.18-.13.1-.08.07,0h.19l-.11-.12h-.14L84,96l-.12.12-.24.14-.14,0s0-.1,0-.11a1.71,1.71,0,0,0-.07-.18l-.09-.07-.09-.1v0l-.06-.06,0,0h-.1l-.21-.11-.12-.14-.1-.08-.11-.06h-.23l-.19,0L82,95l-.07-.1-.15-.09a.86.86,0,0,0-.15,0h-.17l-.17.1-.11.1-.15.08-.22.06-.2,0-.16,0h-.23l-.14,0h-.36v-.19l0-.16.06-.14s0-.09,0-.13-.11-.16-.11-.16v-.19l0-.06,0-.12,0-.17,0-.29.1,0-.08-.22,0-.26v-.9l0-.49,0-.59,0-.22.31,0,.21-.11.14-.15.07-.27,0-.23.14-.2.08-.2,0-.14.18-.08.11-.1.06-.14,0-.17,0-.17,0-.06.13-.14s0-.13,0-.13a.56.56,0,0,1,.13,0l.15-.12v-.22l-.08-.19-.08-.17,0-.2,0-.16-.11-.21-.12-.18L81.09,87l0-.14.09-.39.11-.13v-.2l.06-.13V85.5l0-.34.1-.28.18-.12.16-.1a1.52,1.52,0,0,0,.17-.18,1.28,1.28,0,0,0,.11-.2.88.88,0,0,0,0-.2l0-.23,0-.46.28,0,.15-.15.12-.12.16,0A1.29,1.29,0,0,0,83,83h.15l.13,0,.3,0,.25,0h.28l.13-.16.11-.06h.18l.37.11.28.1.36.08.18.05.22.08.18.17.22.35.11.19.15.19.14.06H87l.2-.1.14-.07.25,0,.2-.09.34-.25.17-.08.29,0,.26.14.33.2.25.14.24.09.19.18.26.07.32,0,.26,0,.33,0h.27l.17-.12.36-.39.26-.25.25-.06h.43l.29-.14.31,0h.85l.41.06.15.1.12.05.18,0,.33.13.21.06h.2l.18-.08.18-.12.18-.11.15-.12.17-.14.14-.08.18,0h.21l.09,0,.18-.22.05.06,0,.1,0,.1v.26l.1.06.09.09v.11l0,.06.12,0,.11.11h.09V84l.08.07h.11l.06.07,0,.08v0h-.16l0,.09v0l.11.08v.11l0,0v.06l-.09,0v.08s.07,0,.07,0a.41.41,0,0,0,0,.09l.14,0v0l.06.08V85s0,.06,0,.08a.58.58,0,0,0,.13,0s0,.06,0,.06l.15,0,.17-.06,0,.17h.36l.15.12.14.12.09.11a2.94,2.94,0,0,1,0,.42l0,.11-.13.15,0,.08.06.12,0,.11-.06.09-.11.08-.2.16-.17.1-.21.13-.22,0-.11,0-.11.12-.08.24-.26.21v.23l-.11.11-.08.29-.12.32-.08.25V89l-.2.12-.13.09-.06.08,0,.39,0,.12-.07.21h-.26l-.19.1-.08.1,0,.09v.46l-.09.1,0,.15v.23l-.2.16-.11.08h-.25l0,.15,0,.1-.13,0-.09.06-.09.09,0,.17,0,.17-.06.33-.11.18-.14.17,0,.22,0,.12-.06.18,0,.09,0,.1-.09.11,0,.11V94l0,.15,0,0-.17,0-.15,0-.09.1,0,.23,0,.19-.1.1-.13.1-.11,0H94l-.12,0-.1,0-.07,0v-.27l-.15-.06-.09,0-.08-.07,0-.11,0-.14-.11-.08H93s-.08-.06-.08-.08L92.84,94h-.06v.13l0,.14s0,.08-.06.09l-.13.07-.12,0-.18-.06-.13-.16-.07,0-.07.05-.07.06-.13.07-.1.08v.07l-.08,0H91.5l0,.11,0,.13-.06.1-.13.14-.22.11-.13.06-.12.05,0,.14-.09.21-.17.16-.19.12-.18.09-.08.1,0,.1v.12l0,.12s0,0,0,0a.34.34,0,0,1,0,.11L90,96.7l-.07.11,0,.07,0,.13v.17l-.07.21-.09.17-.08.08-.05.08,0,.16V98h-.08l-.17-.08-.13-.09,0-.12-.07-.1-.13-.07,0,0v.09l0,.11,0,0-.06-.13-.08-.1.06-.09v-.1a.19.19,0,0,0,0-.08l-.12-.09v-.06l-.08,0,.11.12a.24.24,0,0,1,0,.07s0,.11,0,.11,0,0,0,0a.72.72,0,0,0,0,.14l.05.08.07.08.06.05L89,98l0,.08,0,.12v.14h-.6l-.08,0,0,0h-.24l-.08.09-.1,0-.06-.06,0,.13-.36,0v-.06h.15l.12-.09,0,0s0,0,0,0h-.08v0l-.06,0-.12-.06h0l-.06,0-.06,0,0,0-.1-.08v.11l0,0,0,.06-.09,0,0-.16,0,.12,0,0v.14l.06-.06.13,0,0,.08v.1l-.11,0v-.1l-.06.09-.07-.06,0-.08v-.18l0-.09L86.84,98"/><polygon class="cls-5" points="87.37 98.51 87.36 98.27 87.29 98.27 87.22 98.39 87.22 98.54 87.35 98.54 87.37 98.51"/><path class="cls-5" d="M87.44,98.35h.12s0-.06,0-.06l-.12,0v.08Z"/><polygon class="cls-5" points="86.5 98.63 86.61 98.61 86.59 98.53 86.56 98.49 86.56 98.36 86.54 98.26 86.51 98.19 86.47 98.12 86.38 98.12 86.38 98.22 86.4 98.24 86.42 98.45 86.42 98.56 86.42 98.61 86.5 98.63"/><polygon class="cls-5" points="86.33 98.35 86.33 98.15 86.29 98.1 86.22 98.17 86.22 98.27 86.32 98.4 86.33 98.35"/><polygon class="cls-5" points="86.3 98.5 86.22 98.4 86.21 98.35 86.16 98.35 86.16 98.39 86.23 98.53 86.3 98.53 86.3 98.5"/><polygon class="cls-5" points="86.16 98.49 86.15 98.6 85.98 98.6 85.98 98.45 86.03 98.44 86.06 98.4 86.13 98.44 86.16 98.47 86.16 98.49"/><path class="cls-5" d="M85.89,98.63l0-.23h-.07l0,0,0,0v-.08h-.11l0,.28.08,0v0h-.1v.09h.26s0-.07,0-.08l-.11,0v-.15s0-.11,0-.11l.07,0v.13l.06.1h0Z"/><path class="cls-5" d="M85.14,98.4l0,.08.08.06s.07-.07.07-.07v-.1h-.06Z"/><polygon class="cls-5" points="85.08 98.53 85.11 98.67 84.94 98.59 84.94 98.53 85.08 98.53"/><polygon class="cls-5" points="85.31 98.07 85.31 98.27 85.26 98.31 85.34 98.35 85.38 98.4 85.41 98.44 85.46 98.44 85.46 98.3 85.41 98.21 85.37 98.12 85.36 98.07 85.31 98.07"/><polygon class="cls-5" points="85.55 98.13 85.57 98.55 85.48 98.48 85.51 98.31 85.51 98.15 85.55 98.13"/><polygon class="cls-5" points="85.6 98 85.55 98.07 85.62 98.15 85.64 98.12 85.64 98 85.6 98"/><path class="cls-5" d="M85.68,98a1.08,1.08,0,0,0,0,.18s.06-.08.06-.08V98Z"/><polygon class="cls-5" points="85.37 98.74 85.53 98.74 85.53 98.7 85.48 98.67 85.5 98.63 85.45 98.57 85.37 98.59 85.37 98.63 85.34 98.67 85.37 98.74"/><polygon class="cls-5" points="85.28 98.67 85.26 98.73 85.19 98.71 85.19 98.64 85.28 98.67"/><path class="cls-5" d="M101.56,93.44l-.12-.15-.12-.12v-.12l-.13-.18-.1-.08-.1-.15-.08-.3-.07-.22-.12-.31-.2-.19-.3-.26-.27-.21-.3-.22-.3-.25-.08-.07,0-.16-.1-.14L99,90.18,98.82,90l-.13-.1,0-.08,0-.12.07-.12.15-.13.08-.1.11-.06.31,0,.27,0,.16,0,.13,0h.2l.19,0,.18,0h.28l.12,0,.17,0h.17l.09-.06,0-.12-.16-.13-.17-.17-.15-.12-.13-.21-.11-.14-.1-.11,0-.18-.12-.14-.06-.12,0-.11-.07-.16.09-.14v-.18l0-.12.06-.36v-.3l-.08-.16.06-.17-.11-.14,0-.18-.08-.1-.15-.14,0-.39-.09-.18v-.23l-.24-.08v-.12l-.18,0v-.16l.11-.05.13,0,.11.07h.11l.15-.14h.2v0l-.13-.09.1,0h.14l.1,0s0,0,0,0l-.21,0h.15l-.08-.07-.22-.22,0-.08.26.23.13.1.09.06.11,0,0-.08-.07-.1v-.1l0,0,0,0,0-.08h.06l0-.09,0-.06.06-.06-.08,0h-.31l-.29-.06-.1-.08-.07-.12-.11.06,0,.09-.08-.07h-.13l0,0-.12,0-.14,0,0-.06,0,.06-.07,0-.09,0-.07.07,0-.07-.14,0v-.05l0-.06L99,83l-.08-.08,0-.09,0-.06-.07-.08,0-.2,0,0h.12l0,0L99,82.41l.06,0,0-.08-.09,0h0l0-.08-.09,0-.06-.12,0-.11H98.7l-.19,0v-.09h-.13l0,0-.13-.18-.12-.08v.06l.07.16L98,81.81H98l0,.1-.14.09-.07-.27.13-.07h.18l.09-.26.18-.18,0,0,0-.24.11-.26.24-.28.27-.45.72-.74.58-.59L101,78l.19-.21v-3l0-.54.18-.94,0-.29,0-.54.1-.35.21-.36.14-.27-.38-.26-.28-.19-.07-.24-.16-.23.07-.28-.09-.22-.14-.3-.18-.34v-.85l-.14-.57-.18-.89-.06-.26.13-.09L102,66l.57.29L105.77,68l2.85,1.39,4.12,2.16,2.18,1.12.51.27v6.44l0,.12,0,0h-.09l-.17-.08-.1,0-.13,0h-.21l-.2,0h-.11l0,.08h-.13l-.12,0-.16-.06-.13.19-.06,0-.12.08-.06.12V80l.08.11.05.13v.17l-.08.14-.13.13-.12.07-.08.13-.13.08,0,.09.07.09v.11l-.13.07-.17,0-.16.08v.12l.12.08v.1l0,.18.06.09H113l.09.09,0,.15-.13.07-.19.08-.21.12-.22.16-.11.12.06.15.12.13,0,.31,0,.14v.11l-.13.15-.21.13L112,84l0,.13-.06.11a.76.76,0,0,0-.07.13l0,.13.09.12,0,.07.15.07.12,0,.09-.09.11-.08.08,0,.11.07s.09,0,.09.07.07.07.07.07v.1l-.06.11v.09l.1.1.07.13v.31l0,.06h.1l.06,0v.11l0,.11,0,.13,0,.13v.18l0,.11.19.22.15.12.17,0h.09l.12.06,0,.14,0,.21-.17.33-.13,0h-.21l-.23-.06h-.43l-.16.07-.16,0-.21,0-.31.06,0,.11-.07.2v.31l-.07.19-.1.17-.14.23-.19.13-.19.12-.22.15-.21.21-.12.14V90l-.11.09-.15.1-.2.08-.11.09-.11.07a.49.49,0,0,1-.13.08s0,.06,0,.06l0,.12h-.83l-.15.1-.22,0-.21,0-.18,0h-.62l-.15,0H107l-.11.08,0,.12,0,.11.09.1.09.06.12.06,0,.1v.11l-.1.18a1.78,1.78,0,0,0-.23.09,1.21,1.21,0,0,0-.12.13l-.15.16,0,.16-.12.2h-.71l-.19.09h-.81l-.15.06-.13.06-.1.06-.22.13L104,93l-.15.11h-.11l-.19,0-.17.12-.2.06-.13-.09-.08-.1V93l-.06,0h-.36l-.07.1-.09.07-.1.13-.15.1-.15.08-.17.08-.24-.07-.06-.11"/><path class="cls-5" d="M81.25,86.29v-.2l.06-.13V85.5l0-.34.1-.28.18-.12.16-.1a1.52,1.52,0,0,0,.17-.18,1.28,1.28,0,0,0,.11-.2.88.88,0,0,0,0-.2l0-.23,0-.46.28,0,.15-.15.12-.12.16,0A1.29,1.29,0,0,0,83,83h.15l.13,0,.3,0,.25,0h.28l.13-.16.11-.06h.18l.37.11.28.1.36.08.18.05.22.08.18.17.22.35.11.19.15.19.14.06H87l.2-.1.14-.07.25,0,.2-.09.34-.25.17-.08.29,0,.26.14.33.2.25.14.24.09.19.18.26.07.32,0,.26,0,.33,0h.27l.17-.12.36-.39.26-.25.25-.06h.43l.29-.14.31,0h.85l.41.06.15.1.12.05.18,0,.33.13.21.06h.2l.18-.08.18-.12.18-.11.15-.12.17-.14.14-.08.18,0h.21l.09,0,.1-.11.08-.11,0-.1,0-.1,0-.07,0-.07,0-.08-.09-.07h0l0,0v-.08l0,0-.06,0v-.11l.08-.09.11-.08.14,0V82h.07l.06.14v-.17l.13-.07h.15v-.15l.13-.07h.18l.09-.26.18-.18,0,0,0-.24.11-.26.24-.28.27-.45.72-.74.58-.59L101,78l.19-.21v-3l0-.54.18-.94,0-.29,0-.54.1-.35.21-.36.14-.27-.38-.26-.28-.19-.07-.24-.16-.23.07-.28-.09-.22-.14-.3-.18-.34v-.85l-.14-.57-.18-.89-.06-.26-.44.21-.42.25-.44.2-.17,0-.29-.37-.33-.36-.48-.29-.61-.16-.69-.15-.54-.11-.6-.22-.6.37-1.46.91-1.16.71-1.28.74-1.35.81-1,.65-.71.42-.21.16-.92.76-.83.75-.49.42-.31.25-.17.14-.74.18-1.26.33-.5.13,0,3.58v.15l-.14.14,0,.52v.4l-.24.42v.28l-.1.33-.07.19-.3.1-.15.07-.09.15,0,.11-.61,0h-.18l-.16.11-.93,0-.75.08H77.39l-.41.41-.27.2H75.53v.54l-.09.2v.14l.13.09.18.22,0,.2,0,.22.21.24.23.32.59.14.13.2.15.14,0,.13-.25.18V84l.05.14.26.14.15.13.14.12.24.2.27.08.2,0,.16-.07.12-.18h.18l.14.07.16.23.06.18,0,.13-.3,0,0,.12.16.19.12.17.17.21.07,0,0-.25,0-.19h.24l.16-.08.12,0,.09-.13.26,0,.17.16.34.25.21.21.25.19.17.15Z"/><path class="cls-5" d="M70.24,90.1,70.17,90l0-.11,0-.06-.14-.12-.07-.09-.05-.13-.07-.07h-.06l0,0,0,.06-.14-.07-.1,0-.17-.05-.16,0h-.2l-.11,0-.13,0-.13.07-.12.06-.12,0-.06,0-.1.09-.16.1-.07.11,0,.08-.06,0-.13-.06-.06-.11-.09-.06-.12.09-.14,0,0-.05-.08-.07,0-.07L67,89.5h-.15l-.09,0v0l0-.08v-.13l-.07-.08L66.54,89,66.46,89l-.11-.07-.14-.09-.15-.09-.1-.1-.06-.1v-.22l0-.1V88l.09-.1v-.11L66,87.75l0-.26,0-.06.14-.1.12-.09.1-.12,0-.1v-.28l0-.1,0-.07-.06-.09v-.09l0-.1,0-.05-.1,0-.08,0-.07-.05.09,0h.16l.15,0,.11-.08.08-.07.17,0h.25l.11,0h.18l.14-.11.17-.14.09-.13.05-.17,0-.15,0-.17-.08-.13-.11-.12,0-.08.11,0,0-.07.11.06h.15l.07-.06,0-.12v-.09L68,84.28l-.06-.07-.09,0V84l.06-.09.1-.07.1-.06.05-.07.16-.14.08-.09.09-.12.07,0v.25l0,0h.18l.07.07.09.06.12.12.13.09h.09l.08-.14h.07l.22,0,0-.08,0-.09,0-.11,0-.17v-.09l.07-.13H70l.12,0h.12v-.38l0-.17.07-.12a1.82,1.82,0,0,1,.14-.14h.15l.07-.09.12,0L71,82.1h.11l.17.08.17.09h.16l.11-.07.05-.11v-.39l.09-.12.28-.11.23-.12.3-.11.44-.1.28-.08.27-.26.17-.09H74l.15-.06h.18l.19.07.21-.07.11.07.15,0,.26.09h.28v.54l-.09.2v.14l.13.09.18.22,0,.2,0,.22.21.24.23.32.59.14.13.2.15.14,0,.13-.25.18V84l.05.14.26.14.15.13.14.12.24.2.27.08.2,0,.16-.07.12-.18h.18l.14.07.16.23.06.18,0,.13-.3,0,0,.12.16.19.12.17h0l.2.09v.09l-.07,0-.07.13-.08.2,0,.14-.08.13-.09.1-.12,0,0,0-.1.12h-.11l-.12,0H78.1l-.11,0-.09,0h-.05l-.1,0-.08,0h-.11l-.11,0-.07.08,0,.13h-.06l-.13,0-.08.06,0,.09-.07.06v.21h-.08l0-.1-.06,0,0,0,0,.07,0,.13-.11,0-.17,0-.15,0-.15.08L76,87.58l-.13,0H75.7l-.14,0h-.12l-.08,0h-.22l-.11,0h-.09l0-.06-.09-.08h-.09l-.08,0-.06.06,0,.06-.08.06,0,0v-.18l0,0-.06.06-.13.09a.44.44,0,0,0-.07.08l-.08,0-.13-.1h-.74l-.35,0-.36,0h-1.1l-.26,0h-.41l-.22,0-.09,0-.08.11,0,.07-.07.16,0,.16.06.28.09.1,0,.07,0,.07,0,.11.06.08,0,.06,0,.12v.1l.07.1,0,.06,0,.2,0,.09,0,.12,0,.13s0,.12,0,.13.06.08.06.08l.06.14-.06.13-.08-.06-.1,0Z"/><path class="cls-5" d="M65.9,88.51v-.22l0-.1V88l.09-.1v-.11L66,87.75l0-.26,0-.06.14-.1.12-.09.1-.12,0-.1v-.28l0-.1,0-.07-.06-.09v-.09l0-.1,0-.05-.1,0-.08,0-.07-.05.09,0h.16l.15,0,.11-.08.08-.07.17,0h.25l.11,0h.18l.14-.11.17-.14.09-.13.05-.17,0-.15,0-.17-.08-.13-.11-.12,0-.08.11,0,0-.07.11.06h.15l.07-.06,0-.12v-.09L68,84.28l-.06-.07-.09,0V84l.06-.09.1-.07.1-.06.05-.07.16-.14.08-.09.09-.12.07,0v.25l0,0h.18l.07.07.09.06.12.12.13.09h.09l.08-.14h.07l.22,0,0-.08,0-.09,0-.11,0-.17v-.09l.07-.13H70l.12,0h.12v-.38l0-.17.07-.12a1.82,1.82,0,0,1,.14-.14h.15l.07-.09.12,0L71,82.1h.11l.17.08.17.09h.16l.11-.07.05-.11v-.39l.09-.12.28-.11.23-.12.3-.11.44-.1.28-.08.27-.26.17-.09H74l.15-.06h.18l.19.07.21-.07.11.07.15,0,.26.09h1.46l.27-.2.41-.41h1.08l.75-.08.93,0,.16-.11h.18l.61,0,0-.11.09-.15.15-.07.3-.1.07-.19.1-.33v-.28l.24-.42V78l0-.52.14-.14v-.15l0-3.58-.3.06-.32.07-.27.08L81,74l-.28.09-.25-.13-.14-.17,0-.11.06-.17s0-.21,0-.22l0-.23,0-.31v-.23L80,72.25l-.24-.16L79.66,72l-.16,0-.19-.1-.16,0-.1-.11L79,71.76l-.12-.08-.12.07-.12-.07h-.17l-.16,0-.12-.07-.11-.1s-.08-.1-.08-.13,0-.15,0-.15a.48.48,0,0,1-.06-.11.81.81,0,0,0-.1-.09s-.13-.06-.13-.06l-.21-.12h-.31l-.06-.19,0-.16,0-.16,0-.14-.06-.14L76.92,70l-.17-.1L75.56,69l-1.25-.86L73,67.24,71.11,66l-2.37-1.55-1.37-1-.47-.31h-.6l-1.38,0h-.75l.08.94.09.92.13,1.17,0,.26,0,.6.13,1,.11,1.11.16,1.35.13,1.34.15,1.48.16,1.66.16,1.37.06.86,0,.52v.34l0,.1.17.07.1.1.09.1.06.12v.21l0,.22-.06.4,0,.26V80l-.06.08h-.44L62.08,80l-2,0h-.39l-.12,0-.05-.08,0-.08s0-.09,0-.09h-.1l-.09.06,0,.1,0,.15-.1,0h-.28l-1.6,0h-.13l-.08,0v.09l-.09.11-.16.2-.07.08-.16-.22a.75.75,0,0,1-.09-.09.32.32,0,0,0-.12-.11l-.09-.07-.19-.16L56,79.77l-.06-.07-.1,0a1.07,1.07,0,0,0-.17.06l-.13.08-.11.06-.15.12-.07.14-.08.15v.33l0,.06,0,.1-.06.1-.06.08-.17.12-.09,0-.16.07,0,.11v.08l-.08.09,0,.11v.14l.08.15.13.13.14.08.11.08v.34l0,.11,0,.22-.11.12v.2l.09.09,0,.07,0,.08v.11l.05.07.06,0,.06-.08.06,0h.09l.11.1.1.11.09.19.08.27.08.27v.19l0,.23,0,.09.06.08,0,.06,0,.11-.07.08,0,.08,0,.12,0,0,0,.09,0,0,.08.09.11.09,0,.09.07,0h.09l.12-.06,0-.07.07-.1.07-.1.06-.09.12,0,.07,0,.09.07a1.27,1.27,0,0,1,.07.12,1.34,1.34,0,0,0,.06.12l0,.08,0,0,0,.08.07,0,.09-.09a1.34,1.34,0,0,0,.07-.18l.09-.16.08-.07.12-.06h.19l.2,0,.18.07.15.09.15.09.12.1.08.09.07-.09a1.47,1.47,0,0,0,.06-.14.52.52,0,0,1,0-.11.85.85,0,0,1,.11-.14l.13-.07.14,0h.13l.09,0,0-.09a1.33,1.33,0,0,0-.06-.12l-.11-.06s0,0,0,0h.35l.19.08.21.09.07.15-.06.07s0,.08,0,.09l.08,0,0,0a.31.31,0,0,1,0,.07l0,.06v.06l.05,0h.06l.08.08,0,.09,0,.13,0,.11,0,.07v.08s0,.1.05.1l.17,0,.06,0,.05.11,0,.08.11,0,.16,0,.11.08.06,0V87s0,.07-.06.07l-.12,0-.08,0-.08.11v.08l-.11.11,0,.07,0,.07.06.05.09,0,.06-.11.11,0,.09,0,.09.06.07.11v.52l0,.1,0,.11,0,.08.09,0,.1,0,.12.08.14.07,0,0v.17L62,89l.09-.09,0-.17,0-.12.13-.07.18-.07.12,0,0,.1.1,0,0,0,0,.13s0,.06,0,.06l.13.05h.11l.09,0,.08.06.12.06.06,0,0-.12,0-.1v-.08l.1-.06h.21l.12,0H64A.54.54,0,0,0,64,88.6a.28.28,0,0,0,0-.08l-.07-.11a.56.56,0,0,1,0-.07.53.53,0,0,0,.06-.1h.08l.11,0s0,.07.06.07h.08s.06,0,.06,0a.53.53,0,0,0,0-.12s0-.06,0-.07l.14,0h.13l.07.06v.08l0,.06v.07l.08.08,0,.12,0,.12s0,.1,0,.1v.09s0,.08,0,.08l.08,0L65,89l.12,0,.09-.16,0-.09,0-.09.08,0,.1,0,.08,0,.1,0h.21Z"/><path class="cls-5" d="M54.65,81.2l.16-.07.09,0,.17-.12.06-.08.06-.1,0-.1,0-.06v-.33l.08-.15.07-.14.15-.12.11-.06.13-.08a1.07,1.07,0,0,1,.17-.06l.1,0,.06.07.07.12.19.16.09.07a.32.32,0,0,1,.12.11.75.75,0,0,0,.09.09l.16.22.07-.08.16-.2.09-.11v-.09l.08,0h.13l1.6,0h.28l.1,0,0-.15,0-.1.09-.06h.1s0,.09,0,.09l0,.08.05.08.12,0H60l2,0,3.36.06h.44l.06-.08v-.22l0-.26.06-.4,0-.22v-.21l-.06-.12-.09-.1-.1-.1-.17-.07,0-.1v-.34l0-.52-.06-.86-.16-1.37-.16-1.66-.15-1.48-.13-1.34-.16-1.35-.11-1.11-.13-1,0-.6,0-.26-.13-1.17-.09-.92-.08-.94h.75l1.38,0h.6l-1.56-1.06L63.71,61l-1.4-.87-1-.71L60.64,59v2.38l-5.66,0V66l-.17.06h-.13l-.19.1-.1.08-.18,0H54l-.28.15-.21.14-.21.18-.15.22-.06.23v.26l.1.85,0,.46,0,.31.06.72H52l-2.34,0-1,0h-.74l-.72,0-.35,0-.16.06-.07.13-.09.22,0,.24v.19l.07-.08,0-.18v-.12l.05-.14,0-.1.07-.07h.05l0,0,0,.09v.08l.08.09,0,.06.07.12.06.07,0,0,0,.15v.12l.13.15,0,0s0-.1,0-.11V70.8l.1,0,.06.06a1.77,1.77,0,0,0,.06.17l.09.17,0,.14.06.11.05.08.13.1v.14s-.08.06-.08.08a1.34,1.34,0,0,0,.06.12V72l-.07.08s-.12.12-.12.12l0,0h.13v.11s-.07.11-.09.11-.1,0-.1,0a.5.5,0,0,0,0-.12l-.15.06,0,.13,0,.11v.26l-.06.08-.06,0v.08h.06l.11-.14h.06l0,.08-.13.13h-.19v.07l.09.12.08.1.19.15.12.19.11.27,0,.29.07.27.07.27,0,.39v.44l0,.53-.07.28-.26.66-.13.32-.18.38,0,.07v.2l0,.09,0,.11,0,.08,0,.08,0,.13V79l.16-.12v-.16l.13-.12,0-.12,0-.13,0-.13.11-.07.1,0,.14,0,0,.08h.1l.06-.07h.26l.08.07.08,0,.11,0,0,0,.06,0h.59s.07,0,.07,0h.14l0-.14.1,0,.16,0,.18,0,.1,0h.53L51,78a1.14,1.14,0,0,0,.11.11l.11,0,.1,0,.09.1.13.15.09.08.14.21.08.1.23,0,.05,0,.19,0,.18.07.1.08.1.16.08.15.07.18a1.39,1.39,0,0,0,.06.13,1.09,1.09,0,0,0,.1.11l.08.07,0,.08,0,.06h.11l.08,0,0,.08.06.12,0,.15.13.11.13.09.18.16.17.11.22.15.15.12.1.1Z"/><path class="cls-5" d="M70.34,97.44l.1,0,.06-.06.06-.21,0-.17,0-.16-.06-.16-.11-.08-.12,0-.1-.11L70,96.34,70,95.88l0-.28-.1-.18,0-.2-.07-.16-.06-.14v-.43l.15-.12.17-.18L70,94l0-.12.06-.47.06-.18,0-.21.08-.15.16-.26.15-.15,0-.07.19-.24V92l-.08-.29v-.19l-.06-.16-.11-.15V91l-.18-.07,0-.13v-.1l.07-.08.06-.07v-.06l-.06-.09v-.08l-.08-.06-.1,0-.05-.07L70.17,90l0-.11,0-.06-.14-.12-.07-.09-.05-.13-.07-.07h-.06l0,0,0,.07-.13-.08-.11,0-.17-.05-.16,0h-.2l-.11,0-.13,0-.12.07-.13.06-.11,0h-.06l-.11.09-.16.11-.07.1,0,.08-.06,0-.13-.06-.06-.1-.08-.07-.12.09-.15,0,0-.05-.09-.07,0-.07L67,89.5h-.15l-.09,0v-.13l0-.13-.07-.08L66.54,89,66.46,89l-.11-.07-.14-.09-.15-.09-.1-.1-.06-.1h-.21l-.1,0-.08,0-.1,0-.08,0,0,.09,0,.09-.09.16L65,89l-.16,0-.08,0s0-.07,0-.08v-.09s0-.09,0-.1l0-.12v-.12l-.08-.08,0-.07,0-.06v-.08l-.07-.06h-.13l-.14,0s0,.07,0,.07a.53.53,0,0,1,0,.12s-.05,0-.05,0h-.09l-.06-.08-.11,0-.07,0a.43.43,0,0,0-.07.1s0,.07,0,.07l.07.1a.28.28,0,0,1,0,.08.54.54,0,0,1-.05.11.48.48,0,0,1-.12,0l-.12,0h-.2l-.11.06v.08l0,.1,0,.12-.06,0-.11,0L63.16,89l-.08,0H63l-.13,0,0-.07,0-.13-.06,0-.09,0,0-.1-.12,0-.18.07-.12.07-.06.12,0,.17L62,89l-.15,0-.17,0-.15.13-.11.13v.13l.07.09,0,.21-.07.15,0,.17.05.17.42,0,0,.24v.1l.19.09.1.17-.23,0-.15.12v.27l.26.1.08.23.11.19-.06.22-.11,0,0-.13-.13.11-.16-.16-.13,0-.08,0-.12,0h-.1v.46l.2.13.22.16-.28.23.05.36-.16.2-.14-.09H61l-.16.12v.2l.26.5,0,.19-.05.21,0,.15-.09.17-.1.1-.09.15,0,.12v.09H61v.14l.13,0,.16,0,.16,0,.16.07.14.09.16.07.11.12.06.16V96h.07l.11.07.14.1.11.14.08.09.06.1,0,.22-.11.08,0,.08.12.08,0,.1h-.16v.28l-.16,0,0,.09.06.08v.13l-.09.07v.1l0,.15,0,.13,0,.1,0,.13,0,.07,0,.18h.16l.23-.06.19-.12.13,0,.17,0,.1-.08.09-.09.15-.07.22,0,.15-.06.21-.08.23-.07.27,0,.24-.15.21-.13.29,0,.32-.06.49-.06.42,0,.46,0,.5,0,.47-.07.31,0,0-.07,0-.1.22,0,.11,0V97l-.12,0,0,0,.16,0,.24,0h.24l.13,0,.2,0,0-.12,0-.08.09,0s.09.16.09.16l0,0s0,.08,0,.08l.11,0,0,0-.21,0,.17.06.07.12,0-.09.13,0Z"/><polygon class="cls-5" points="55.77 94.32 55.84 94.25 55.92 94.15 55.97 94.03 55.97 93.91 56.02 93.82 56.2 93.73 56.31 93.66 56.41 93.61 56.55 93.54 56.63 93.43 56.71 93.31 56.81 93.26 56.92 93.14 57.03 93.01 57.23 92.84 57.23 92.61 57.15 92.53 57.17 92.42 57.31 92.42 57.42 92.33 57.57 92.27 57.75 92.23 57.75 92.15 57.76 91.94 57.81 91.87 57.9 91.69 58.07 91.7 58.16 91.84 58.27 91.83 58.35 91.7 58.58 91.68 58.69 91.65 58.87 91.75 59.03 91.76 59.05 91.69 59.11 91.79 59.11 91.88 59.03 91.92 59.04 92.07 59.1 92.16 59.1 92.41 59.23 92.48 59.23 92.75 59.34 92.85 59.35 93 59.31 93.13 59.3 93.24 59.19 93.35 59.21 93.49 59.41 93.49 59.61 93.63 59.69 93.68 59.76 93.89 59.96 93.75 60.15 93.75 60.32 93.5 60.42 93.34 60.43 93.14 60.44 93.06 60.59 93.07 60.7 93.21 60.79 93.32 60.84 93.39 60.84 93.43 61.1 93.93 61.13 94.12 61.08 94.33 61.03 94.48 60.94 94.65 60.84 94.75 60.75 94.9 60.7 95.02 60.7 95.11 60.97 95.12 60.97 95.26 61.1 95.28 61.26 95.33 61.42 95.38 61.58 95.45 61.72 95.54 61.88 95.61 61.99 95.73 62.05 95.89 62.06 95.95 62.13 95.95 62.24 96.02 62.38 96.12 62.49 96.26 62.57 96.35 62.63 96.45 62.61 96.67 62.5 96.75 62.52 96.83 62.64 96.91 62.61 97.01 62.45 97.01 62.45 97.29 62.29 97.32 62.31 97.42 62.37 97.49 62.37 97.61 62.28 97.69 62.28 97.79 62.32 97.94 62.28 98.07 62.33 98.17 62.31 98.3 62.35 98.37 62.33 98.55 62.13 98.55 61.95 98.44 61.75 98.31 61.49 98.24 61.32 98.25 61.16 98.16 60.87 98.02 60.67 97.89 60.41 97.75 60.26 97.66 60.09 97.56 59.93 97.53 59.7 97.37 59.42 97.16 59.27 97.1 59.11 96.87 59 96.8 58.96 96.7 58.74 96.56 58.48 96.3 58.21 96.02 57.87 95.75 57.55 95.57 57.3 95.48 57.08 95.43 57.05 95.32 56.96 95.15 56.7 94.97 56.34 94.8 56.1 94.73 56.01 94.71 56.09 94.67 56.2 94.67 56.3 94.67 56.31 94.62 56.26 94.54 56.18 94.51 56.12 94.53 56.08 94.56 56.01 94.55 55.92 94.43 55.84 94.36 55.77 94.32"/><path class="cls-5" d="M60.64,59v2.38l-5.66,0L55,66l-.18.06h-.13l-.19.09s-.08.08-.1.08l-.18,0H54l-.28.14-.21.14-.21.18-.15.22-.06.23v.26l.1.85,0,.46,0,.31.06.72H52l-2.34,0-1,0h-.74l-.72,0-.35,0-.15.06-.08.13-.08.22,0,.24v.19l-.07-.45.1-.35.08-.38.07-.25-.07-.43.22-.45.17-.34L47,68l.1,0,.24-.09.07-.23v-.12l.15-.1,0-.38.11-.06,0-.16.12,0,.15-.13v-.13l-.09,0,0-.08.27-.38.14-.29.07-.13.29-.38v-.27l-.16.17-.09.13-.14.17-.05-.07.18-.29L48.6,65l.19-.06.12-.15.22-.23.51-.47L50,63.7l.13-.39V63l0-.17,0-.3.1-.19.15-.18,0-.23,0-.17.13-.16.09-.21,0-.18V61l.07-.17.21-.08.11-.09.1-.18.22,0,.2-.09.31-.16.21-.15.2-.28.16-.43,0-.24.13-.2.1-.28.05-.19.08-.15h7.75Z"/><path class="cls-5" d="M91.1,53.4l.07-.07,0-.13-.08-.37-.25-.89-.15-.69-.12-.59-.08-.41-.12-.39L90,49.62l-.32-.22-.42-.28L89.16,49l-.07-.16,0-.39L89,48.32l-.1-.2-.16-.25-.19-.12-.21-.06-.25-.1v-.32l0-.14-.13-.25-.1-.31,0-.2v-.49l.18-.22.28,0v-.26l0-.09.11-.12.2-.15.3-.21.08-.17v-.46l.07-.11.09-.15.07-.17,0-.13,0-.12L89,43.36v-.15l.06-.09v-.36L89,42.6l0-.14,0-.18,0-.2.07-.18v-.28l0-.22.06-.21v-.1H88.9L88.84,41v-.11l.09-.06.19-.13.14-.1.22-.13.09-.14,0-.1-.08-.12h-.15l-.2,0H89L89,40.08h-.09l0,.09-.14,0h-.41s-.1-.08-.1-.08L88.06,40h-.12L87.8,40l-.08-.09h-.18l0-.05h-.32l.06.08V40l-.13.11-.13,0-.19,0-.18,0h-.19l-.14,0L86.18,40l-.07-.13L86,39.79h-.24l-.07.05-.09.06,0,.05.05.09-.05.08-.12.05-.17,0-.15.08-.19.05h-.26l-.15.07-.14.09-.16,0-.32.05-.18-.06-.14-.08-.14-.12-.34-.12H83l-.29,0-.13,0-.21,0-.14,0h-.4l-.19-.05-.19.06-.12.08-.14.09-.23,0-.13,0-.23,0h-.17l-.13-.08h-.18l-.08.05-.14.06-.16.11a.85.85,0,0,1-.17.1l-.24.05-.13,0-.05,0h-.27a1.64,1.64,0,0,0-.22.12,1,1,0,0,1-.25,0h-.28l-.17,0-.24,0-.21,0h-.12l-.13.09L77,41l-.15,0-.12,0-.09.16h-.11l-.1.08-.2,0-.12.08-.22.12-.17.05-.07.08-.09,0-.14.1-.07.12-.08.16,0,.13-.14.11-.16.08h-.14l-.15,0,0-.08v-.08l-.06,0-.06,0-.15,0,0,.16-.05.06-.11,0-.14,0-.18,0h-.07l-.12.07h-.08l-.07,0h-.07l-.05.07-.16.15h-.08l0,.16,0,.17-.09.1-.11.08-.11,0,0,.06-.13.06-.27.08-.07.09-.12.1-.16.06-.26,0-.29-.05,0,.12.29.17a.85.85,0,0,1,.14.11l0,.11.15.17a.56.56,0,0,1,0,.17l0,.18.12.09.07.13-.07.14,0,.19.12.29V46l0,.25-.07.21-.06.09v.1l.21.09,0,.19,0,.15-.12.23,0,.17.15.2.17.2.07.14,0,.1v.16l.12.16.24.21.27.16a1.33,1.33,0,0,1,.16.12.13.13,0,0,1,0,.08l-.05.12a1,1,0,0,1-.15.08l-.1.1,0,.13,0,.16.09.12,0,.08-.21,0-.22,0-.35-.07-.27-.1H71.8l-.17,0-.36,0H71l-.19,0-.14.13h-.44l-.06.11.14.19.08.16-.12.13h-.2l-.22.06-.19.07-.27.07-.3.06-.09.14V51l0,.12-.12.08,0,.13v.32h.08l.08-.07.08,0,.07.16v.12L69,52l-.12.1-.08.15,0,.14.11.08-.15.11-.23.12H68.2l-.21,0-.16.13-.32.31-.26.21-.34.12a1.33,1.33,0,0,0-.17.16l-.43.4-.49.53-.16.18-.11,0s0-.1,0-.1l-.13-.06h-.19l-.21.06H64.2l-.18.07-.25.06h-.24l-.16,0-.12-.07-.17,0-.2.08-.1.15-.12.05-.15-.05-.23.11-.09.14a.54.54,0,0,0-.16.09s-.15,0-.15,0l-.16.07-.17.16-.17.08-.08.06-.22.26-.36.25-.08.11V59l1.67,1.12,1.41.87,1.62,1.16,1.56,1.06.47.31,1.38,1L71.11,66,73,67.24l1.36.94,1.24.86,1.2.84.16.1.14.11.06.14,0,.14,0,.16,0,.16.06.19h.31l.22.12a.69.69,0,0,1,.13.06s.07.06.09.1l.06.1s0,.12,0,.15.08.13.08.13l.11.1a.57.57,0,0,0,.12.07l.16,0h.17l.13.07.11-.07.13.08.08.14.09.1.16,0,.19.1.16,0,.07.09a2.5,2.5,0,0,0,.24.16l.46.22v.23l0,.31,0,.23s0,.22,0,.22l-.06.17v.11l.14.17.25.13L81,74l.34-.11.27-.08.32-.07.8-.19L84,73.17l.74-.18.17-.14.31-.25.49-.42.84-.75.91-.76.21-.16.71-.42,1-.65,1.36-.81,1.27-.74,1.16-.71,1.46-.91.6-.36-.23-.37-.45-1-.4.07-.2-.1-.36-.24-.09-.21L93.45,64h-.19l-.07.1-.08,0-.06-.11-.21,0-.18.08h-.22l-.1-.16-.14-.17-.12-.13-.1-.21v-.7l-.22-.27-.36-.46-.29-.47L91,61.23,90.88,61,91,60.9l.05-.11.06-.16.24-.06.17,0,.25-.08v-.2l0-.38,0-.22-.11-.27,0-.47.17-.52.07-.39.07-.22,0-.12-.16-.21,0-.35.06-.49.12-.43,0-.45-.1-.59-.29-.66L91.15,54,91,53.68V53.5l.14-.1"/><path class="cls-5" d="M71.37,43.83l0,.12.29.17a.85.85,0,0,1,.14.11l0,.11.15.17a.56.56,0,0,1,0,.17l0,.18.12.09.07.13-.07.14,0,.19.12.29V46l0,.25-.07.21-.06.09v.1l.21.09,0,.19,0,.15-.12.23,0,.17.15.2.17.2.07.14,0,.1v.16l.12.16.24.21.27.16a1.33,1.33,0,0,1,.16.12.13.13,0,0,1,0,.08l-.05.12a1,1,0,0,1-.15.08l-.1.1,0,.13,0,.16.09.12,0,.08-.21,0-.22,0-.35-.07-.27-.1H71.8l-.17,0-.36,0H71l-.19,0-.14.13h-.44l-.06.11.14.19.08.16-.12.13h-.2l-.22.06-.19.07-.27.07-.3.06-.09.14V51l0,.12-.12.08,0,.13v.32h.08l.08-.07.08,0,.07.16v.12L69,52l-.12.1-.08.15,0,.14.11.08-.15.11-.23.12H68.2l-.21,0-.16.13-.32.31-.26.21-.34.12a1.33,1.33,0,0,0-.17.16l-.43.4-.49.53-.16.18-.11,0s0-.1,0-.1l-.13-.06h-.19l-.21.06H64.2l-.18.07-.25.06h-.24l-.16,0-.12-.07-.17,0-.2.08-.1.15-.12.05-.15-.05-.23.11-.09.14a.54.54,0,0,0-.16.09s-.15,0-.15,0l-.16.07-.17.16-.17.08-.08.06-.22.26-.36.25-.08.11v2.05H52.89l.1-.16.11,0,.11-.15.12-.23.12,0,.3-.06.28-.06.22-.09.19,0,0,.16.1-.07.06-.1.12-.06.15-.1.28-.1.22-.07.23-.08a1.63,1.63,0,0,0,.18-.14l.15-.2.14-.2.21-.09.13-.07.06-.14.17-.07.26-.09.33-.14.29-.33.32-.41.23-.23.14-.31.14-.21.23-.17.15-.31.12-.32s.07-.29.07-.31S59,53,59,53l-.15-.21-.09-.09-.06-.09H58.5l0-.15.13-.15,0-.13-.08-.08v-.38a.66.66,0,0,1,0-.11,2.38,2.38,0,0,1,.12-.27l-.07-.16v-.13l.21-.24,0-.2,0-.11.25-.26a2.12,2.12,0,0,0,.2-.21s.11-.22.13-.24a.42.42,0,0,0,0-.14l0-.22.1-.12,0-.07,0-.12V49l0-.11.32-.32.25-.24.37-.33.16-.26.09-.24.19,0,.12-.08.12-.12.23-.05.66-.3.54-.24.54-.34.41-.38.38-.43.36-.64.29-.75.25-.65.16-.46.12-.36,0-.2h.26l.07-.1H66l.11.13.09.11v.15l0,.11.09.1.2.07.08.15.17.17.25.17.24.15.34.05h.25l.21-.09h.25l.15-.06.09-.05v.09h.19l.11,0v-.09h.11l.1.09.2,0h.24l.23-.06.09-.08.1,0,.12-.18,0-.08,0,0,0,.22v.16l.1.1.11.11.12,0h.13l.18.05h.11l.14-.09h.14l.12,0Z"/><path class="cls-5" d="M94.45,47.72v.35l-.06.33.06.4.12.17,0,.14-.17.16-.15.06-.29.11-.31.12-.28.23,0,.13-.1.13H93l-.09.12,0,.11-.1.15-.16.08h-.17l-.13.15,0,.13-.15.11v.29l.22.24,0,.6-.09.31-.22.45-.37.35-.22.11-.31.08,0-.13-.08-.37-.25-.89-.15-.69-.12-.59-.08-.41-.12-.39L90,49.62l-.32-.22-.42-.28L89.16,49l-.07-.16,0-.39L89,48.32l-.1-.2-.16-.25-.19-.12-.21-.06-.25-.1v-.32l0-.14-.13-.25-.1-.31,0-.2v-.49l.18-.22.28,0v-.26l0-.09.11-.12.2-.15.3-.21.08-.17v-.46l.07-.11.09-.15.07-.17,0-.13,0-.12L89,43.36v-.15l.06-.09v-.36L89,42.6l0-.14,0-.18,0-.2.07-.18v-.28l0-.22.06-.21v-.1H88.9L88.84,41v-.11l.09-.06.19-.13.14-.1.22-.13.09-.14,0-.1-.08-.12,0,0,.15,0,.18,0,.07,0,.12-.1.07,0,.08-.11.07-.1.14,0,.13-.1,0,0,.09,0,.14,0,.13,0,.11-.07.23,0,.19-.06h.19l.09.06.1,0,.11,0,.12.07.09.08,0,.09.08.09,0,.06,0,.08V40l.08.09.19.08,0,.08,0,.11,0,.11.07.09.13,0a.43.43,0,0,0,.11,0l.08-.07.08-.13.06-.1h.19l.13-.06.09-.06.06-.11,0-.07.15-.07h.1l0,.06V40l0,0,0,.16a1.68,1.68,0,0,1,0,.18l-.06.08-.16.12,0,.08-.08.12,0,.08-.07.21h-.08l-.17.09-.25.11-.06.17-.07.17,0,.36.09.12.11.2.09.15.15.06.15.1.19.11.16.11V43l0,.07,0,.09v.13l0,.13.19.2-.07.07-.11.14,0,.24h0l-.12.06v.11l0,.15a.74.74,0,0,0-.08.13.36.36,0,0,0,0,.07l0,.05,0,0-.18.06-.06,0-.06.07,0,.08-.08.1h0l-.15,0-.09.09v.09h-.25l0,.1-.11,0,0,.11,0,.07-.07.12-.07.3s0,.16,0,.17a1.31,1.31,0,0,0,.09.17l.13.12.18.17.19.16.09,0,.08,0,0,0,.14,0,.1,0,0-.06h0l0,0,0,0v-.17l.18-.13h.21l.09.08,0,.14,0,.11h0l-.1.09,0-.17h-.1l0,0h0l0,.08v.21H93l0,.07.1,0,.11.05.22-.06.12-.06,0-.16.19,0,.08.11v.35l0,0,0-.1h-.08l0,0,0,.05,0-.05-.07.15h.06v.12l.1-.13h.22l.08,0,.1.1H93.7l-.12,0v.07l.14,0,0-.09.09.11.1,0,.12,0h.14l0,0-.08-.09.17.1.11.09"/><path class="cls-5" d="M155.62,143.36l-.17.71-.16.79-.08.44-.19.37v.38l-.16.35-.14.37-.18.24v.29l-.13.18-.06.21v.17l-.1.19h-.09v.16l-.16.18h-.23l-.14.17h-.81l-.37.22-.38.21-.3.23-.43.08-.39.06-.14-.14-.18-.05-.18-.17-.24-.15-.38-.07h-.24l-.08-.15.12.06.06-.06-.11-.1-.18-.06-.26-.12-.1-.12L149,148l-.09-.17v-.2l-.12-.18-.25-.22-.11-.12-.06-.3.05-.23-.1-.32v-.47l.13-.11.07-.11,0-.17-.17-.15-.05-.24v-.3l-.16-.17-.27-.37-.1-.48-.06-.44h.15v-.12l-.14,0V143l.11-.25v-.08h.11l0-.23.12-.13,0-.1.05-.21-.05-.14,0-.17.15-.09h.3l.09-.12.08-.19.09-.27.05-.19,0-.12H149l0-.11.15-.29.14-.12.11-.09,0-.09-.11,0,.16-.17.12-.11.09-.18.06-.16v-.16l-.09-.09,0-.11,0-.12.09-.11,0-.12,0-.08-.07-.11-.17-.24-.15-.25,0-.2v-.1l0-.23,0-.21.11,0-.07-.13h-.1v-.2l-.13-.17-.1-.09v-.12l0-.12,0-.18-.07-.18-.05-.1v-.07l.06-.11v-.22l0-.16-.1-.19,0-.13.06-.25.2-.22v-.18l.23-.23.16-.3.15-.15v-.23l.05-.19-.06-.14-.05-.16.08-.16,0-.09h.31l.15.06h.18l.21-.11.21-.15.11-.11.18-.08,0,.1,0,.13.05,0,.14-.08v-.14l.23-.06.09.05v.09l.06,0,0-.16,0-.16.11-.09h.36l.1.08.1.06.14,0,0-.12h-.09l.1-.09h.27l0,.15v.13l.08.11.08.07,0-.1.07-.07,0-.07-.06,0h-.06V132l0-.12v-.08l.2-.16.18-.11.29-.17.07-.11.21-.13H154l.06.11.06.09-.05.09-.08.08,0,.17-.05.11v.07l.13,0,0-.15.05-.09.17-.05.1,0,.05-.05-.06-.09v-.13l-.15,0v-.14l.07-.11.15-.09.1-.16.06-.08h.15l.06-.11h-.18l.11-.19.16-.11,0,.09v.16l-.08.12-.05.1,0,.14.08.06.11-.08.09-.15.11-.13.06-.11,0-.13.14-.17h.1l0,.07.08,0,.06-.12v.31l.15,0v-.16l-.06-.14h-.24l-.07-.08h-.11l-.06-.16v-.08l.06-.15,0-.14h.24l.06-.12-.1-.07,0-.06.17.06,0,.13-.06.1v.07h.12v-.11s0-.05,0-.08,0-.21,0-.21l-.07-.08h-.1l.09-.18-.11-.09-.07-.12v-.08l.13-.11-.08-.05v-.09l.07-.08h.08l.07.07v-.13l.06.1H156v.15l.12.14.07,0h.08l.08-.16.2,0v-.07l-.21,0,0-.1h.23l0-.09v-.11l.11-.09H157l.12,0v-.48l.14-.1.05-.19V127l-.07,0v-.13l-.09-.06,0-.1-.12-.07-.07-.08,0-.07h.22l.06.06h.06l.07-.18.1-.07.13-.07h.08V126l-.07-.09v0h.07l.07-.07v-.09l.08-.06h.06v.13l.07.08,0,.11-.11,0h-.09v.09h.13l.07,0,.19.05v.2l.06.05h.12l-.09.11,0,.12.06.06v.09l.09.07v.18l.14-.1.07.15,0,0,.14,0v.12l.11.13.07.14v.51l.1.18.11.17.06.19v.29l.06.41V130l.09.2v.22l.07.24.18.28.13.26.05.2,0,.27-.11.29-.1.26-.1.12,0,.14-.21-.08-.19-.13L159,132l0-.18v-.12l-.1-.08-.06-.17-.1.06h-.13l-.1.15,0,.21.07.17,0,.15v.3l0,.14.14.06.07.06V133l.06.09,0,.27-.07.13-.13.12-.07,0,.11.14.13.06,0,.15-.15,0-.25,0-.1.16-.07.23,0,.09,0,.19V135l.12.27v.24l-.05.35-.09.28-.1.32-.21.49-.22.68-.15.46-.23.77-.15.46-.15.4-.15.37-.16.36,0,.25-.12.25v.2l-.11.27-.1.2-.09.38-.07.23-.11.14-.09.17,0,.2-.06.16-.08.2-.08.15Z"/><path class="cls-5" d="M158.79,134.31l.08-.12.16-.28.08-.15,0,0s0-.09,0-.09a.68.68,0,0,0-.15.08l-.07.18-.12.21,0,.08Z"/><polygon class="cls-5" points="156.28 127.73 156.31 127.93 156.29 128.09 156.22 128.09 156.17 128.09 156.08 128.03 156.03 127.99 156.03 127.94 156.07 127.91 156.03 127.84 156.07 127.78 156.11 127.79 156.15 127.83 156.17 127.77 156.17 127.7 156.22 127.7 156.28 127.73"/><line class="cls-7" x1="2.07" y1="108.17" x2="200.12" y2="106.89"/><text class="cls-8" transform="translate(171.33 105.53) scale(1.05 1)">KENYA</text></g></g></svg>